<mxfile host="app.diagrams.net" modified="2023-12-11T04:12:08.127Z" agent="Mozilla/5.0 (Windows NT 10.0; Win64; x64) AppleWebKit/537.36 (KHTML, like Gecko) Chrome/120.0.0.0 Safari/537.36" etag="7fbW2OwxPD3p3wToG8yE" version="21.8.2" type="github">
  <diagram name="Page-1" id="3e8102d1-ef87-2e61-34e1-82d9a586fe2e">
    <mxGraphModel dx="1395" dy="625" grid="1" gridSize="10" guides="1" tooltips="1" connect="1" arrows="1" fold="1" page="1" pageScale="1" pageWidth="1100" pageHeight="850" background="none" math="0" shadow="0">
      <root>
        <mxCell id="0" />
        <mxCell id="1" parent="0" />
        <mxCell id="MtvdU-WDkwJUPXnvFVWg-23" value="" style="shape=image;verticalLabelPosition=bottom;labelBackgroundColor=default;verticalAlign=top;aspect=fixed;imageAspect=0;image=data:image/png,iVBORw0KGgoAAAANSUhEUgAAB9AAAAPICAMAAAC2LJCuAAAAAXNSR0IArs4c6QAAAARnQU1BAACxjwv8YQUAAAADUExURZ+/7wLdj4kAAAABdFJOU4CtXltGAAAACXBIWXMAABcRAAAXEQHKJvM/AAAHbElEQVR4Xu3BMQEAAADCoPVPbQ0PIAAAAAAAAAAAAAAAAAAAAAAAAAAAAAAAAAAAAAAAAAAAAAAAAAAAAAAAAAAAAAAAAAAAAAAAAAAAAAAAAAAAAAAAAAAAAAAAAAAAAAAAAAAAAAAAAAAAAAAAAAAAAAAAAAAAAAAAAAAAAAAAAAAAAAAAAAAAAAAAAAAAAAAAAAAAAAAAAAAAAAAAAAAAAAAAAAAAAAAAAAAAAAAAAAAAAAAAAAAAAAAAAAAAAAAAAAAAAAAAAAAAAAAAAAAAAAAAAAAAAAAAAAAAAAAAAAAAAAAAAAAAAAAAAAAAAAAAAAAAAAAAAAAAAAAAAAAAAAAAAAAAAAAAAAAAAAAAAAAAAAAAAAAAAAAAAAAAAAAAAAAAAAAAAAAAAAAAAAAAAAAAAAAAAAAAAAAAAAAAAAAAAAAAAAAAAAAAAAAAAAAAAAAAAAAAAAAAAAAAAAAAAAAAAAAAAAAAAAAAAAAAAAAAAAAAAAAAAAAAAAAAAAAAAAAAAAAAAAAAAAAAAAAAAAAAAAAAAAAAAAAAAAAAAAAAAAAAAAAAAAAAAAAAAAAAAAAAAAAAAAAAAAAAAAAAAAAAAAAAAAAAAAAAAAAAAAAAAAAAAAAAAAAAAAAAAAAAAAAAAAAAAAAAAAAAAAAAAAAAAAAAAAAAAAAAAAAAAAAAAAAAAAAAAAAAAAAAAAAAAAAAAAAAAAAAAAAAAAAAAAAAAAAAAAAAAAAAAAAAAAAAAAAAAAAAAAAAAAAAAAAAAAAAAAAAAAAAAAAAAAAAAAAAAAAAAAAAAAAAAAAAAAAAAAAAAAAAAAAAAAAAAAAAAAAAAAAAAAAAAAAAAAAAAAAAAAAAAAAAAAAAAAAAAAAAAAAAAAAAAAAAAAAAAAAAAAAAAAAAAAAAAAAAAAAAAAAAAAAAAAAAAAAAAAAAAAAAAAAAAAAAAAAAAAAAAAAAAAAAAAAAAAAAAAAAAAAAAAAAAAAAAAAAAAAAAAAAAAAAAAAAAAAAAAAAAAAAAAAAAAAAAAAAAAAAAAAAAAAAAAAAAAAAAAAAAAAAAAAAAAAAAAAAAAAAAAAAAAAAAAAAAAAAAAAAAAAAAAAAAAAAAAAAAAAAAAAAAAAAAAAAAAAAAAAAAAAAAAAAAAAAAAAAAAAAAAAAAAAAAAAAAAAAAAAAAAAAAAAAAAAAAAAAAAAAAAAAAAAAAAAAAAAAAAAAAAAAAAAAAAAAAAAAAAAAAAAAAAAAAAAAAAAAAAAAAAAAAAAAAAAAAAAAAAAAAAAAAAAAAAAAAAAAAAAAAAAAAAAAAAAAAAAAAAAAAAAAAAAAAAAAAAAAAAAAAAAAAAAAAAAAAAAAAAAAAAAAAAAAAAAAAAAAAAAAAAAAAAAAAAAAAAAAAAAAAAAAAAAAAAAAAAAAAAAAAAAAAAAAAAAAAAAAAAAAAAAAAAAAAAAAAAAAAAAAAAAAAAAAAAAAAAAAAAAAAAAAAAAAAAAAAAAAAAAAAAAAAAAAAAAAAAAAAAAAAAAAAAAAAAAAAAAAAAAAAAAAAAAAAAAAAAAAAAAAAAAAAAAAAAAAAAAAAAAAAAAAAAAAAAAAAAAAAAAAAAAAAAAAAAAAAAAAAAAAAAAAAAAAAAAAAAAAAAAAAAAAAAAAAAAAAAAAAAAAAAAAAAAAAAAAAAAAAAAAAAAAAAAAAAAAAAAAAAAAAAAAAAAAAAAAAAAAAAAAAAAAAAAAAAAAAAAAAAAAAAAAAAAAAAAAAAAAAAAAAAAAAAAAAAAAAAAAAAAAAAAAAAAAAAAAAAAAAAAAAAAAAAAAAAAAAAAAAAAAAAAAAAAAAAAAAAAAAAAAAAAAAAAAAAAAAAAAAAAAAAAAAAAAAAAAAAAAAAAAAAAAAAAAAAAAAAAAAAAAAAAAAAAAAAAAAAAAAAAAAAAAAAAAAAAAAAAAAAAAAAAAAAAAAAAAAAAAAAAAAAAAAAAAAAAAAAAAAAAAAAAAAAAAAAAAAAAAAAAAAAAAAAAAAAAAAAAAAAAAAAAAAAAAAAAAAAAAAAAAAAAAAAAAAAAAAAAAAAAAAAAAAAAAAAAAAAAAAAAAAAAAAAAAAAAAAAAAAAAAAAAAAAAAAAAAAAAAAAAAAAAAAAAAAAAAAAAAAAAAAAAAAAAAAAAAAAAAAAAAAAAAAAAAAAAAAAAAAAAAAAAAAAAAAAAAAAAAAAAAAAAAAAAAAAAAAAAAAAAAAAAAAAAAAAAAAAAAAAAAAAAAAAAAAAAAAAAAAAAAAAAAAAAAAAAAAAAAAAAAAAAAAAAAAAAAAAAAAAAAAAAAAAAAAAAAAAAAAAAAAAAAAAAAAAAAAAAAAAAAAAAAAAAAAAAAAAAAAAAAAAAAAAAAAAAAAAAAAAAAAAAAAAAAAAAAAAAAAAAAAAAAAAAAAAAAAAAAAAAAAAAAAAAAAAAAAAAAAAAAAAAAAAAAAAAAAAAAAAAAAAAAAAAAAAAAAAAAAAAAAAAAAAAAAAAAAAAAAAAAAAAAAAAAAAAAAAAAAAAAAAAAAAAAAADgXA2P+wAByUYJkQAAAABJRU5ErkJggg==;" vertex="1" parent="1">
          <mxGeometry y="40" width="1910" height="924.44" as="geometry" />
        </mxCell>
        <mxCell id="MtvdU-WDkwJUPXnvFVWg-3" value="告警，故障预防" style="swimlane;shadow=0;fillColor=#FFFFCC;" vertex="1" parent="1">
          <mxGeometry x="180" y="150" width="280" height="430" as="geometry" />
        </mxCell>
        <mxCell id="MtvdU-WDkwJUPXnvFVWg-12" value="" style="rounded=0;whiteSpace=wrap;html=1;strokeColor=#99FF99;shadow=0;fillColor=#CCFFE6;" vertex="1" parent="MtvdU-WDkwJUPXnvFVWg-3">
          <mxGeometry x="20" y="34" width="250" height="216" as="geometry" />
        </mxCell>
        <mxCell id="MtvdU-WDkwJUPXnvFVWg-8" value="POD" style="sketch=0;html=1;dashed=0;whitespace=wrap;fillColor=#2875E2;strokeColor=#ffffff;points=[[0.005,0.63,0],[0.1,0.2,0],[0.9,0.2,0],[0.5,0,0],[0.995,0.63,0],[0.72,0.99,0],[0.5,1,0],[0.28,0.99,0]];verticalLabelPosition=bottom;align=center;verticalAlign=top;shape=mxgraph.kubernetes.icon;prIcon=pod" vertex="1" parent="MtvdU-WDkwJUPXnvFVWg-3">
          <mxGeometry x="40" y="50" width="50" height="48" as="geometry" />
        </mxCell>
        <mxCell id="MtvdU-WDkwJUPXnvFVWg-9" value="SVC" style="sketch=0;html=1;dashed=0;whitespace=wrap;fillColor=#2875E2;strokeColor=#ffffff;points=[[0.005,0.63,0],[0.1,0.2,0],[0.9,0.2,0],[0.5,0,0],[0.995,0.63,0],[0.72,0.99,0],[0.5,1,0],[0.28,0.99,0]];verticalLabelPosition=bottom;align=center;verticalAlign=top;shape=mxgraph.kubernetes.icon;prIcon=svc" vertex="1" parent="MtvdU-WDkwJUPXnvFVWg-3">
          <mxGeometry x="120" y="50" width="50" height="48" as="geometry" />
        </mxCell>
        <mxCell id="MtvdU-WDkwJUPXnvFVWg-10" value="ING" style="sketch=0;html=1;dashed=0;whitespace=wrap;fillColor=#2875E2;strokeColor=#ffffff;points=[[0.005,0.63,0],[0.1,0.2,0],[0.9,0.2,0],[0.5,0,0],[0.995,0.63,0],[0.72,0.99,0],[0.5,1,0],[0.28,0.99,0]];verticalLabelPosition=bottom;align=center;verticalAlign=top;shape=mxgraph.kubernetes.icon;prIcon=ing" vertex="1" parent="MtvdU-WDkwJUPXnvFVWg-3">
          <mxGeometry x="200" y="50" width="50" height="48" as="geometry" />
        </mxCell>
        <mxCell id="MtvdU-WDkwJUPXnvFVWg-13" value="" style="outlineConnect=0;dashed=0;verticalLabelPosition=bottom;verticalAlign=top;align=center;html=1;shape=mxgraph.aws3.cloud_2;fillColor=#F58534;gradientColor=none;" vertex="1" parent="MtvdU-WDkwJUPXnvFVWg-3">
          <mxGeometry x="40" y="130" width="50" height="50" as="geometry" />
        </mxCell>
        <mxCell id="MtvdU-WDkwJUPXnvFVWg-16" value="DBS" style="strokeWidth=2;html=1;shape=mxgraph.flowchart.database;whiteSpace=wrap;" vertex="1" parent="MtvdU-WDkwJUPXnvFVWg-3">
          <mxGeometry x="40" y="202.97" width="50" height="42" as="geometry" />
        </mxCell>
        <mxCell id="MtvdU-WDkwJUPXnvFVWg-17" value="APPs" style="sketch=0;aspect=fixed;pointerEvents=1;shadow=0;dashed=0;html=1;strokeColor=none;labelPosition=center;verticalLabelPosition=bottom;verticalAlign=top;align=center;fillColor=#00188D;shape=mxgraph.mscae.enterprise.monitor_running_apps" vertex="1" parent="MtvdU-WDkwJUPXnvFVWg-3">
          <mxGeometry x="205.77" y="202.97" width="34.65" height="27.03" as="geometry" />
        </mxCell>
        <mxCell id="MtvdU-WDkwJUPXnvFVWg-20" value="Log" style="html=1;whiteSpace=wrap;strokeColor=none;fillColor=#0079D6;labelPosition=center;verticalLabelPosition=middle;verticalAlign=top;align=center;fontSize=12;outlineConnect=0;spacingTop=-6;fontColor=#FFFFFF;sketch=0;shape=mxgraph.sitemap.log;" vertex="1" parent="MtvdU-WDkwJUPXnvFVWg-3">
          <mxGeometry x="125" y="204.97" width="45" height="40" as="geometry" />
        </mxCell>
        <mxCell id="MtvdU-WDkwJUPXnvFVWg-21" value="" style="shape=image;verticalLabelPosition=bottom;labelBackgroundColor=default;verticalAlign=top;aspect=fixed;imageAspect=0;image=data:image/png,iVBORw0KGgoAAAANSUhEUgAAAcwAAADYCAYAAABm69O/AAAgAElEQVR4Aey9Z3RUd7bmfde7Zt7pOze4231tY3JGIhvnxjagXEkBpao651RUlqqUyTYG5UCWABFFjiYjkjG2sY0TJigDJkdjFIju7rnzzNr/U0cqhCQjEEKG+rDXqSoFuvngH8/ez372v1hkGWAlz4RF0XRZlVmgilVl2yoHVu8cWLyzn3z55MDSworxzUFLy+Kbfd+fI/58LqJ9chHlk4sI72yEqbIQpsxCqCIb4Uoq8b34WSZCFZkIkWfAJE+/r4zydBgU6aBnw6/93nuzLB0tKfp9BnkaDLY/k/25ygwYmymTMgMmVWaj1dzPGZQZeKBUGTCqMh8s70zoVRkweGeK5ZMFo1S+2fe9NvhkQe+dAZ0yHTolPTMfqwRlBnhVel1x3ungfdIh+EqVAcE3sw2K/hzxz+R9M8D5Zt5XWr8saP2ywY3OYcX750I7Oqfx8s8B55/71EobOB3aoJlPvDRBM6ANngmtZhY47WwIXB4EPh+CkA++QXFCPqgafv777/PAC1Tizwq6ueCpDHPB6fKhpdLPZcUZ5uHRin5fPiuOfq/97zHOB2cquK+0pgXQmBZCbSyAxiSW1rwAVFzIQlbS+4ZPtbkAmpAFdaUNXQj74sIWQ4hYwkoXuRQNS4haCj5qKbjopdDHroA+diX08atgSFwNfeJq6BJWsSe9blElrYU+ad2DlbwehiZKl7wO+jHroaMauwG6cRugH7eRFb0WqMbXFz9+I/gJm5otYcImCBM3s9JN2gJh0mbwTZTw4RZI9S8OYNaDtSlgRqpyEKHKRrgqm8HSAcx6+D4ASwKoA5jNgNcBzJZCVhM4HQRNjXomAybPzYHA5zmAGbKQwbMhLOl9awKTjymEzroCBgbMNfXATGghLAmuDmA++wozQpl1n5IMU2YjzKEwmWJ1ALOlqtQBzJYCUx04HWobMEll8to5TGXyfL0ilJShQ2GKCrQ1gclFF0KwLIcubiX0EiSlp0NhNt6WfZ5bsuGKTIQpMhGqFIsBU5mDCEdL9sF2rENhNqMuCa4OYLYYmAHTwaAZPANatQhMnsuDA5htozCFmGXgLcsgWJdDiFvJ2rGGpDUwJIpq09GSbWSW6QCmOJ+kGaUDmI6W7KPPOx3AfBxgsrasZjaoLesAZhsB0yICk4spBB+7HLr4VTAmrwVBs0WwfF5ashIsH3iq2qAdS6aiFhp+6PtbaviJYYafrLo/K5rMPfJ0mL1S0GhLVpnzgOmHZptsvqnMglmRwUoy9JDZRy9Pa7emn+aMPc19rbVasibfbFCRCYhMQXrvTOhUZPhxmH6ed9MPA2zwTGjUs1hpNbNBxRE0Gxh8HC3ZBdA2YvbhwhaBig9fLFYzhh8yANmbfgRSlwRN63IGTD5uBaioPcuUZkvU5h9whslN3FRnCHoo088DoLQ5Zq3PFDBzQKafGO8sECwjFRkIV6QzaDqAWa8oG8KzNYFptAFThKXkkHUA0wHMmdAwYIrQpDmmA5jNuGSfMDC52OX3A7MlrVkHMNtAZbaBwrT4isCMVmUigmApTxdLmeFQmM2so7QWMCVYGnwkdZkBQZkOQeEA5vMOTOaQJWA2gKZDYTbRkm1lYPI0w7TNMTnrchAwqag1y0xALTEAOYD5bACTtXC9MxGpzEC4LE0sgqYDmM3ub7Y6MG27mtSKFZRpEBRpjj3M530PM3AGc8mqg2dAbdeadQCzrYBZCFot4SzLwFltFSsagIT4lfXgtDlmm51tOoD5bAAz2icbUaoM1oqNkKeDirVkFekOhdkWCvO+2aWoLnlFGnh5qgOYzz0waa1kOoKDCJgSNGc6ZphN7WG2ssKk8AIy/FBpLcugtYoltWYZNG1BBtJMs0kzkAOYzwYwo7ypFZvGgBmpzBRnmPJ0hMrSHMBsS2CqMpjZh9qxvCLVAUxH0g/UtrUSe2CS0nQozLZRmAyY0YXQMmAW3g/MWNEAxNqzifUmoGcfmLIMxFBMnpwqUyzbegmZfiyNVWuafuh3SeWdzWL3KHqPxe+18gwzyjsbVDF+ubD4TQOpS2q9hjGjD5l9MlnR+1D6zOZ+lVyw4lNM/Wn8a1ksQi9UmYUQRSbM8gyYHyEST3LYPsrzkaLxlJkwNVs28w9F/CnSG9/BfMQ9TIrC0xEsmSuW2rH19WjReFnQKetLUGaCV1E8nlhiNB6teEjV0gCCx/l+8c/k62LxssD7ZoGnSDy/HHB+ufU12hGNx2aYFFwgVfBMsTVri8pjKyYN3LIN3bO//74tovHmsag9FrdnH4tHr43zwJkoHq++tLY4PLVpfouj8cgpS8WFLhSrEZcsT05ZmyOWnvbxePYuWQmYosKsB6a90iSVae+abQkwKfpOl7yexd9RBF5dDJ4Uh2f/2dj1EMbWR+S1RTQeReYJLD5vC+pdsgRMr3QxV1aWAausHpoSMGNUWbAvBrjWypJVZbPfLf1OBkufHFgfAZbNrZUQHMXKYcCk2WWEioIJCI71u5b2r+8HZX12bHOfU4xeuIoyZ8VsWcqXpTzYR4FfS39GWmFprSzZuoxZm9KkbFpWjeXIPg4wbbCUoFn/fJQs2SzoFNl1JSizwKsImiI4Oe8M8D4ZEHweB3yP97P3AzMbfB0sp4Hzs5UDmA9k1ZL5R5xlivmyLPlHyIege5QMWeln2gqYBM1GsmgbBeZ8aMzz8UjAtM+cDV0IvjFgRi5hebEER6oWA9OyDBpLIcgIJAUaEChbOsNsCEzKjCUoSkXv6yBq/7ktV/bpZMk+R8CM8c1lsCSVKSrLdAcwmwlfdwDz8cDYVMiBA5iPFtzuAObvh69L+bIspP0JAlNSmbSXKbVlm1SXTQQXOID5KKqzDRWmxU8EZoQyEyGyVDanfN4VZsP9Svv3DmA6gNnYVZS2ulbSMBnIAcx2Akyb+YegyceuEFVm/KrmL5k0YvpxALOdAzPaJwdR3lnMBcuAKU977hWmUZHB5pI0m2xYDmA6gOkAZmuc9xLbsc9MS9YOmHWO2biVYPPMpkLZHcBsJZdsGypMmlmGytNYhSmk9ZHne4ZJwKybTUozStvTAUwHMB3AdACzKdMPKUz7QAMWm/c8ALPuNqYsE1Y7p2yd6UdZb/qxd7S2yhFpySFrc95KDtlHcsnS8Whqu/rmINpWYrZsLlOWYfI0hHilMmBSW5bmmOSGtTf62L9uztzT1NfY7Ux2bDoTIYoMdlS6rZyyLTH9sMPR0tpII+qS1GZDYEoK9IHQAjoObauHPSBN7ti6dB+H6cfmjnWYfhq2Ye3fN2zJ0lHp+iD2B09+/b5Dlow/DU0/+eDJRKRvzQPSbasw6+aXoYvAhy0GHY22z5LlH9f0Y68w7RKAWAoQ7WU2lgD0B1SYjbpkyRVLkLQvtl5iWy2JUWQixgZMiyoLrQLJh23dttQp65sL6+hpIHMPCyQgZ6wNogTLUGluyVqxT05hSjCV4EvgbKnj9VG+vzlgSiqSQc/e6KPMbDbRx36mKb02KNOhV6RDrxRXTBqFpCoTdZ97Z7JgdQpXp5B1KWi93g0rha03fDpcso3G4/nnoDHl11afPe0ZpuSUpVB2rXY2OH4OuEZuZD4cMCW3bP2TBbnr8sHp8qGl0s9lxTXmcn3Iz6gd21YtWQImH7oIQthiCFLouvSMWILWBKZk/rF/knPWHpo6gugfEJiNhq8/W8CkayWkMMViKpOSfLyzxVasA5jinNIBTMdaiX/uI0PXAcxG1kN+B5zPCzCpRUutWWk/k8DpAObDKsTH/b4WKswYnxymLAmYkiNWWiGh5B6HwrQZexzAdADTAcwHToRJitShMJdCDC2gpxSN92Bwgb2qlF5LM00JmgRLBzAfF4QP+/OPAMwoqQ3L2rI5oFllfTvWtkriaMnazScdLdmm9iWf1OeOPczH28N0tGSbiMazCy14Wi1ZMaRdvGoi7WjqaKbpaMm2kku2OXi2EJhS0g+bX3pnibBUpNu1Yx3AdMwwHUk/jzvrdLRkHS1ZSVE2fJLxR/qMXtetmjwzwGxg+GEuWZvhx0KGH5vph2XKqrLAjkfbHK1P3ADUUmDaWrGkMlmSDzP6pLFj0GI79tkHZlNZsg+afjJgUmWA3LKSmedhn0/a9CPmyT6K4SfzvhxZypRtMhrP98msjDyMKm1MYfL2ObK212T40TRSWv8caCmcvZF6XBg+zM+3GTCDZ0JrV5JL9gGFyT0t08981BuB5tryYiVHrPieM8yF1ih91ghon0A03qOafqR8WT5qKTipWtqStQGzLjqPsmZtST8UVKBPWl9fLEt2LfRj1kHHaj10YzbYqj5jliLydE8hGq9R0w8Fr0fL0hEjz2Bl75CltRJpteS+EPZ2BkwruWMJlr65IFhGqkhdUqh6Q3XZODDDFJQpe3+Rw1Vyu9IzlPJhbRXG1kYeLltW+h1mRRbMimyY5FliybJg8spkZZZR3mxLK51l1FJOrVQmeRoM8lQwaNp2KY3MBWvfdk2HUZkGozIVRmWK7fWjQDPjwRB2VUa9M9beJcte09do/UR01+oUaRDkqba7l9KxaIIknfiSigD4eEW/i1el15UYvp5uF75OgehPHp68bwbsi7MFsPN+Yvg65cnaF4Wxa/ybqIAcaANyG62HAd7jfk+bAJNyY+msFwWv245Ia9WzQM5YjVrMlBXBOQtaDdVs5piV5pAP/2y4VjIXvM4GuyZcsrx+PgT9AvD6JeD1CxkoBcMcCIY8CPoC6PTzoNfnQWeYDa1xLoJMi6A1FIA3EGAblJFC1wvuq0cNXydQMmcsuWOlktyx0rOBS5bgaF9S+HrdZ9G2m5h05stunURSkQ/71CSuhDZpHfSJW2FK2gZz4maYKH82eTl045ZBGLeaZcjqkzfBlPQJzIkbYLAFs7drYMbQHqbdtRIJmvc92xkwqRXLyjcXkd5ZiFRl1gFTnF9Khp8HgRnOLpWIV0rqr5WIYewS7FoHmBkw03oJ7TdKF0y8JNjZwzITZllzZfteeTq7hEI7nlLR770fmATCTBgVWWLdt0IigZOeTx6YTM2q0mFQpbF1FAZMWUNginBkF0aUmaDnkwMmQVMCZ9sAk/NLByvfDNQDMxNNQZOAqW6kNAE50ATkPlAMoo9h5nlYkLYpMG13MCU4tgtg0oqIvgCcfik4/WIGQp5gacgDr18AgYBK742zoDXmQ21cCK5JYN4PS4JnWwNTMvhIkJRC2Rk8WwuYCcuhTVwDXeIWGBO3wZS4BQZq045ZCWHccghj1zBlaUjaBHPSRoQkrncAs8UtXAmEv/Mkd6xY2WxuSeqyLlzdluzTVEu2zYCpnAqz8mOYqBRUU2CSTYFZlgKzPNWmEgmG9bA0yTNxfzW/z/ngHqYdLBXZMCpyGqksBzDbSGE6gNkCs4+kMNshMAmCVBrDYlZawwJwRmq9zoXGuIBdGQk25UNjmgXOOEcEqH5+Ewrz+QAmF1cIPn4FhIT1EBI3QUjeDG7MRnBj14MfRy3ZDdAnb4QxaSOMyetgTF7DWrVP81rJQ7Vk/2gKM4buW3pnI1qVjSiVmBMbLsXekRvWVk8fmGkwK1NgUthKngqjLBUmWRpM8gyYZJkwUZtWlm2rLBAApXSduid91lRRmAC1ZBVptrJXj/bwJHDm2irbAcx2Ckw2w2ykLctmmM9LS7YdApMzzgJnmsnarJyBWrILWFuWoKkxFiDIPB+B5nlQm/LAG/JhFOZD97wDM3Yp+LhCFtQuxK+FkLQB/JgNEMZuhH4MQXIjTEkbYEpaD8OYtdAxxbnuqZ73emaAyeaVNtUpwjILUcpMRNpWSCRI2j+fNjAp7YdasnRUmgFSngGjLB1GGb0nJUmwzIJRli2WnNqoaTAqUu2K3jcCUemwcx0wCZpi1c8raW5pAyhr0Upq0wHMtpphtlRhNpryM5oMP89B0k87VpgES840TTT56AvY3FIwiHNPrXE+gk0ETLpnOQ+Cfh7MfAH0uqZmmM+JwrQuBS9V3HIICashsHuXn8DIZpbUhiVgEiTXgh+3Fk/7HuazBUwy+VAr1ltUlpGKDERQLiwFFNgpSwmaTx2Y8myEyHMRIsupV5BemTCSsrS1Xo3yTBgJpNIFETmpz1S7ovd2M9AGr+taskxhEjBTYFRRTbUVmXzI7EPgtCnO++aaDz/LfCBPtrkD0qpM0ZHrmGG2aIbpAOYMqNulwpwJ3jQdOn0+U47izHIuBEM+AyQZfNTUmjXSPHMBTPwC6J5zYGothdBaloKPWQzBuhT6hBUwUOuV1GXSRpiTNsCctB6mZHLKrgc/Vny2u5YsBa+LDtlM2LdjReOP6JIVDT/ZsCqzEavKFldLmtufbK2vNTG7rHPFUrKPSlSXEfJ0hMvTRWDK6lux7QeY9cYekyxdNP/YVCcpSYMsFTqvqRBkU6GXp8CgpM9SxLYtgZOZhUR1alaIipTUqVi2dq48CzpPasdmwKzKYuEEBEi9fIrNESs5YyVoPjwg7Y1BBEs9AVIq5n61y459wCFLLt009v9JT/97FGkg049OntbAJfscmn587Uw/vtngbcX5ZaM5YIqrJaLafJjXD2voeZjv0wZOg4bcq7aqC0inFZCgVqrfUZjklBVrFsg9KzplZzWSK5v3OzmzLXfJqsn5apwLTpgLcsxyxgJojPOg1hFAyRBETliCZgF7krok92zjLtmmFabGXADpILT0ZMHqIQtBz4af1YUVSA7Zh8iSJaNPm5h+rMugthZCYy2ENnY5uPhV4BPXQUjaCN2YTdCN+QS6MfSa1krqYdn+gGnnipXcsfZPyR1LoBQrB+ySSGtBsbnf0wwwaYVEaseSugyXpbGSANnw+bQVZpgqA+He6QhTpcNMbVbZVBjlU2GgUkyF2TsdIb4ZMHqngZdNgcb9Q5iU6TArMxCiyoRZmQkGSkUmdB5p4N1S2dPgSbDMgVmRixDVdIT6zIBBng3BMx16L9q1zEKIT5Zt35KUJcFSKrs2bQucsi3ew1RlQq8gcKdAp6BKZbAkYDJwsmsl9XuXz5NLVnLLcr5Z4Hyz76smgUlt2ZZWK7pnNQHToAmcDk2gCE0JklybAVNaL2nw1MyCxhbGLl4hEa+RiMHsTV0zaTkwg81LEGgqBKebL141ofZrCJl9SFHSWgmtnVBLdj40RtHsQxBtKTAlIDZ8StCUPqf3jcKyHQFTHbsMwXHLERS3EsHxaxActxaauHXgEtdDGPsJuHGfQDuOTEA001wPA2vNiruY7WqtxH7v0h6U0uv2CEypFVunLv8AwAxRpCHcm6BJ4EuFwYuASfPJNOhkKdDL06BXiHuItItIJYItBQbFFOi8Pobg+TE4j48geE5hu5YmZSaoDPIM8B6p4N3p92VD55kJgUBKEPWeDrOKDD40s6R5pbSTSfB0AFPwbbs9zMZmmM0Bkxudg5ZUsxB1ALOJ7NiWA1NrLgRvXoZw3SyE8tkw6LKhDSmANrwQGsMitnJC7Vm1SSxyzxIsn2tgxi1FYHwhRiesQUDCOgZMg3UFQuIKEZ60DIYxq9jcUjuOQgrIJUsrJw5gtuw8WBMKU1KWZPShuSVrx1IbVpZa54ptbwoznMIUvHNYGILBMwWCx8cw0n1OOnlF7UraT1SlQqeaCkFJ9TF0qvEQlMng5InQeiVC45kIjVcSeMU46JWTYPD+CEafj2HymQKTz1QYvVMgeH3MZpQh3tkwKXNglEuO2Gn1rlgy/TAgEzSpWtaadSjMlu9tUmjBkwYmwbVJaDqA2WrANOnmIJbPQYpmPKYEJyA5OAkhuhzw5oVQG5bYdi7zoDbPYaUx5bNEoOcZmNrYJQiKK4Rfwlqo41bDZFmC5Ijp+Cg8HSmRqUi2zkRkwkLoxqyGbizB0gHMlsGSWrVNAJPWRySTjwRLasm2Z2BGeE9HBLVMFWT6ybDBMgNmHwLlFAiqDxHslQyfkVFwfcuA94cG4b2hCgwf4oF3B7njnYFUnvjbYBmGD1Hi/aHeGDFsNNzf0UA10oRAz0hwingYVRMR7p+KcH8yD6VBL6OW7gyYFNNhlE+vhyZTmg5gPksK0wHMtmnJJmqnYkaQFRsDNNgQEIQFAQLGaz9EiH4ONIYlbN1EayRgzmbApJ1N8bxXg5QfSv2hOWcTST9Sy7Xh84/YkuWsS6GJXQb/+LUwWJcgMXwa5ujisUJrwnqNDnnGJHwYlY2wxELox64BR0rToTBbGNjeBDBpfUSaWYqgTEOYV2q7BqaZHLGeZPxJR6gqDWbVFPCyMfAbEQbXNwLx7kAPDOn9Dvr3GIr+PYZgYO8hcOrphD7d+qBn5x7o3rEHenTsiV6d+6BXp77o1akfenZyQu/OA9C362A4dR+KQT3fhtsb/vD9wARelgATKVDlVOhltI5Cayr2bVmCJc0yqS3rUJhPerXEoTBbaAZq1vTTYHYpRea10QwzW5OAIl8ViuWvo1j5Fr7w8cCc4FjEc7nQ6RYxhcmAaZrDAg7EKL3ntyVLkXqCZTk4y0oEx65BTGQesgxjUeTvix+V76FM9jaKAoKQbxyLuNgCtocZPGEzhLEb2t8eZlvNMCm0nQW3N2fyafi1poBpP7MkUNqKjD0NW7HS+9Y1/WQjTElFebKUOStWOHtPn1Prlcr2fZQ965OFUO80mL0nw6AahwDXcLw3SIYB3d5An47O6N2pN3p16o5enbugd+dO6N3lVXR55QV0eunf0eGv/4qXXvhfeOmFP+GlF/4VnV76C7q/+gp6duoofn+XbujduSt6d+qJnq84oVeHQXit9/uQv8dBp0pCyOgpMNF6iTKdzTxFQKbBqBLNP2Quur8kgFK7WCrps3Q4WrKP2pKltizF4tVH490/wyTjj121cIb5sAqThbZLwQeP0KoVTT8PumSfiOmn0SzZpoGpJdMPNwd1ph9ecsk2bvrhhDnghNnQc3Oh4+dBa8hnRh5yu2r0+azoMw3F4RnmwaCfhcJAM457vYnzo7rgvEsPlHm8jnV+HCYHfwReRy3ZheCYwhSj8XQ6MS6v8ZZsY1myC6AxLahzwT5phSlF4tHzSWTJMmDGrAAfsxKa2NUYH5qOpRoTvlOOwDm3/rgxqhuOy9/FBrUJY2IWMGAGTtxUB0zJKSvYAth14zaASqAavwF8XW0EP2FTsyVM2ARh4mZWuklbIEzaDL6Jenp7mDZYNnXphGaS9kXnuaisPjmI9cllRe1ZmlmGy9Lr1KUEw4d5tiYww1W5CFfmItw7GxGqTITKKaM2FRHKbIR4ZiNMNg0RihmI9J6BCJ9pMCvTISjGIdAzCqPeGo3X+7+PPl2d0K1jF/Tt0QO9unZGL4Jkp87o27kL3h4wEH5uLhhvEbB0zmTs3bQAB3etwjd71+Hz7SuwadkcLJqRionWEAR4fgCXNwfhnf694dytC7p07oEunbuje9ee6N6pJ4Y5vwP3d0dD4xULg+IjhPpkwyCnRKB0mH0yYVCmwswqhSUR0WuCJ4GSZqBiiWYhMUGITEhkUBJD1Gm1xGi3RtLYe3LCUgLR03TJCt4ZoOJ9qNLB+6TZivJkWw7Alv5M/YWSzLoc2XpYNvZZVosMP02Zg6SZpsYvG1T0noW627JoKX/2YVZJ7L+nTbJkg2bWr61IF0skJdngqdbMAhXlzEorJpx2NnguDwJPRW7ZB4sORWt1s6DVT0NY8AKY1YswOiQfWv1cGIT50FBijyEPWtNcqE1LQN8fK2Rgp08QLo0agNPufXHa1RmnRw3FF0p3zAmOga9uBbSGZTDo8hBkyoHaNBu8biF4WjcxzLW7bmK7XNJo+DoBcyFbS9GYCkAlQdO+HWvvjtWFLwFVXei6tFoiha5Lzwbh6wRIXaRYrXGtpLEwdlFhLoNgXY7g+JXINCVjR4AK3yo9cNJjKK67dMAVty444KdEUuQK6JJXI3DSCvA0xyS3rH0IuwRK25NgydmKH/+MAFNSl9KzYaasPSyZoccOmARNWmOhz+3XR1grtpGAgqbg2arA9M5GqDILIRTBp8pEJF1IIXgqcxCunIYoH5pVUtA6KbuPoPFIwAdDVRjY4010f6UvOr/UBd1e7YxeXbugd7fO6NWlA7q+/GcMc+qBsTEhOLB1LX7+6UvUnPsR/7hejHtXj+HmhcO4d+U4frtagtsXj+PelXLcvVSG6yd+xInvPsWetYswK2UCOH9fDO7XC11eeRFdO7yEPp17oH+3wXjTyQ0B7hYYfKZAR1dKvDNg8slk0DQr0mBioCRY2gNTNA6ZlA2BSbuUDmC2BJotB2YmuNHZjw3NPzQwG6yt1F8rsVOYNlhKwOTUs8BpZuGhgKnLh0Y3Gxr9TISoF8CkWQh/cz44fT4MwjwGymBDHjjasTQtgomfgY8143BAqcLVUc4449YPZ12dcXbUIHwvew9LA83Q6BaDMyyGTj8HwaZcaIyzwLM9THLKkvmnATTbETAJnJLClHYzuRae92oMmOJnheBjl7HKF6z4WuWGEs/3cdp9CC66dcUlty74xscVaeYZCI9fgqAJKyHYgHnf1RIJmOPr1aUETO55ByaB1UptWsqJJUcshRPY9i2fLjCzGChpVcQkS0WIPIMBNFRBEM2AxmUcIvxTYPYbh5Gv+WFor/fQr/MA9OjQHa85DYY1LAIafz90e/Ul9O7SAU7dOyDaGIwjB3fi19M/4dqJb4DaStw69y3+fvlH/HbpMH679CP+cfkI7p7/0VY/oebUd6z+fuk4/nGpBLWnf8L5Y1/ji22rkT7Ogjf7d8dL//Yn9OrYDQN6vAbnrn+D2zt6GP2nQlBNhdpzMju5ZSK4P+CaJYVJwKQiV22mLZ/WoTBbAkrpex3AbOEMkxRmmwAzD2pdHgzaAui5AgSa8kRg6uZCMOaBYxdI5kFtmI9oPgP5gRE4JHfDlVHOuODqhPMuTjjn0h9HPd/CutEcwknR6uay0HUNy5udDUE3D2J03vMLzOC4ZaAA9guozz4AACAASURBVNDoRVimjkCJ53u44DIUF9wG4GfPfjjr0RM/qN7DQj4JCTFzEDx2DQR2P3Pd/VdLHMC8vx1rrzCZElVlIVpRD0uaV0rQbEpNNvZ5ayrMUGUGonxoTSQTBo+pMHrSjmU2wnwyoJdNQqyQDo93gtGv41D07z4Er/75Vbw56DXk5UzDkUPf4FTJUaR/NAYdX/wT3h3aB5tXzsc/q8+g9vwR3Dz3PXCzHL9W7sd/X/kB/7zwLe6ePoi7p7/CP85/i7+fO4RbJ7/A7VNf4rezh3DvzDfsfVXZftwo2Q9cOgJcOY7/c6UYJ77fjWkfJ2Jgz0549S8vok9XZ/TqNAyyEUbo/T9CgMc4GH1ICdMlEyoRjGxuSWlCBEtKDLLtbootWTHc3aEwW9bGdQCznQJTIJU5D5wwD5xuLjQESF0+DLp86A0zoae4O6EAGn0exvAfYbNPAI55DccVV2cGzUsuTjjv2g+V7kOwx8cXE7Wp0AvTEGTOA8fgOweCLp/F5j3PCjMwbgV01qVIDJuNTf56nHF9HdUf9MJVl76o9ByMs+79UCZ7E7tHB2ByWBqCktZCR63YJAcwH1gvaaolS8CMUWYhUp5eZ+xpD8A0y9PY7DLSJwv0Osw7E+F+aTB6T0KAWxSG9h6Bvl2GoG9XJ8jdvLBs8SKcLC7DiWPFWLlwPjw/eAuDer+MtIlROF/+FW5fKUb1me9x79IR3LvwA26d/gp/v3AId05+jluV+3Gr8lNWNWV7UFWyCzeKi9iztnw3qkqKcP3Ydva8XbEXNce2o7Z4F2rL9+Pmz1/javmX+GLHcvD+HujV6RX07krmosF4a6ASoZqpCAmgTFkbMFnrldqvBE6K1hPj9UT1mQEDO0pN0XvpjpZsC+eeDmC2T2BqhbnQCgVQ6/OgNswGryeFSBF3c2HQz4TRMA8CvxBaYQamaJPxjdwNlZ7DcNHNGddGDcAVAqZbH9aa/UbhjhnqZIRqU+AfkgfBVMDgK+ifd2BSws9qhMYsQpphCvb4BuCCy2Dc/KALfnHpjRMew3DBZSDOug3BEfn7yDaOhTphJXQOhdm4U7Y5YEbTFRLasfRMQShVO1CYYYpMRKqyWVs2zDsNEf5p0HrF44Ohfujb+Q306ToQPnJfLJw3H999cxA/fPc1Vi1ahihdCAb36oHRHu9hz6aFqL10GLcu/4B7Vw7jn1d/wq2fv8bdnw/h3ulvcf3oXtSWUe3GzfLdqC3bhRvHt+NG8TbUlu9EbdlO1JRtR235DlSXbkNV8RbUlm7FvbJtuFu6A7fKduHX4iJUn9iPX08eQNl3mzEpUYfB/TqjV6ducO4+DCPeDADvPQkGarcqs2yVDYOSigLTbaHpzASUbgOm+HQoTIfClCLxntSzLVqyHD8PHL8AgcZZCDJOh14gRTiXhajrdbNgotNd3GIIXA5yNRZUur+Js+4Dcd69P34ZORhXXfrjvHtPXHbpjeOew7HCPwTRweMxOiQPOtNS8AKtk9BxadrFfF5bssuhtq6DJWI+FmgtOKjywgXX/qgZ2YkB87T7G7g2Ygh+GTEQ59wGIF8XBS5+MfR0E7O9KUxaK3kwdD0TFI0nxeI98FS1bJ9SMvtIT3vTjwRLcsGys12+uYiWLpDI0xEpS0eE3dxSasc+zRmmySsd0T7TESJPQbjfxwh0i8Ab/Uahd6cB6N21L1ImT8Xn+/fjysWL2Lh+PVI+ngqP90eh0wt/RmK4CZU/HkD1+cO4e+Un3Lv8Pe6e/wZ3z36N2orPUVN6ADfLPsfNMnruQ23ZHtSU7kZ1SRGqSwiOOxgsa8t2MGDWlG2DWFtRW0a1GTfLtuFWeRFqSnehurQIN8qKcL1iF84XFyH34yj0794BTt36oG/XoXB5W8OMQHrvFBjISSrPgMYjBSbvHOZ+NalovikGHIgK0y50/b7w9QwYKITddrWEwtn1SlGJtgeXLK9KBxXHnLLp4H3JHUvVVtF4jTlhf+ezlpp+/HKg9c2GltywfqJhiJl+6Kbm6D+gS7alM0wy+9g5ZSmQXTT/2K2Z2LllOV0+eH4uBG4+Ak3TEWTKhUGglqxozBFo3US/ABy3BFFcBhZrInDedTDOuzrhjHt/XBk5BJdtwLzq0huV7m9gu48/PuSS4a+fBp1xCQTDInFV5RGASaslDV2y5JZtLDe2NVyyT870sxza2HUYGzYTWwKC8JP8fZx3HYBrLj1w2bU3zrkOwrURg3FtxCBccHXGCo0OlpjpMMQtAx+/GrpEas+ug572MsdvFFdK2sD0I7C1E1o92YJ/oSslrJoJX38AlErb9ZLWBKZKnGHap/oQMCNVmQyUBMv2BszYwDkwe6UhNigLynd1eLv/SPzlX/+KwU4DsGThfJysLMPRn37EzOnTEWeJg8JDgVdf+E9MjI3AuZJvcftSMW6e/wH/99fj+O3it6g9cQC1FftRU7oPNSX7UFtKoNyH6uJdDJYETSpSmjfLd9WpS1KYYtmgWb4VVRVbUF1O73egtrQIN0tJjW7HrZNFqP15Lyq/24ixURp0/PO/Y3DfQejxymAo3g+Fwe8jBHmMh8EnC0bvbJh9c2Gsa8kSMKklSwlFZP4hRdoIOO0+k2BJSpRC1p/2Wkk9MGmlRILlswdMjW+WA5h2aye/D8x86Li5DJa0BmIQ8sHp5rHQdE6g9uwCCPwijNN8hA2BAgPkBde+OOM+gJlWLroMwAW3nrg2qjdOuw3BQYUrctQx4PhM6Oi4tHExu2RCKyUtVZj2wJTASc/GgPnAOskjrJU8KWDSWonOugpTzGn4ytsFlR5v4KLLQFx07YeLrn2ZeeryqEG4PGowU55bA/wxNeRDhFgXgYtfDSFxDQMmS/6hHUwbLKUdzCflkhU+3AKp2g0w2ZzSbg+TAtUZLCkj1gbL9gZMcsZGj86C4BmPwV3fQa+OveA+8gNs/mQVzp+rwMEvP0VGWgqMgh56rQ6vD3wNk5MjcfXkIaD2BGrPfYffLh/G7TOHUF1xANWln6LGpiZry4pYm5VaraQQb5btxa2Kfaxulu1BdclO1JRSO1YqSWluR3X5dvxauR03yulrRQyYt0p24nbJdtSWbMbNEztRVbkbld9tgylIjk4vvgCnbv0xqOf7GO0RAZ3vROi9U2EenQMdGX1UkunHFlrAjl9TYpADmJL79WGfbTLD9MuBA5jiLibtZFL9HjBpT1PP0fwyF2rjNOiFueAotMA4HxphHlsJIQNQTlAi9vr44bKLE/uP/Fn3ATjrOpQppcuuPXF1VB+ccx2Io55vYmGgEZGaqdCTmci4yHbm6/kGZqhlEaYZxqJENgwXXAfi6shBOO86COfdnHHBrTfOuQ3EGbchOO0+GF96e2GRNgpR0fOZwuQT1kBIWiee/RpbH1jw3APTPiM2XCG2YiVo2rdipdeNuWGb+qw1XbIRvnTPcjxe7z4CvV7qC9fh72PX9k9w5dIp7Nu7HR9OHIfo8HAkWizwGPkBxsdbcO3n7/H360dx6+Ih3Lv0LW6d+RLXju9CdZkIS2q/3izfg9ryIlSXbUd16VbUlBbZlOVe9jUC6I3jO0RolhUxKIrgJGjuQHX5Dtyo2Ikq9jt2obZ0F26VFOF2yQ7cO7EbVaXb8Wv5LlyvPIgfD2yFfMS76PJfL6NHx754e7AbeN9E6Hwng1NMhU5BwMyBiaDJVk7ouLV4d9MBzJbNLwmqDmC2genHriX7sMDk+Tzo+DnQ6qdDY5gBQZgPrX4etMZ50NL+pJCHcH02lo024weZK1NFl1z74rxrf/zsPoQl1Vx16YlLLv3Y6xPu/bHBLxgTgifBwM+Alt3KXMD2L59XhSlYliIpYjoWc+E44TkIl12ccW3kALG9zYDZC2fdKAhCBOZR2fvY6q9FbFSeHTDXsjUTYcz6uoSf5xSYOYihFB+65iHPYEegJehJsGxvCtMgnwD5m2o4dRiED14fjg2rCnH+dBm+/eYzTP5oIixR0YiLtsBfKYOfbCSKv9+L2os/4NaFr3Hv8iHcOnMAVRW7UVu5F7Xle1BTsptVdekuVJUVoYrgV7aDwbGKjDsl1JrdxVqytyqoPbubvafPSEnWq02CLUGYvr4btaW7cbNkF2vL3jmxF7+W7MSt01/it8tH8c/rP+PA1vUYPmwQ+vbqgd5d++OtwV4wBnwErXwyzH7T7YBJp8IcwHxYNdnY9zmA2T6BSdF4vEBpPDPB6WaD0xWwpB86ycXpFkInzIRV/zF2eQfipMsbzBF72bUvaJ3kBK1DuPXH9ZE9WVvxnJsTLrh2xx5vb2QHJsOoSWdZshrj8w1MnWUJUk2TsSlQjdPu5Czuh6ujaB1nIFOYF2mO6TYAZ9zo73MwTrm/ji+8FUiMnFUHTD5xDfikteCS14KniLy2mGG2z5asDZi2QHVaG5HUYHsFZojPeIwc7Iluf+mCqeMm4MLpcqxasQjRUWEY+f4oyNzkGPW3DzC4X3dsXpOPm9cOo/b89/jntaO4eeYgrhRvR82JItw+SeshW5iRh8w51WV7cbPyAO78/BV+O/cNbp/Yj1u0KkLmnRJSm7vYe5plMlgSMEvJ3CMWKcqbJQTJ+qLPCKoE0X9e/Bb/uHQYN058ix/2bsaRz3bj47Gx6NunI7q+2hU9Xh0MP0oD8k2FwTvbBkyKx8uCSZEFk0NhPnKMngOY7ROYWluWLM/ASbF4C6BlaTz5EHQLYeBykGwYh28UMlz+wBln3XviimtvXB3VFxVeA3HW3QnVI3rgvFt/9vqaayd8pZRhnn88zMGTwRlniddInuMZpiFmMfKERHzmo8Jp90F1Kv0cqUtXJ1x26ceiBi+5DGKzTWrZfqt0RXLkDBGY8atBwOQS10CbtOYpA5PMP2T8sS/F/S5ZizIL91ULTT80p2zMIUsJPjGqbLC5pS1QXQpSp2dbADNMkQ6xMhCuyES4PAthCqpshClyEKqg9ZEcmBRpCPFJhdlnMhTD1ej5ci8M6TMQMaGh8HT9AIMH9MVfXvgPdOvcHf16O6NH524Y/uYgnCv/Cr9d/wl3LnyHO+cOoariU9RU7kZtxQ78enwjqsu3MnhWn9qPmjPf4MbPP+L0kS/xddF6fL29EGVfbkBVxWeoqfgUN4p3snZsNZthEgjFtutNBkoy+BBA99iUpQhNUppVZXtxreRTVP/8HTYungbZ8CEY2O0VdHvxPzC0bzf06voSOr3SAf16DMXwYX5iEpCMIvJsKT8q0SVrpEQgOe1sNj3DZGYfmzuWGX7oQHad6ScVOgWV+Bl9zl4r09nBbOlwtqDMAK/KgKDMZLNUmqc+aom/S3TIii7Zp2n6aSp4ndyydqHr0utGwtd5cs6SA7aussD7icX5ZUHLfjYbnC99Tw4rlh/bIEuWMmSlss+JfZjXbZYl+xguWaklW+eU5esPRdOeJYUTkEtWK+SJpcuDVjcXvLCQJfNQ0HqwcSEiNZMxS23EUbk7Lo8gQPa2AbMfKj2pJeuMmhHdWXuRFNI11+44KhuOdb4cotQf2oBJqyU0w7Tlx9o/m4zGI4fsw7tkH8f0Q3F49mUfxl4XjRdTCDLvUMydJrYQ2til0MUsBWdZjqDYVeAsK9jXg+KXQh27HJx1BbS2pzl6CdYEmXFU9h7Oug3EBabE+4nzS1dnptYvufTHJZcBoOdFl/44Ih+OHNMERMcUgItfj+CktQhOJmiuAp+8AfzYTWLo+oT14KnGrwM/nl63LHxdN0kMYqdAdp7KLohdMvzwH9q7ZGUZiPFKFx2zsgxYZTZ42tZKCJQxqvuLQGe/GtLi1/TzDJa2FB87c8/vQVKaXzb1lNq5DZ+Sag2lnU4KG6AcWIKlMg2hyhSEKdIQTtCWZyNcnoMwOQWsT0eochrCvKfB7J0CvWos5O9pMKj3a+jbqzd6duuODi+/jK4dX4XLe8NhjYpAZnoGli5Zir+9+y6cenbC4S+3MWX590uHUHNiD6pKd+JmORlytqGqZDOqyrfhavk23LzyHS7+/B1yMyZD6SXHa4OGYbBTL/h7vYf1CzJRdeIL/FpSxH6WgCm1XqnteqtkN+4UF7F55Y3yvUxNig5ZUp57cKPsM9w49QNKv9uPwX27odNLL2CIc2906/AiOv/lP9CvYwc49eyBnt36YoDTcPi5xSDMNwshpCgJft5TWdGRazOFHLCdzcZdsgyCBMIGpWfQfPDzemASNMUSbCsgBLtHBaX0c+0HmK1xQDrbBsf6dRQ6Gyaux9CqDAHZBku7p7Rmwp7SkelHuFIiwbTdApNMPra1EgmY0pMumHAstk4MJaBrJLye2q4UXDAXQYZ8qCmsgFsII1cAna4AvmGLMEYdjz1KN5TJ3HHW5W2cc+sHasnSHO6Uu+j2rB7RDedd3sAZ17dxxcUZpz3744DqAyRzk8Eb5kBrpuD1lp/3snfG0joJF7rwwXB1yQ3b1FMKXZeeDcLXCY5SbqwEyvvgGV0InmBpB0x13BJo4hYhJGoReMsK+MZvgBCzGrxlGXySFyEobjl462po4laAj12FiOhC7PX1YysjtDbyMFXm9QY2qLWYEpoGLm4T/Mash9/Y1eASVoBL2ABt0hZoJqwH9+E68B+uhzBhDXTj10GY8Emz0Gx4rcQemAyaDYBJsGwXwGQQVmYiqoEbts2BqSBgptoASgpTAmYOIlTTEOGTi1CfdEQEfAyPtwLh3HkIunfogU6vdMTL//UyXEeOQkF+Ho79+APKjx9HeUkZDv/4E0wGAzq9/J/YtGIO/u+vxfj7+W9YWg+ZemrKd6CqdCtulO/A9cq9+O2XozhT8jlMGgWcu3dA91dexKt//jd0fvFP6PzCv4CTv4kLhym0YCfunqD1EtHwI80qaU55m+aTtKtJ88syUps7cKt0O27RWglTmQfww+7VSA4Lxr6NS7Bz1XzsWbsASWY1hnTrgI4v/js6d+iInl0HQTnCjLDRmTCzjFkCZgorBzBbbvaR5pmtcw/TAUwJgHXPRsLXGwtp13KzGTDpagml+FA4AVOZtEZC8Xj6OdDq8qDnC6ATCsDrCxBsnospwRZ8oRiJSs8PcM5lGM659cFFKlcn/Ow+lK1B/DqyB867DsVZ12Es+eesuzO+lg9HenAiwnW57OoJ90wBsxAETUPMEqYw/ePXQIhZxYA5OmkhguOWgreuhCZuJcyWxZgQOg2f+8gfCpQSTE94vIZ9o32QbR6PoKRVCEpaA3XiavAJKxCUuBb+yRvAjVkDbsI6qD/aCGHSBugmbmgWlqQ+/zDApIsjTImSslRmgRJ8ouQZLJggnNJ7GqsmAguaUpf0eUNlKb1vUmHaVGYYU5dZ9wHTLMtAmHc6IkZPhf8oM5xeHYyBPfqjd5eecOrdD5PGT8KxI0dx+sQJHDr4JQoXLUJy4hiEhoQjKCAAvbu+gryMsaj9+WtU034lzRYJdhU7cKN8G36p2I07lw/j2Nc7oRjxJv7yP/8Fw/p0gmz4IMyaGo+Vc9Oweu5UfLJgKqrL97EWrLhXKa2U2MxApaQudzJzDylPMgHdLN2O26XbcLtkG26V7MAt+vnyz3C99DPcOf0dasoPorr0AH4tOYgdS+cwJdunGwGzL0a84Y8AlyQRmLR7qUqFgYruZjoU5iPNMR3AbIMZZjMKk93JZG1Zmk2KwKSWLO1a0vxSEGZBYM8CZvwhRWjQT8f0oAh8L/8bTnm8Jbo63fvggntfnHej8AJx0f6qSy9mYKEF/CsUyO7mjJ+83sZC/xAkc1OhNhWwo9KN38MsEGec9D220tpOerVbhRm7DOrYQgZIatGSohRiVrIj0YEJC6GJXcJOeanjVsISNQcz9GNxSOnaImDSeslh5SjMNUQheGwBA6U+bjWE+BUYnbQK3mPWQEhcBW7sWgR8+Am4SZ9AP6n5duwfDpgMmjZgSrAkRdkoLO0i8JoDZMOvSYBs+GwKmKwty9qz1I4lYOYgXJ6LMGrLUizfaGojxuOtfh+gT8fe7LjzO8NeR0H+fJw+eRpfHvgC03OnwRIZBWtUDMJDIhETFYvggCB0/Ou/Y372BBZ5V1v8KW6X7EVtyTbcKN2CGyeLUH3uK5w+/jniQvTo8ucXIB/+NgqnTcHV4k9RVfkpbpz8ClUnD6KqYj+qSotwu5LctNtwq0JyxlJrl1ywEjDJYbsb1WViWAEB807JVgbNmmNbcad8Dyhv9pfDW3CPZqI/bcHd8gO4e/I7fLVjGfyVI/DSi3/Fa84jERI4lbVjzRTCblOa7PC0A5gOYAZOx5OKw7P/vY8ajdeowtTOhtbWlmW3MRksCZiiS9bIzYCBp9uY8xFsIFfrPMRo07DU34hSr2E440ZmFdoZ7Itz7n2ZwYftELqSM5bmcU5sNkfAvOTijAq317FD5Yc09RgEM5dsAWvLktK8r4z1oPyjAFPD5pjLoY6lg9A0z1wEIWYFBMsKaOIWgqP31mVQx63G+LBMrA0WcET+txYBk5KAzrgPwypOA35MLsyxS2G2roEQvxI+Y1ZCOW4FdHErwCWthe+kzdBM2gLdxC3PlsKUgCmqSzH2jsHSMxXhjVUbKEwCpliS6acemFG+OYgYPQXe7/Fw7jwQA3r2wWCnnijIm4NTFSexavlqJMUnIyEuASEGM5LiEhEbE4/oCAv8vH3R89UXsWzWx6ipPIDb5ftxt2Ifqku24jrNLk/twY0zX2HrqnwM7N4Jbm++jt2rl+JG+TcsA/bOyd24depzXDm6A1W0elK+C7crdzHgstg7W3ABzSrrEn0oBq98D6rYagmpTKktux3VxwmYu1F9bLtoDjq+A3fLduNO6V5UHdmDO+e+xf5tSzDQqTt6dR6E0e4xTFkSMMWSToBR5mzTpp+Gs0vpvWOG6Zhh2sPwYV63JjA12ln3A5OORzPDDwFzDkK0M2DiZiHYUIAA4wIIhjmYGDAeW/w0OO0xGOdcxFYsGVao5XrG3Zm5PamFeMZ9IM6R8nTrg0tu/Znj84zLa/hWNgpzAiOhphWVZ6glK5p/KFB9FdSxSyFY5zN1yVtWgrMuFiu2EFzsKqSZPsJnvp4o83q9RcCkf5zQPz52BKkQFzsZEZaFMMSuhSZxDfzGroTvuOXg45az977jN0E9fjN4qscw/bSrGSbBsg6YCmrHpiPCK42BkoLVG6uG6vFh3jdUltL75hRmPTRphikafpjpxycTgiwZ7m/6wrmrM7q/2gEhhmCUHz+KtSvWIC4mHjFRVlijxbJEWRgwE2KT4C1XoF/nl7BxQRZbFblxnGaJYopPdUURqk/uw7mju5A9MQr9OvwZGxbMxs3Tx3Dt2F7cPbkXN8s248ZxirijEPXtuH1iL24c34rbFbReIrVk65+1zDkrAlOCJkv7Ye3ZnbhTsRtVx7bhbuU+VB0jgO7AnYp9qDqyHTVHduD26c9x8qcdsEZq0OXlbvAYzsOgmsr2L0PkWQyatIsphrQ7gCnNJh/26WjJPt2WLAFTo5XmmNSGFYGpEfJYWzZUMxMm7WwGS39TAYz6Gcj2jsEBlS8uuQ3A+VHdcdGtJwtdJ0DSov0Vlz4MAqfch+Kce29ccO+F8+4DcXHUIFwYOQQVHsNQOJoHr5/FDEbPSkuWzD3kjg0gYNIs05oP3rIcnGUVKKSAHLTauELoLcsxU5eEI4q3cMpDbF9LM8rfe1Js3nWXHvjSzwXZIYmwRs8DH78OAUnrETBmNYLGLIeWzTPXwG/MJ1CP/QTcuOYNP63SkiVXrFV+f7EVk1ZwyTJIUqi6Tw5zxdJdSxamzkCZgnDPlKbbsW3Uko1QZiBcmY5wZRoiVVkI8cqA2TMLMX6zEeqdDoNqLN52HoX+3fvjlb+8iE3rV2Pnli34aNwkRIREIjYmDpZoKxgsLfGwxiQwhTnyvffQ7a//hu92rsCtiv2opl3I8h2orSjCL8e3s/WS84d3Io73xPiwAFw48imuHP8UtZWf4mZFEe6dLGJwrCrehnunPsV/X/wKvxzbCnLI3qrcg6ri7bhDrtuS7bhZQSHrO3CrYjeuH6fc2H24dPgT/P3sF7j606a6OL2q4h2oOr5dTA+q+JStm9SW7kH1T1vx29kDuFiyE8sKUtG/Zx+MetsfRr8UduLL7JWFcO9cto9J7lPKmjWqKAlIBGfD3FhJVdo/HQqzaYWp9cmA1icTWp+s+4p7YK3kIUw/PrSeIjpleb8csCJnrC2QnYWx0/vnzCWrtpmDRGiKjlm2VqKbC7UwF0b1LJj4fASaFyPAMBdhXDpWBUXie7kHc8RecuuBC+49GSipPUtL99dG9WUrECfdh+Gsex+cd+/F5prnKROVLm949MfmgEBE6jJh0M1uvCVrmM/SgKR2LE9uWKqQhSx4nbljQxay93xTTtjmPpfcsdKzFVyygmUZqOjGpSZ2MQyWubaVEwLmcmhixWPREVELWcTdCU/6B0b/FirMfrjk1g2HFcOxLigMSVEzEZS8Dr7jNkGdtAZCwjIEJq+Ef/IaBCatR3DiWmjohiathkzYBG7cRnDjPwGpRj2FqNuU52Obfp4kMNn+pU1ZMqOPDZjUhiVFydqwjZl9pM/aqCUbKktBiNcURKoy2Nku2r+M9JkOsyoFAa6RGNb3b+jVqReGDRqMLz7bj/lz8mCJiEZUeBQLV4+JikFsTCziYxMQHRXHVOff3nwD7wzsifIvN+FW2R5cPbqJGX2qy3fi+nFShvtRW34AOxam4LM1uaiu3I+aE/tQW7kLVSXbcKdyF25R1N2xLcz1euH7jeJ8snwvbp2gOD0KL6C9zB3MSHT5xw1sxllrA+eNYorXK8KdE/twi4IOKIO2eIf4pJ8t/5Ttd/5avAc1xbvwS/E23Di1D1tXTcNbgwawqDy932SYvDNh8spCmGoa28vU061MBzBbPMdsM4XpACYam2E2Dcx5UAvzoVfPhpHWS0yLoNXPQoLmI+zw06DY8302kyRg6+ulVgAAIABJREFU0hkvUV0OYvcbr43qBwpfP+X+GptrUluW4t3OuQzGhZEUyt4He/wUmKgdhzBh2jMHzOC4ZdDGLoHBskDcz7SuZOYfTSwdi16C8SG5WB+owxl30Qj1e6ryvq+79cM5jx4o93wLB5XB+DA8HcFjVsJ73GbwCWthil2O0WNXYfSYNdAQLBNXQ0OhBuM/qS97V+wfApi2fUvauSR1SUYf+zZsk2afNgUmzS4zEKZIYSqT2rOh8kyEKrNh9p4Cv1EhGNLnTXTv2B0yD0/s270PE5LHIjo0Agmx8UiITWAKM84qKs2oSAuiI6IxsG9v6P08cOXYPtwu3cnmljWU7ENKkw48F+/DnfIDuH6EFN9O1FSIF0UoQL2KQXAPqmjueILml7txvWQ3Wy35YsMsXC/Zg9snPsM/T3/BYEhmIKYwy3biTukO3CzeDlw4iKuHNzFTUG1JEWqObcNNcstSKDsZg8o/RfWJL3F4VyG++iQP10p24u6Fgzi0exHc330dg3q+Cc57PEw+lB+bjVBlLsyKHHYr0wHMlq+XOID5dFuyzQOzAII2HwbdfAQbC2DmczAlOAkHVTKcdKfZW39bO7YXTtO80nUgW7K/MsqJAZNB0p3MQP1wmtqzrgRMmnH2xlfeozArKAwWLv2ZA6Y6jgw/hdDFFDJVSYEF5JbVWFfCHLMAuboJ2O3rywxR5x9y/1KCJpmofvbsg9Nur6HS1QtZ5gngkhfDZ9wm6OLWItSyEr5j1zBg0gkwbeIqqJNWQzNmPVOXdUqSQEkQbY/AtFKij7Q+QhdIKPBAmcmKwZIUo6eoLpnClMDY1LMNFGaYPBPhpCi9sxAimwqjx2SEyNMR5ZeLUN+PEeBuhnP3/ujRuQuCA/yxetUaWCOjER8VjaT4BMTFxiHWGouEuHhEhkciOsqCEJMZHV58AZkTLKip/AK3S7ezZJ/aE6Qei3CrdB9ul+xH9bHduFP5KW5VFuHXks0MmpQhSyHsVcdo5rmDtV+vEFRPHcSpb7ciPVHAue+3oZp+R8U+5pCtoXD1k/tw7cdPcI+yZkuKcPLzFbj4/SbUlO7FzdI9qKFWbelO3CmnCygE4f3Mvfvj3lVITTTi9PdbcLWkCGUH12K06/vo+XJfBCsSYfSls17ZDJZmZS57TVdMHC3ZlkGzKWDyfpm2MAJqt9paqLanoyU7A5qgGfWOXLuzXS3dw2wamHOhoSPP/Fy2n6nV5cOqScWcwGgclb/LWoliOg2Zenqzs14UvE5OWDKmkFOWTEDn3USnLKX9XHQbhAuj+jGj0BH5O/jE1x9j1BRi0MAha3tPAe1/pJYsS/WxUJLPEmity6G1rIE6bik0cYuhi1kO3lKImKhZWBFsxreKUezvqOXApL/XfuwazFnXt1Ggi0Z07GwEJm+ALn4tjLGr4D9mLQKS14BPIFjSruYqlgikGSvuYzITj609236BSTNLgiaDpZjkI66Q2GDpkYIwW0VQ/B3NM58iMNnM0iMbBE6T5xSYqTXrnYVo/2xo3OPh+a4fenbsiu6dX4Ve0GDp0kJYo6JgCQtDTCQBMgpWiwUJ8fGIioxCTLQFgpbDC//6P7B1eR5qKz/HndKtuFm2HdePbUE1JfKU7sO9is9RdbQINSViC5Z2MynQgPY0afXj+uGtqKbM2fLd+O38Ifzz6jH8drkYEyOC8MX6fFSVfIprP27BnYo97Fg0hav/8tNWVB0rwq/HdiEt2h9b5n/MjlJfP7oLNbYkoNu0glK+D7dPfoG7577HueOfw9v1LexdOws1Jz/H6UOfQOM5EgO6DIS/lxXG0ZTokwOjPAchymkw0msHMFutJesAZtPKszVdsk0Bk6NzXvw8lvgj6PMh8LMwNugjLPM344TnAFx068Wuklxwo9uNfRgcKf/0kitdJ3FmqvK8W2+2bkIgJXV52X0ALo7qg7MufVHhOQxfK1zxYdCEZwaYWutKUPHWxewZbNmE4PjF0MTNhz6mEPqYxUgKz8IuP2+UelJgvTNaCkxRadLfM+289sdqjQ4TIrPAJ64FO/cVvxpBSesQnLQGXMJKBCWvRGDyKgQlrkFw8jpox25gM8y6Fm27VZh2wJTasFIrVgJlqMdUBs32AMxwWQ4iZDPZDiY5aaN8MhGuSodm1BgMd/JhyT59undFty4vQa8Pxvx582CNioQlLBSWqEhYY2LqoBkTFc2AqQ4KxH/+r/8Px7/azjJg7xRvxu2yHfj1iLj/WHOU9ibJrUqh6jRP3IPait24wVqxu9naR21xETPo3D39Bf772lHcOn8ENWeOYOZkKyaF+ePKT7twq2wfaij9p3IPblKubNleVJV+htoT3yDFyoH3egPXy7/A9ZL9uFn2qXi5pHgnbld8inunv8FvFw6j6uxRWCN0MI7+ANeK9+LKTztg9vFEv1f7ws89Ckb/DBhUOTBIwFQQMLMcCtO3tRRmFoTR2RD8cu4rUpsOhfnkFSal/JC65Cj9R58Po3YGJgeMx8bRAptZXnXtxmaUIiQJmOLR40uufXDawwlnPWjdpDsDJrVuL7gOwlU3Z1x26Y3To5zY/maFx1tICUx+ZoCpttI6yWoGTI11NQKs2xEUvwjauHwYYxbDHL0AE0NTcEhJ2bHi/LKlwCT1fm2kE6649MBZr27YFuiPrJCPYYpfyVZJCJTa+PXQJpDZZwUCx6wU3bNJaxFEubNJa8X2rM3402qmHwtlyTYMYH+c8PUGc0tyxVIbNqJuz9LmjqX3TFk+qDClAPbfi8mTVkbqnxRxNwVh8hSEydMRJstEqDwDofI0hMikKyhiGlA4rbUo0hClyEKUPAdmRSrCvVMR750GjZsVrzm5wKmLM7q83BE9undD3649oPUPRO7MbERFhiEuJoa1YS1WC6It0YixWBARGY3oyFgE+fmge4f/jfPFe9gO5S3Ke6UEHoIVZb0eL2JGG1Kb7AwX7VmWkdKkwAEKVC9i319VshX/uPAV7pz9Dncv/Yiqs9/gh/0rEODyGrYunIm7Z46gqnS/eDezdC9ul1I4As0zP8e6/DQ4vfT/44sNBagp3Y87Zbtxs5hCD3bj5on9uHf+W9xjh6xLsGdjIQZ3+yvW5qXjZtlBGAJkLCd3xFAX6JSJ0KsywSlSoJNPRSQF1JPCpBuZtGaiyACFrOtZoHqqLUM2A4I8E4IiHYIiFYJiKvTyVJBT1t45y17Tz9kyZKXns5klK97EpKslvBSubnvyftSOFcPS+dE5ECu3EWBSy9Y+eJ1ePxi+XueIrXPGZqPeHUsO2RxIubCP8my3WbIa8Xh0Y6YfjWYWpKLUHzH5Zw54Ph8cnw92zks/G0Z1LvICrPhSKcMlt+645NYLlR6UGdufHY+m81OkJGntgSlMUp5utF5CAQYEzAG45OqMi3Qf08UZ51xFU9Di4GhEqTMRrF8CzrCIAVoTMg9aw3wYhcXg6G5myDxWvHkedOaCOrcsH7qoLkNWF74EVE2GrTd0zEruWOnZwCVrnxsrvZYyZdkzWsyR1dplyVLYelDcaha+rrGugm/cJnDWJdBZF0NtXQdrxDTkGyw44kFhBXTCi/5uHi5DVvo+toc5si8ujyKF6YzDihFYxkWASyQwrmIOWU3CRmgSSGUuR1ASKc41CCaFmbiaOWk1yevAjbs/Lo/atDpyzVJR0MHEFoavEyyjZemIkWfYSrxUYrGtlViVWXigmgpftwWqi7NLApFo8iFlScCsg2aDFqwESOkp7Uy2HJgUov4RwhRTbcDMYgaeELo0Ik8BuWFZ+LosHRHydETK6SJKCmJUmTCppsCs/BDhrsl4o+9IODsPwuCuL2NQ1w4Y0Ks3XvnTf2HEG+9h0dJ5iIuNQajBhOjIGFhjYxERE4GEMcmIio6DNXoMAr2VGNjjz/ilci9+LduNG8f3ikqSXRMR4+zqz3M18b5sJ6rLt+F6aRFunvoW//3rMdRe/Aq1l7+BRe+H9wc4Y/+6Zag9eQjXi7fhLoWz/7gd94q34f+cPYSKr3bA6eV/Q/hoF1z6fjubXf52gnY6t+FqcRFunvkGd85+j5pT36Hi0G7IPngHsndfx4m9G5EcY8R//td/oH/nrhg52AuC91SEBKdDr5qMSFkq+7s1yelyCd3IzGAgJCDqZCns+giDpTwLgiJDBKbyY+jlKc81MAWfLAg+2ax4u2B06UqJ1jebrX5IqpKntY8H1koaU531n9lfJdHYrpNIz8dZI2kI1fYKTGq71s02G8w76WqJ/dfoPa+dA8F2xURtygOnn4mwoEysHm1Cqdc7uOxKZ7v6otLjTVxyGYgrowbgjOswUASe9B/2h3lSzNv2IB0mBIxHsL4QnGExeH0+gsLyoDXMQ6i2EJxpPoJD86AOmwvePBd6CmwPWQiC5ZMGpi5yKaQiaNoHstddK7EUMiesGIW3EoFxq2CIps9WwidhHXQxy2CIXgH/2C2YEDoFG7RqlLq8i0suQ3CRAbNl0KSs3kuj+uDSKAqCeA3nXYdgZ0AguMRC+I8lRbkcmoRPoE5ch6Dk5QhOWs1WSxgsbY5Z7Zi14Mauh9a2YkJzTFo70U3aCmHSNvATt4InaNoFrtu/lq6V0PNfSFlK6rLVgOltu0JCkXJ2wQSs9dpmwPzYpjAzECYjYGbgfmCS8sxgx6oj5GmIUKXCpJiMKN+pCFGOw7tOCnTv4ow+nTvA40//E1NdXOHXdwDe6tEfAYrRmJScjPfeeAsD+/RHt1e7Y8jAofDwcEdQkBqx1iQkxE2Cxj8A3V/637hUuo+5W6uO0VpHE2BsCqJlRbh6fBOqTuzH9fJDuFp5EJcqP8eVUwdx5OBu9HvlJfzN6f+x99bhVdjZ2vb5ru89c+bM1FsgJIS4h7gnhLh7INkWIwkSw5l6iwV3q1CKlZYKWlzrQrE47u5QoAXa+z3rtxMIFOaQnjkMM+/88Vx7k+4dYPe6uLPWetazzNm6di7ndy3n8OaP+XnfJs5s+4izcjtz7zeU5qTg2v5JPnhjBGekNVu1inPVKzm8eRkfvVHJ1BEv8Xx5PnlZMViYP0u7p/+DD4c+T4m+M04dnLGybIeNuRvBHgZyE5+ne/oQ8lVl2QTLkeQnjCAvoVIBUSrQ3MQhRlDeAcxB/89XmA8DmALYW5Xk3c//B3uX/9TA1As0J6MtmEaeYSwDu7zC4jQtu2J8OBppo1qte2I8lMFHjD77ojw4KKaeFlRMsre5LiODUZm9yMudTk7eG6r9m108Wd3eLDK8g67rdLKKp6ItlsryTXKK3nxkgSmReKK8MqPpJ6PPB2r/Mq9sDtqKBQwpeIFlXVJpiPLhWKQrR6IcGivwllSZjhyWdKVwR47JXmuEG+vSU+lVNhZDv5nK7KPv8xHavh/QZcAcNcM0QnO+CmmXFRPdAGnLLkBMQE3QVO7ZRwaYzXJilRs2xrhrKcaeh1NhSktWqsthqh3bBMw7W7ICUkn0EXdsJcVJg+mWMYi8+L6EuiZhb+6Bs6k5UWatmBUYyOL0TAocnXAzbY95GzMcTMyxM22LddvWmD3zDCZPP4lp62dwdrQjIiKCwsISCvMLeO6xf+fb1fM4XbuaK/WS3NMyYEqI+tmGVSybNZLh/UuYN3UkS96bztL332TG+NFE+/nhavY0cye+wIW9qzj0w8dc3r2Oyw3LOVW1lIt7PmPdJ2/haW9CdEdPNq9byKW933N152eseKcSp9b/h6f/+G+0efr/0Pqpf8PBoTU9c1PZu2oBr5Z3w9ysLU6Wpji1t8emjS/R3p3JT3keaZfmSSC7qi4bgRnfBMxB5CYKNIc1tmSlwhxGTtK/WrL/Aub9zT33i8lrqennd1WY+knkGSahzXuDYu1IRmf2Yn1SMvuj3DkSaa+AuT9aWq3yj76TOoAsKT8tAaa4bL9JimJmRldKckaTLyHvedPRFE5BXzCVgtw30RZOI1tatIUz0BUagwrknNejWGHqKuaqpJ+cihmq6szq9YG6hymGn66l7zIppzebUqPZE+3OUWWQslfXXVrymclrD0RKMIQDJ8LkRmYHvkqNYWRRf7r3mkZm/49V8o+u7/t0HiiGn7lk95+nVkvkqomEG2gHiBagGfDhLWhKlSmt2EejwkwedasNKyk+0opVaT6N1eX/fktW5pPSMjRWlwJM9TxhGMY2rzyOoFh9XY5ED6co+XWKMl4iwicD82ftsDGzINK0NVPCgqiJT+SjwEDS2zyLS7u2mLRqjZe5DZ1jOvFSv0LGDP4Lr/QvISbUi9bP/gd29u3pFBlJ9+7dsbU0480xL3KmTvYtl3OpTuaVDw5NOdN1YMtS+uanYf6ff8TH1go/JzuC3V3wcXDE7LEn8bBqw9qPpnCy4VPO7VrL6dqVnKsVt+1yTlYt40T9JvqX6DFt/QTdczpzYOsmrjR8wYGvFjFqQFcSowJJigukomcms98Zzp5tq7lUvZ4XeuRjZ2ZGorsT3m3NcG3njKuFJ9GBGvJSh1GQMpJ8mV8m3K4wVWWZIMAUySxTYNkIzERjO/b/5RnmQwNmpnFGKXPK5rq7Svyf/PqfqiWrm2gEZs6blHYZyuz0PDbHh3M0UqDojLhjZZ1Eha5HObIvxrnFqTXi8qyO9mVZehcG6l+j0DBOXS/RFggwp5ArtziLBJhvYuj6LrrCmWiL30Hf2I591FqykuYjLVh9r7dVDJ62/ANklikVZ3mPyczOLmJLXCAHYpw5Gmmr7odKi7UlwJS55T5VmdpzKkzA6crWpI7M12voVzKWzP5LyOnzvtq/zBg4ny4D55I9YM5tYDZCU8ApBiDNgAVoBzY6Z2VuKS3Zl//eLdnkkcb0nlsGn6GNKySDH1KF2XTe625gGg0/RfGVFKk27UiKE0dSnFRJccqrxPlmY2fjjYuVLR2fe4opPt5UxSWyLSaWgRZtcTd9HCc7c2yszJk9aSLHdm/myrkaDu/6mrOHd7Dj2xVkpobSqvWfsHNxQJ+bR0xkNLqUKE7XblRnt8TI01JgXpIq8f1p6KPDsX7yz5g/9gfMn/gDVs88RmKwDwveGM7Z3Rs5s/NTOLWZk9uW8fPujVyuXcnJLQu5vPszvlr2LtGBHWj75/+PqYMHcnzLWq7u/ZrjVavYs3U5h+rXc6RhPSck8adhHcdqltK3pxan1s8xKiKMUgcHws3MaN+mFXa2XmRF9qE4bRj5icNUO1ZasrkJlcZWbMLr5CaKxCBUqaCZmyj/bVjjnPP/XdPPwwLm/wSED/refyZgGvRy1ksumUynf+YrLE9Joy7WnxMRThgNPhICbqWAeSBagOmozD4t+cdfwLsn3Jkv05MYou1HN90otPkzyM6fhq5wCrrCiWiKpqAtfJPcfJlnPtrAlF3LvDK5RvK2OvOlL/+A7F7zKSh7i5eKhrEkQ0tDhCeHY8VRbMOxCHlsSTvWuN+6L8qJwxH2nA6z5XBEB2rj/VmfGc7r3YbQud9ScvrMR9tP0n5kjinV5V3A7DdfrZ00rZo0hRoYXjQC0wjNhzXDbHTD3goraGzHFkcPNrpipQ3bGK5eHD3ooQBTWq/FCcakHlVdxo8wmn9U1TmMorhhFMaNoChhBEVJwylMHowmuhw/hzDam7bHv11rXutgR01UDMcCI9gQHkF6q8cxMX+cZ5/5Ix/MfZsLx3dz/MAPfLPpfXZuXcOZA1u5eKyODas+wMTkMSztrElMTie7iwEXC3OObNuo9iovtBCY4pqVFuvFXV9wsuorvl/+AV8tnceq96bw5dLZHNy6jmuHv+NMvQSuL+HktsVqXeT8tuVcqlrO1frVnNm+TO2Bzhv/Cj5Wz+Hw3B95f/IwztR/wZn6dVzat47jNcs4s3MdNxrWcnHHEo7tXUbfXno6PPcMcwIDWRQbTZ5ZK/ztTLC2tsbLJgZt7AAKkgcraIpDVqCYo+aXUl0KMAc3umEFmtKufZSAORxDaiU5aU0a3uKdygcNXL/jdb/H9HPP1ZLbJp97moL+hrPK+wH0HxeYE9BqRBMR049eNxmdfiL6vEnk6ibxalo/tTO5N8qNkxEO7IvyMmbGRhjXRiSgQKAp1U/LgOnEwVAbtqdEMCGrO6XaYWgL3lVnxDSFU9EUj1PAlDuY+fmzMHR9B13x28YKs9sMDN3+d12yTYYfeXwQ009u2VwVUCC7lxrJjS0TYL5Pt5KpjMobwIaUFA50cuForIQ92HBMXMMtBqYz+6JcVEtWgHkosgO74jzZnuzGmK5/UYYfQ19jCzZj4Edk938Pbb+5xgqzv7RkjbPMrH7z1W5mEzRllmkEphh/lmB4+W8IzOZO2V7JozBqNL1UMIHxELSEFPRKHa0OQt83gOAhtWQFlkVqjWSEMvwY27GVdE8YSmnqKApiBiNHoQvih1KYOpTcpBcIdkvCzlxmlG0odDDnq6hgLnWM4KJ3J+aHheH9zJ/5d5PHeP2V/lw8tpOtm5dSlJeIk+UzuFu3oVt2Cms+nsfpw7soLymirZkZ3j4h+HmHYtfWnK+WzOeiHG9uQTtWvVbi8uqXqNuWkupzrm4tZ+vWcLZ+FWfrV3K2fjnn6pdyoX6RumyiTnnVrOSSit0zrqVcbVjJpZrlnNm2jFe7dcbV9AlCvZxZNm8qJ+vWc2WnBCUYw9ipWcG1qkXs372Iwq7J+LU1YVVQEF8GB/JekA8pFk/iYPYsDjZ+hHpnkZ/yMnlJAkijEUgT/TKFaQLPRmAmyhqJwPLRAGZu6ghERogJJB99YGrTRirnrKyJ3AHHdGOYetPX1BpK5hiUs/ZfwLzDDdvkjNVkT0DUHJg67SQ0OZPQFEymSDOSCZ17UZMYxP4wO05EOrAnyoeDke6cDLdWppWDUc6/cwHfieNhNtQmBDK7Sx79NIPQFbyLtussunSdRpduY9EWTcFQ8Bb5+e+S01Vg+SY53d958PWRu9dJmn7dtE7S9HiPtZKWAlPdviybS1afd8nuNUcBU1Mxn/IeE3hH343NCVGcDHPhULStchlL3q5x5ebBf9CQ1Z0DUR04GuHMqTA7FQixJ8aVvXFWvJlbQtc+cgtzDlkDZYb5CTrJkRVoyuyymTQDPlBBBp37ytrJB2qWqX9hIfoXF6F/cbF6bO6Mbf68xS7ZvwZMgaRIAtbvuEJy18qIguhDA+Yw5YgVZ6w4YbvJDmhjvF5R3FBVfZZljic3/lUFy+TQfOxNXbFr0xaNmSnLoiM4EhvK2cBAzkTEMdzTC8+nn8bJ1Zmqz9fx09FaPpg9mL6lOpwtzXAye47Wf/g3EgK9+WHjKj6aO4PWzz6OnZUlFm3bYt3qSVbOm8C5+k9VgHpLoGm8cfmp8SSYRNvVrlK7mhfUaS/5fgI6uW25jMs1n/Jj9Sp+VEHqEsi+XF01kXShK3Wfcq1+JYe+XULf/EzaPPkYMSG+bN2wmMv1G1S8njhnb1Qv5/L2Reyt+oQCXSIdzS1YHODH5qAAvgkO5o1gH+LNWmNiZoGjTQAJwXnkp72CIfE1cuKHkJc0lIKUYY0zzNsmn+bV5d9zhvkvYI75H+1eNq82/xErzP8OmP0k3Sc9n11xXhwMl7mbA3ujvDkQ6a7OeBlncGI+kR3Mll3ekGr0WJgtO+N8WZKawWtZz5Ob/6aqMrt0nU6XbuPQFU4jp+BtcgtmktNVXLLTyW1WWT7w3mUTKJsem0DZ9Pg3AKZE4+nK5yHh65peYgB6X7lkX5B2bJdMauKCjcBsjAuUz6ylFbkAVtZ3BLbHwx0UPPdHC4Qt+UBnoF/ZeAz9ZypgZvcXYH6AvnGd5F7AlDmmJACpWeZfPkaroCl7mA+hwjRWlWPonTYWuUKiro7EDrl/zN1DBeYQFVQgwQVNsJRHaceWpI2hSE55dR5CekQxLpZ+uLazoWN7E97y8OZAbDwXowI5GeJHXXgYr3n70+FPT6JJTOPavgZOV21k345FfL7iAxzMzCjOTmVw3x74WJkw9qV+1H6zjkAPK+zaPUFKlC/Thg/g7K71XNwjEXeftqjKvFgr1eGqRq3mUq0kAK1Q81CpJi/Jma+aFSqo4MfqNVypWoc8XpRwdQljb1jJuerFXKhexFUB5+7PaPh6BSmxUZg+8xTpkaFsXjafa3u/5dLO9VxvkOCDFezbuhhDcjQdTcxZGh7MjuAAdvoG8m1EFC86OWBraYKFqQ2+TpFoEnqTm/wKurjXFDB1sa+pdqxx59IYVJCfILPOv39L9l/A/Bcw71VhZiuH7ESGde7L0uR0dY3kcKQEETiwP8pTAdPYTnRUbcVj4dImbDkAZKdQ7mZ+kRDN2C4VFOVNQpc/g6xCWScZj6HrG+Tkv42+cAY5hdPJK5r6yAJTWzEXjYrHkxuYAsx5FJbOoDL/Rb5MDWd3jJfaWT0U6WIMeYhomeHHCFep5qUyNX7e4jSWCv9YpA0rO6dQWfwCuf3epMuA+Wj7Nib+9LuzuhRwNlWYmoEfKmBKlZk14EN1P1P34qKHC8xeqWOUK7ZbzGAk7u6+ubAPC5iJQylMGkxRokBzKN0Tht2CZo/EEXRLrKQgYRBd014g2D0e02fbE2zWjhc8XaiJSOBUQAinIn3Y28mbr0KDeKGDFz5/fpqSbC0nd3wNJ6v5ad9nLH5nPI5mrdjx5RLO7P6aAQXJJPjacXT7Bg5XrebUrg1cPfotpxvWcKJmEed2LmwxMFUCUM06Lopq1zRqNXK/skmXatZyuXodl6vX82P1Wi7VrOasHJLeuYaLOyUmbzlnq5dyoUYi+tZyum4T36z+mKSwQMyefJz0iHA2fjKLM/UC2pVcbFjNrs2LyAoPIeK5dqyO6Uh1iB+7vfzY5h3AktBOaFyscGnVBjtTF8J9MtAn/YW8lMHkJAxBH9sUUGCEpVSU+QlDyY8feguaf6+kn38B81/AvBcwNbqJGAxjeSujiG8SItU/8EejHTgYac/BKBdjZSP3L6McVH7sMakwfwcwJQ1of5QztdE6JiItAAAgAElEQVT+vJNZSKlhOIbc6Wi6TkdTNFFVnDliBJJVkqJp5BdOeWSBmd17Ltmyh1k6D5lnGipmUdpjMpMNFdTFuze6iF05JFdbJPko4vetlUiVKdCUSlOcxgLS4+HOfJMSxozcfAr6TlH5sXKtRCsJP81asU1V5j2BKRm0Az9C+/xC9HI/828VXHC/lqwxXF1asbfPdakq817tWPnaQwXm6xQlDaY4UeLxbgNT9i7zol+jW+pQ4gIMOFl4YWthTUq7tiwP68iZiATOBQSzN8qDHYGufB8Ryutevng//gTatDiO1H3Br8e2cWXHWhZNG0knT3tO7/2c83s3smXlO6T6WnPk+xWqWjtbu4Lj2xZxqmo5l3avRU52qVZqi+aYEnG3lvN1q41zTDkLVrcSWTcRXVBt2jVcrFmjQClVp5wJO1+3hgv1a7nUqAsSxdewmku71nBRVk9qVrN45ljcLMX52o4euZ05sG0hZ8T8U7eCbzfNIcnPky7tHfg8Ipgafw92BwSwxcOTzVGRTPX1IKZtW6xMrHBu709yp27kp0n83VBjRF5jBJ6qLOOHKVgWJAxR4PxXS7ZlST//mmG2LEv2r+1h3q8lq9VOoEA3io9StdTF+HM4zJFjMc7slyozSlqBLuyOcVf3LmVFQmZqv6cle0jOf6lFfBc+ytDRT/8qeTmT0XWdhrZwIvl5b5GT/w6Z3d9Gp4D56FaYWb1nk9V7Dl17zqOgdA6Gihn06TaWdzRFyuSjrrpEuXIowpOjER2atbQffIYpcJRIPfmhxbgTKwEGMgv2pDrej080yRT1Hk+X/nPI7T2b7L7v0aVp97IZOJuAKe3Y2/qQ7IEfo1Gt2U/+94Epph+BZdMRaMmLbXLE3tP489CAOYTCpNcpTBpEUeLgxupSWrNi/BlOUcJgDLF/wd8xFus2tng52PCiuwv7QsO4HBzJmeAgtnRyYntQB34IDWZ8x1B8n3kMDx9rDu//mtMNG6HuS9bPmkxuciiHq5dyTk521a3ko/EvcKFqA1fq1nK1fo3S+R2rObtjNRfr1zcefH7wPUyVLVu3inNi7mlYzLmGJZxrWKp+ff4WPFcaQVwnLd9PuLhzCTcOfsO1XZv4sXYtl+VIdcN6zjas5VT1Yq7tXcHV+kWcr1tLl9hgnn3WBE3nBA5UfcLVPRLjt5xPl04m3MWWHk6eVEeEUuftSm2IH9/7uLEl0JcfgoIotbXBzdIWaxMngt3T0Se+ijbmNXLimleWAsthymBVkDD4dwJzBLlJ/zPlJA3HkFypDD//Mv38barMhzbDzGoEZvYEdKK74u5uGXq0E7l1jeTWa+T1t99zC5iNxh9xyYrpx6AZR/fsStYky91Gd452sudYnAt7I21U0s+BKCd2xXhyIFpC1q05GmFszbZ0JncoxoHD4dacC7VmZVoar2j6U2AYh6HrNPSFk8jPe5uc/Jmk93gbbfF08iUer9sMcru90yL9ZtbZNLu89TgTQ4+Zyg3blB37oKYffcVsRF36CDBnU9xjLl1LZmGoeIsXiir5oLOOM+GmyLHtvTFy4sybY+ECTFuVvduyz0zcyPYciBa3rDtHIxw4GebEiU4+7I12Y31mJ0orRqHp9y55vWeS1W8emaoFe2dbtgmYyiUr+5gDpR37kQJm1oCP1PMWVZjl8SOoSLhTUlmKeqeMUc7YssQRytgj80qpLu+uLI1XR4yVZEuB2S12KMUSchA31Kj4pl3KYbQ8S3Y43eNH0jVpGAXJQyiLNe5j6lNG0j36NfqmDSLSrwvONh44tnoOg+lzfJYUwbFwP06EhrDHx4dqXw9qAr34JsSXWZGhxD79BJaP/5lNy97n0pHNXNz7KVtXz6K3Lolj2+UQ8xrObF/K+frVHK9axun6VepqyKXtq/h1z9ec3y4XSRpNO2LcaYEuijO2ejkXG5are5ln6+T3ke+/luObl3Bt92eqPfvjzjXqbibHv+LG8S+4vGs1l+tWqRnnxaqlXN25nCu75Xss5vK+9RysWoM2LVIlFI0ZNpCTO1dzfutCrtSvY8HsiQSaPserAf58GyoVpg+1/n5UBXiyI9CT6gB/5vn5k/z0s7g5OGBt7UVaZAm6yOfpmjgcrQBKAtkTJHi9krz4SgrjKhU8Vd6shBqoYIPGncxb4evDyU0yygi54eS0EJbyevm9DUnG98qvc1JGYEgZTo44ZBtdsnKb0pBWqaRPr0SfLr+WUPRRjRqtHm+vhYir1qjcVPlekgs7ugUahf6O/NhRqOxYyY8VJ+w93LCGjDF3vKd5oLq+0TV7dwyeuGYNGWPJyRhDTuYoJUPmSIwahb4pdL3zaPSdR91WC521DwWYArbs8Y2S583UuBrSBMymR41mMhrNNLJ0E8jSjSUnawI5WZPRZk8lK3sS2VkTMGRNQK+ZgF72L/VTKM4ezuuGl/g8LYO9HZ05G2HBoSgL9sfZcixCwr9dOBzhzn41Q3PiZLid2its2T/+ThwKd+GQVKdRDvyQFMXczCKK8seQ0fVNNIUzyJNoPhWPN1tF4kmWbH7xDPKK33lw3Qeuym0rjlulmeQIMJvlx94LmLcC2EtnYZDg9bJZGMpnK+l6zSe7dBbdyt4gv2I22RULmJbXn8+SIzkaaa0qQzmqLZW4tLL3xdhx8HcEsMt7jQH3crTbTaX9nApzUBD9MrUTwwufp6R8Gvp+76PpLzPKD43pPs0qTEn7UdBsnGfKc0n/UZF5AxegaYzOy3l5EbmvLEb/kjhoF6pwdnkuMNW/vOh2lmzFvYCZYARmr+TRVDTuV8oh6FJ1DHok6gLJ/dqv9/r6X6kw/5bA7B4/gp6xY+maVEl+8mDKY4ZTHD8Kbdooesa8THnyADo4h+BoYYP/s48zvYMDO+M6cryTB/tDfKn386XO15eaAC++C/ZieXwEee1McX7qWbobOnPu6DbOSrW3ewNzJ77C8ao1/LhzAz/vkvuSqzlTv5yzu9aodump7xZzVdZBqpdzqlYOPkt12RJgrua8nABT579WcKZ6kZqDyqxRZpWXxOBTvZozO1ZwtnYtH097nZ+PfM/lfWu4KOsk9av4sV6upKzgcsMKzspe54Gv2Ll5BQvnTMTTwQTH9k+xduGbnJUj1juW8FPDJob8pRd+T/6JUcH+fB0aRI2/H3V+/tQEeFIT6EGdvzebQkJ40coKN/NWWFvaE+yeTHHyKxiiXkWTPBx94nC1f2mQHU0JaY8b3ghMCWcXNV01EVdt07USgaWxmlTgE9j9DmDqBdiqqhyBIbkRmApyTSslAsbhGEEpsKxElzFMQVOfNgJjGLqAc2SzFZTGXc3UkeSqAHUBZssk31uX/t9LnzESkSFTICt/HqOav7fpNbrMkTSXADMnfTw5GeOM0JRfZ47G0Cij03WscsvqOo9C13kk8tjcAfsgzx8eMI2rIE3VYdNj02pIEyhvPwow36CLfgJdDKPJzRrfCMxpZGkEnBPJ6zIRvXYCGsNEdPrJlHV5lcmaEr5LSWZviBPnI9o3AtOeYxFOnAhz4ViYm2oLHoxy5XSYnXJtGtckZK72gAqTFqUL+2MdqI8LYnVyF8ryh9K563Syu84ir+tUJV3hXHIK3yGv8E3yFABnktvtwZXTTS6ZzCRHLpo0ytB9JrckLtkeErA+ixypDu+SvmQWKnBdrpQ0SVJ9ROVi8pmDttd8sspm07XXFPIq3iGn9H0WaIvYEeur5ryHI2R+KVWh8V7o7jhpbUs79gE/q0YX8sHGDFqZGe9vzPA9ESGB+A5sSQxihr4HA3uOuZXko2DYHJbNnsteZtNcUzvgA5UzK+HsRnB+iNzNVAenX1qkoClXTBQ8WwLM8sSRlCeNpFyFFBiPQd9qv94LjPf72kMD5nB6xo6iMGkY+SmDKIkznviS81RlSa+SFZqHiaUTjm1M0JibsDk2mqORoRwP8aLhv+Z2tYG+VAf7UuPnRlWAB5vCOvKimysOrZ7GztGcdSvmQ40ECaxmT90KLh3+ghPbF3Nu6yKuiGlG1jlqVvLT7g38KL+uX87pnUs4sW+J2ptsCTBldnmydjVndq5V4QSnqxZxuX45V2o/5frO1VxvWM2J7z/k4s71HNy6mggfR7auX8SPDbIqsp5zNas5I+/ftYFj9Ruo/W4l89+aQDd9Np42poS6WTBtaBlHti3jXP0qzlfJnHUT5Xk6Ip97mplRYXwf4ketv08jML0VNAWYP4R3Yl5IMGFtnsLVzBI7My/yEvujjXwefdIwDIlGyXPJkjW6ZKVd+ygCcyi6jEHoMwajTx+KPl3gKdVn065mEyxHkZMyltzkCcarI2nDyGmB5PsKmH+j9KHoRI3/TZ9ZiciQKVCXP4tRumbv1wvgMyvR3SW9uqs5iZz0SRgyJmDIGH9L+ozx6DObNBZd59FoFTRbfurr0QXmJLTZ0+iiH09nw2jVbtVnT0SjmYJWOxmDZiIFWZNUKzbTMAlR384DeT9Ty/aECA50dOJsuC2HIuzYH2t0aMqVEskx3R/lpswn0hYU44msO7RI4cbUmv2xNuyO9eLzxHheyvkLufnj0ShgTie/4A0MXWeT23UmuYVvY+j+LvrfIV2Pd9HeJU3Pd2mStmQWutLZStrS2WjL7pSmbDbZjdKUz0ZTPofsijlqhUTWSDr3nUd6n3fR95lK14rpVHSfxqeZ2eyO8uRUmDMnwzpwPMyD42EdVPDDnhgXDqkQggf/zASuB9XtUUf1Q8uhSFdVWR6KlkB8W+rivPgwW8ur3QeRNXAumoFz0Q6Y99sKsxGa9wOm7i/GnFlp1epe+PjWPFP3wictB6ac/GoCprRj5VyXcYWk6ZblAz4+NGBWUhIr10mGUJA86NYMUxyzZWkvE+gcwXOWFvg+8xTjvTw4FhfL2U4hHAr0odbLjbogH6pCvanyd6XG143tHTsy1ceLsPYm2NubkhgfyplvvuCn3V9zrmEFZ3Ys4XLtCs5sWWw83ly/lvM7NypjzbEti1Gzxl3LOb1rKedUluyDV5hi7DlZu4JzciKsdjlnqpdxWSrGmuVcrl7Kj7VLOFP1Med2rqbu64VYtf4TMydUcmn3d5yo2sCJ6o2c3fMNWzd9zITKfiRG+OLQ7jkcTVvxfLGGmnXz+XHnKn7aLXPWpfx0+Cv2bl5JclAA2W3bsiQ6km3B3tT5e1Hr76/AWauee7G1YwCbYiLpZWdFSOu2WLa2I9wrk7ykl8hPGKwMQEZwGs1AOSpLVvJkH0VgDkeXLnC6Xc2pFm26BBsIFIc2qlJVlbkpYxqBKRXog0sq1+Zt1VvP79uSHX1HS7appatCDO7TktVljFKVqVSnt9UExLHoMscZ1VmAOQZt59EKnA9SVTZ/zaMKTJ1mEoasKWTpjMDUacaqOaZGOwm9biI5mvHkZ08kWzeVdMNUMg3jeC2zhI1JETTEeHG4kx2nw21VSMH+mA7K7SnVjMqRbUz4EeOJcY4ps8wH1+EIJw5FOrI/xoGD0W5sjevEeE0PynOHoS94h7yCN8gvmE6epP1IdakqzBlqjimzzJZI9jfVDmf3GeQ0k6H7DAw9ZpDT4x1ye840qkTmmbdlKJmJUulMDE0qexeDqFzasrNUuo/sYGp7v01J6XiGdn2ZDakx7I02BhSIMcoo46+N6UgP/lmpnVdpx0aLu9aJk53cVHt3f7Qju1Xcnq0yA21Ii2dM1wFoB8xGM1Ak0LxzhtlUVd4PmHL+SyLzsvoZ55uqqnxpIVo5CSbt2ZZVmCOQ+aW0Y5vftvyrjth7VZkPDZjDKIkbRnHiYHXfskiOQscPpSR+EDmxZdiZd8DMth2dzdrwRUwMZ4ODOB8YwG5pxXp7UBvgyfZQd6oCOlDn68augCBWhIZS0sEBx7ZPYm76DAPzCjj63Spu7lnHlR3LubRjJRcaNnL5wLds3/gBGxdO5+zuzzkvma671nFehaFL0EBLW7KrOFv7Kecl+k5WRepWc0Has9VyiHoZl+rFALSIo1WLOFy7hnBfe+zbPkGpNpE3hr/A2Jd7Ee3viNmT/4b5s/8/tqaP0b+Hga9XfMSJqk1cqF3LlbplnN/6EV/PH8GxnetZMn8Kzs88w4tu7qwMDqRatWA9qA6QStOXOplnBniy1d+D78OCmRPoT2ZbM+zMZPfUB31SfwrjjVmyOlVdDiUnaQj6ZOPZr0cSmApYMi9skoBqZGOFOZSc9MHkpA8iJ22IAujtGabR8dp04/K/e5Tvr3sA6dPHIjJkjFN/JkNq05/L+Cjfo+k18qgTZTRpFIbOQxs1DEPn4eg7j2ycVQocBZJj0TbC0gjMlhuBHlVgSjWZkzWJbAXMMWi1AszxaLQT0GnHoteMJUcziSzddDIM08k2jGJcej61MR7sj7TnaIQNJyIEmM4ciHZjv0ThxdhxKNpKpdaoIHYV8WaEqID0gSUVU4QYWCSQ3JWGaD9mZ+p4Qf8ShoK3yen6Frld3yC/6xRyi6ar81753d5Wc0yZZf4e3Q1ZBdLuM8jr8Q55PUUzyW+UPBfdAmnT85KZ5Ja+qyTXSEQyz9SrE19z6dd9FG/ndOObRH8OxDiwN0b2JQWO9upzVMej5cB2Sz6rxteK6Ueq+BOdPFR7V8BbH9eBo5F2apa8PT6Yt3NKyOs7E92A2WT/DmDqxAQ0YIFKAcqS+ebzHyPV5e+qMCUKT4CpZpaxjUHqscaTXfc099wLlvK1hwXMhKH0jB9MdzkWnTiEwkQxEA2hNP5VwtxTsLdwws6yFYPdXTiUkMh5fx+O+3pT6+fHToGBn7tyyFYFu1Pl60adhyfbwyKYFxRAQqsn8LFtR2uz1rzUu4Dtn77L6e/XcK7uG/bs+Izhr1XgavsMOWkdOVC1RoWin6taoXJdf6pfw2UBXgtmmBJc8KOsilQt4UL1p1zZtZHTO9Zwumodl3Zt5PJecb9+yqn6ZVw58iXvjOmHp/UTOLX/E9bP/Tt2z/0nXpatyE3syIRXSqj67EP2bV3Omb1fcqphE8er1rJ23hh6JnsyvHssh/d8wbjhz+Pwh/9giKMzXwcHUhvYgdoAN3YE+irjj0BTZpkC0i0BXnzeMZRe1tbYm7bF1sqDyCA9xXGvqPACXbJxPmlIGoJW9jQbq8xHboapjDfj0aeKxhmVNqbR9CPt2CZoCjCHknurDdsUrfdgj2IqajoW/dceDemjEOWIgUeBe+Rv36cqTInLuy2pLnWZIzB0FlDeBUsx+6hqcpSqKqUV2yRpzTavHh/k+aMKTHHFGrLHk62doNqyWu24W8DUaEaj0YxBq5lMF92bZOunU6wdxKzUbI6GO3Ew3JojUbYcVSelZOG+g2oBHoi253C0NUcijU5PFY8n8zhVeQo4H0DqNJgrByPc2BfpwfFwVw5EerEkLZXBugHous5AUzgLTdFM9MXTyOou6yWz0XWfg6Hb7N+n7rMxdJ+NXn0f+V5G6XvMRtdzDvqSubdk6Hn7efOv60rnoiudh67MKH35e+jK30NbNh9D74/pUvExLxYOZ3FWFjuiPTga7YTcDhWjjnxeao9VKnPVRpUfLh7gs2p6TaQEtjuodvjhcB/jPDTKifpYee7M2U6y1+rBx1kFlJe9jaGfHJUWg0/LKkyZYd5eN1lAlwEfGJ2zLZlhVsjsUmkEJXJsOW5Y49WR3wHLhwhM42mvQfSMF0gPoyh5BMWJg+ge+xecLfxxtrAj2OwZFoQEcTE2gVOB3uz19aDK34/6IF+q/Y3VZU2QJ1X+ntR6e1HzX+e9dkRHM8rFkdjWT2Jr2Qpzkz8T4edCvzwd/XoUkpwai7VFa9xsTJg58kVVbZ6Sfcma5VzZuYqzOxZzrupTftq7iXPVcrXEeFD6kgoMuDdIL9au4qf6VVzYvkSdBru8awOHfljGmvkT+WLRWxzatorzezZxeuc6zu/7nKM16/hs6QxWfDSVFe9P59vlC9j91RqObt3I+Z1fcap+Ayd3bWLblx8za9oQCnUJeNibkhbiyJ6Ns6iv3Uh0Ry/Cn3uOt7192NExiNpAV2oCO7A9yIcaf39lAKoK9KQ+xJvtvvLDRUdGurrSweQZnB3ccXOOomvcC+TEv05Oykhy4uQu5lB0yX9/YBpSRyASp2yT6cegWrGV6DNGKEDpUkehSxFYjkUvlZ38HZSzttFVm1JJjnLcPhgkb+fVVjaad+4Bv7SmrxmdtLeAmT4aQ+rIO6RPbfZagWYzKWAKZDOlOm2sUGVueWt2Ka5RacUaYZmdMRKNmIGyxj2ywNRkj8eo5jmwt/Ngb5t9JhoD1cX9qhFgShU5WT03VpjShh1DZtYoNIZpZOveIi97En/p3IclKWmcDHXiQJgd+yJsORjhwFGZT4a5cCDChYOSUqP2J+04LIHs6k6jo3qdvPbB5ciBCGf2RnbgWJijcs2uT45gbHZPcvMmYZBIvMJ3yS2ajLbHO3TpPlfNLw3dZvJbvavmmzLjfBCpOWiPd9GL2Ucee85CmXvE8NNzFjk9Z5NTMhvDXdKXzkapTPJi52BoNP3I1/J7zUdX/j7D8l/hs9Qo9oS7cCbciQPhnhwNM0YByt93n5xEi7bhQKRdCz4rBw5F2HM0XP5/OLE7ykPNleVru6K8OBzhrFrncgVldVoGg7qNJaf8HbKe//ivALMZSNWdTHHLGqUi8xqTgASY2X/5EN2LjTNMac++tPCvu2QFmBVJI+nZWBm2qJq8V5X5kCpMmVUWJgyiNH44pTEj6JYymq4Jr6Lp2A3bdm64mZqTb9WOr8PCuRYRzf4gD2oVJP3YHuRFVZAHdQHuyKyuJsCH6gBf6vx82Onjw+dBQUz09SDWsS3O1iaYW7TDuq05rVuZ8KS5Kfb21ox6qT8/Vn/DL4c3c36nhAws5XzDMk7VLeZC/UrOV6/krLRxZU9z1wZOb5fWqrhqfzvbFGD+vGsjvxz4grM1yzi/21i1zhg9kORgF9I7edK/MIMpQ/owd8prLJk7njUfv8Hnn87i6+XvsW3tQjZ/+j77v1lB/aaPeGd0P/p1TyeyoyvuHax57LE/4OntzoKZ47m8cz0fvD8Fu7ZPoWlnxuKQYKr85IcFV3YEubE12JuqAH/Vmt0R5EFNiCdVfh7sDuzIPH9/Iizb4GBti61tANrI3uhjXyU/dQy5sZXkxlciVWZuwt93hmlIlSsljWp0yRoyhqPPGIIu81Wj6UeqR3GWZoxDlzwaXfIo9CmjMKQ2KmUkufLrlOFIBd0S6VNHoIAsUG4mfaqAUtrAd8qQNhqD+r3k9zNK/izq9Y3v0aWN5k6NRZ82GX3alNtKn4QuYwLZ8ntmjCI7rRJ9lzFIlZglrd8uEx5dYGbdDUwjGO8G5e1fT0CrFWBOIVszDUP2RPQSuq6dhDZnAuma0WTJsWbNGxSmVDI6xcBnSTGcifDgcLQbe6OkBevI8WgXTkS4cCzKjWNRHTge6cIJyYONdlJmoIOxzhyOcWqZYu05FGvPgVgXTkTZcSzani0pgczMyqG7djDd9JPpmf8GPfJHUlw8jbyiGRQUTqVr4eTfqLBoCi1R1+IpFHabektdu02lSYXdp1HcffodKuoxncIe0ynq+YZSYckbNFdxyTR6lE2jW+lbTDKUsy3WgyMhNpwLtuNUuBdnwl05E+7IkagO6u+7L96Bg7GOLfq8jkQ7cirKmkOxDjQkunE41pZj0XYcjPZQAfhHIqw4FWXJl0nhTCt4gYKeU9G+vEStkDTNLR/kUZy1ajdTWrMCzb/clswwBZzalz7568Asb1wr+YcDZuJQChJfpyR+JL0Tx1Os9gFfJMItDVtzJwJMTBjt7MyuiCguBAVTF+LFVn836vx82RLixZYQT9VybPDzocHXl6og2T/0psbLjYbAQH6IimBGR1+KHa0Ib9uaTs+0oUMbE9rZmOPt6cz5/bVwqAaObeFMw0pl1JGknbP16xSUjv+wiLNVyzlfvUK5aQWUAtF7AfN87Wp+3PsV1w5/y0/HvuLM7lWc2rWGI9VrGPtiDzq0fQKzP/0bHlYmOFu0wcHChDZP/idWJs9gY/I0Nm2ewKHt44x9rTcTh/TD4tk/4G7bDluzNrR58k94udgwfcJgzuzfzJmGTRTlpOL6zJ8ZaG/DF5Gd2OHVgaogN7YHu7Mt2IuqAPksfNke7MG2QHeqA73ZFxjC6k6hFDpb4WjaBkvLDsQF5pOT8Br5iSPJjx+lbmbKCTDZwfx7zjBvwVKg2QyYhoxhaNNfJzvlNQzpleRljiY3U6A5koIuo8gR52zq6+Skv05e5mDy0l8nP3Mw+Z2Htkh5nYeRe09VktflPsocRt691Pn263O7VJKb1aRh5GUNIS9raOP3HE5u1nBysoaRmy2SFRr5AUFWSSagTZuMofPkfx5gyrqIdhzZ2qlqvcQITHHJTiZbP4Gs3Emk6qagy55Mt/gBfGRI57s0Tw5EWbMvzobdMe3ZHWXCgYg2HI5oyyFZMQm34HB4ew5HmHIgqi27Y8zYE2PK3uiWaU+MCbtj5P3tOBjVhkORraiLa8/K9FDGZ+cxIaOcaZ37MrVzAZOySxmb3Yex2RWMzS7/jcZpyhmnqfiNxmsquJfUa7UVjGvUWG0FYxo1TlfBBH3vOzRe35tx+t6MN/QxKqcP45ppcm4vJunLGJfXi0/1qRxKteBEvBnHo83YH2XOgch2HIw040Bke/ZFmbMnuh17o81a9Jnti27LocjnkM+tOr69ejwQZcLBCHMOxVqq73UsyYTv0px5LyeT0h5DyRrw3n1NP/eD518DpvaFj9G++Am6l/9KhVkeP5wyUYKsaAxVdyz/YSrMxGF0TRpMDwFm0kS6xspdxgH42nfC2tSSiOeeZZlvIMciojjm7Ul1qB9b/D1o8PNWwNzc0YvqAC92+vqw09eXbQHebA/0YleIP/v8/dnu7s53HQNZHRfJ5ABvxvoHkdLeHAuLVri7WHK49js4UpM0UmgAACAASURBVMONw99xon4Fp7cv50LNes7WbOL09pVc2bVeAfL6/s/Z/+X7qkUrAL0nMOvWcP34Ns4f+JJ92xbxWu8UPnjjeS4d+JqLe77jq8Vz6JWTjp+jBXZmrbAxM8HG3AxrU1OsTdtgY/YcViaPMfzVXkwa8Ty+zpaYPfEn3C0t0CdEseb9N/np8GZO1G1g05J38XeyIvCJPzHV3ZlvQvxpEANUkCfbgj3ZESSBBb5K24M8+MHfnZpgP/b4BvBNeBhDvVxwa/UEFu1t8XFLxpD4MvmxleQnjiYvXsA5vHG15O/nkr0fMJUjNnOkWvLXJA9BkyzrJUMwZLxGWkwFsR0LCPPPJsw/i3D/LEK90+nonUZH3/QWKcQnneB7yTud4PsoxDude0leH+RzL6US7JtAsE8SwT4pBPukEdSoiI5aUuJ6kJU2AG36ILTpo9GmTkKXPvGfCJhi8BmrgJmteVNVlxJSIMDM7DIKfcFUkjUTMWSPoW96BQ2DtJwbGMxPZd5cL/PjV1FPd+jeAUq9oIcfdPeH7n7Q0wtKPPilzItfRaUtk7zvlzJvKPWBEk8ocYeeHhzv0ZHVumjWJKfweUoGm5LD2ZASx9rUFNakJrMmLemBtTY1iXV3Sb6mlJbM2vTbWpOejFJaMmtSEpVWpySilJrIqru0Mi2RJq1PS2R1YjSrNIns6daJX4qtuNnDiWvdnblR7s71cm9ulvlCT2/oKX9fPyj1btFnRqknlLrxa5kn18t8uak+O/l/4smv3X24UeLLtRJ7jvfxpGZwOoP6v0rugNlom+9bNtvD/D3AlGpTK+sldwQXNEv5EViWxw2nNK5S7TD+IwKzKHkIRXHD6Zk4joK419DFluNl54dN6zakt3mOHcERnArtxD4PF2o7BbJdAVLgIBWmN1WB3tT7eSuI7gj0YkuAJ9sCvdnl58c+bx/2entT7+vJjhA/vo2Ipo+NJVat/xPr9k9R9c1qbh7YytVD33J230bOV6/lx5ovuFj1FReq13Fq21IuN6xVsJRHmWdK6/XewFzNxf1fcm7/5xxvWM2wgdmkhFrx9dK3OVP/GRd3f8OZhq/4fs0C5r8xhsHP9yFf05mUuGhiwkKICw8kKcqfsUP68cmcCRRkRDOsb0+WvzONA18u51r9Rn6WQIW6tbzUtxjnp54i45nnWNXRj83+7tT5u7M12IdtQbJ/Ka1rH9Wmlrb1lgAPqkMCqPf05IegQOb4eRDW9kks25tj69iR7Nj+FEk7NmEUOfEjKHiUgSmtz/RJ5GSMR5si88zBdE7sR6hfF1xtg7Fr30FdZ7E0s8XKzA4LE2sszSywbm/eItlYWGJrafUbydfvqfaW2FlY3ZKtxe33WltYYnUPWVu0x8bSDBuLdthYWGDT3grr9tZYWdjQrq0Ftpau+HnEEB/ZjZwuleRnT0Gb9gjPMFvaktWOR6sdo1qyWZo3lDNWpxmHVjOJLpJ8lDuFNHHMdhnEq7k9ufx2Z34d58WlgVZcLbfllzJHKLHjl1Jr6OMApc5Q4gKlTvxaZssv5TbcLLfnZrkdNytaphvlTtwsc4ZSR34pk+/nAD2s+KW7E/v0TuyLcuWYzOoiLTgYacPhaCcORrZch2R95V5SqTuSvOOsrn5I5JxI/R7hjhwURcic9bbkvx0QSau6mY5GOrM3xJKDGU5cl8+nlyk3BjpxeYADV/qZc7GfPZf7uECZLZTa80uZCzfLHVr0md2osOPnXvb8Ui7/T5z5udyVnyucoMySmz0c+bWPD5cH2HBpmCOX3gln/PO9yK+Ygu5vDEzNCx+ju2OGmTCCXgkjVTyeqi4FlrHD6Kn0j1ZhDqU4eRD5cUMpShxNUeLrpHXMw9XSBUeTVhTbSIslluNBgez2cGJnSKCKfqv3k1asEZY7AuVRnKCebPZypjbEnyoJH/eS1/hSH+RNfYAH9cF+bPIN4jV3d1ytTWjX5nFmTRrOr3u2cv3It1w5/rlK3LlYv5rzEoTesE61Yy/WrWbBuD58t3Cigue9YNn0tbPSum2Q4IK1HKtZy/CB+eQmBrB51RzO7tzAhT3rOFW3Ql1FObf7C/ZvWUn9t4uo+uxjaj9fyLY189n79WJOSSJQ7VqObZWj1Ju4VLeBM1uWcbVmBd8vf5fwIE88nniaFzt48H24P9WB4hJ25Ydgf7YF+VDv70a9vze1/t7UBLqzzd+L6v/a16z38GCHny9rg/zJsjHBup0J7ex8SA0roUfCcLRxw9DFV5Iv0XjqxNejV2EaVKU1Fp2kAXUeSpfkfoT4pWNr4Y6thT3W7S2xbi8AssTO0gZ7CztsLWywsbBqkdT3MbfA+h6yMrfgbsnrbJqp+fvUa9tbYHmXrNq3x0ZJ3mup3m/dvj3WFu1wsLPEqn07LNpZ42QbQEJkMYW6EeRlPbouWU0LgakTV6x2FNnayXTRTkejG60AKvuZuZIrmzWWTM04dF1eYkL/Plx5LxrecuTaMEuuVljya4kDlDjyc6kNN3rbc6PMiZulIgeuV1gr3Sxz4Ea5PdfLbVukXxQ8bKHEip/LHbgm//j3tIYSJ07kGUPJT0a4cyDCkn0SnhAlUXqOHIoQA8xdCnfgYLj9b3Qo3J7DYb+V+vpd3+NgpFxkceBwhKPaK1W7peoMl5ziMuqIuF2VI1hcwbd1NNqRPaGmnM62gXJnKGvHld4uXBK4lZvyU4UdVypc1d/111IbrlY483NFyz6znypsudjXlhvlttDNlmvlTlzubcvNXq250dOan0pduDrIkevT7Lm+wJ35I3rTrWwcunsckb5fdSlf/2stWc3zHyHA1Lz4cbMZpgBTTD6SHytmmbhKBcseMUP+8VqyCUMoShJgyuMIuqUOItonExsTK3zatuIVN0fORsdzJMCXBi8XdgcFGHcL/b0aH30QYBpbkR7Uh/qx1duDrT6+bA305zs/D34I6EB9iBdVfp78EBLGpMBgfNq1wcGsDbrEaG7urebGke/5+cRnnK1dxOnaxZys/5TTVUs5s32ZmmV+/clEYt2f5dQOibyTGWbzA9FiFpJQ9ZUqPeh81adcrF/H2brPOLRlHYWpYXhZPsaMUX04LClDu1dxef86jmxbzNUDm7iwS+5hruXyrs84V72BK7s+R0Fbdi5rFnOhRtZUlnNz75ec3Lycwb0KsDZtTXxrMxYmprDFtwN1wR5UB3uqpB8B5k4/d2SuKwYoqTa3+0mL1o8GXy9q/Xz4ITSEEmdL7E2ewczWjbjgfEpSKsmKfh1t3FBy44xnvh7GDLMpS9Yg0XpN0Xgpw5VR51ZbtjFLNid9ODmyjiFu1PSh5GW9Sqh/OpZmTjjYOGFp3g4bS1Nsrdoq6Fi1M8e6XXus21li1c6qRZJq736yNrfkXrJtb0WTmr/Xur0VVuYCwN9Kvd7cGltzG/VeG1V1mmJl0Rp723bY21rRzsQKN8cQ0hN6oE1/+Z+mJSvVpABTo51MlnYaWfrRaHRj1cyy0DCZjOQhdMmeSLGhHwvH9+anj4Jhni284cDPz1tCb0eocOXncnt+6u3IjQpXfqlw4dcKB270tuVGb6kqnblZ4cjNXvYtEvIPf7m1qpCu93LkWm9XKLOHXq5cLHbkeKwDp1XIu6Ny4h6JdedItCtHo11+oyNRkkl7b0n111z3et1hOZUV3Sj5PuoCi6yCNF0TMUbYyXul0r1TzhyJd2J3pCmXcu2gv4f6e/3cx4PrFdLKNufXckeuV7irCvNXgWcfZ673btln9nNvey4OsONmL1vobsv1Xi782M+e6/3awAAHfpTPcroXzHPk6vtWfPZGOX1KX0Y7YC6a/h+g678AXf8PVRyeRiUANUXjLVBzTo3c0ey/AG1/o9mnyfjT3PQju5gCzKznP7wNTDH4qHD1hOGUNL86EjNEzS97xD5gms+93LFNX3toLtlKihNHUJI4nMLIF+mW+goBrvHYtLcn8I9/4KPITpwMjeBAgIBSEmw8qRYFyH6hn6ogqwMEmj5qlUJgYZQv2wN9qQoU56wPO/zd2ObXgR1B/iwJCSHfrB1uTz2Li5U1Vd98zrUjVdw8+CU3DmzkXMNqTu3cwHlJBNq+hPMN69SKR7iHKeX6aI5sX8m5hrVc3r2GM9WLubJvNSeqF3Jxzyou71zJpbqVXN25gVNbVnJ19/dsnP82cT4umPzx3/C0NaUgO4HBL5Yw5+1RLJ43gQ0LxrP2/cms/XAGy96fwdIP3mDxe2PY+e18ruxbyZXaRVzYtpQbu79l49y36ejiiINpW4a4efJdpwj2eHnREOrH1yFufNNJDD8e7PT1osE3gDq/AKoCvaiWHzACfKgL8aU6xJ+vAv0ZG+KL++N/xMLCjjC/DAyxA+iWIuHrQ8lJkPbs/77pR7JoVeD6HY9//VqJPqUSXUolXbOHkRHfvbGqtMLeyhab9tbG1qa0OZuAp9qdUsndH4C//W+W2LZvuWzaW3KH7te+bf519R75s1k3Slq+Fli2M8XW0sJYKVvZY2vhiKdLILnZz7cYmCr8oMs4tF3uPL8ljlRd1t9I4m5tYYUpGbMa7Xh02VPRZU1XmbLZ2onos6ah1Y2ii7hks2byevd8dsxI4Oo8D27OtefGLAeY4Mi1ge25WWYFvZ35qcSBm+XO/Cpt2lJ7KDO2YH/qbc91gWVFy/RLuZ1q6f5abonxuSO/lkm70pbrJbaczZK1FmsOR3saAw5CrdX9x5aGvLf89c5I9uudOa+S0NP4NRUiIHF0Ijms7cSuMEuOZThxtcidG9K27uPAjV523Kiw4ddya9V+vVHurNqp0oq9XmHPjRZ+XtKSvdrbhusV0ta142a5K9cqXLlQYcelAZYw1gnetuWXd+248p4XR+frGTvAQObAGWT1/whdr4Xk9FmKfsACugx8C82AOegEpP0WohnwHtkD56Druxhdv8X3dckKPLNEz390G5hi7pHrI5LkcysnVkIKJKCgCXj/08eHCMxuCRLhN4yiqBcoTHkRH6cobM3tSHrycVZFhXOyYyf2yoqEtBhlCV8t4suczqjaxkdxgUq1KfAUVQUYZ3iSdrPD1526EB92eLnxRWgIYzzciGxrgq1JK8aPqeTSsTpuHPmBq3s2GNN5atdzsWYlV2RuKWe39n3D2g+m4G/7DGNfKObYdmPL9OKudZyuWsKlnXLMeTknt33CpbrlXGlYzfkdyzm5Re5dfsHCN0eRGOSB6RN/wLLNU1i0eQqz5x6nzZP/jnXbP+HY7lmsnnkChzatsXjiP8hL7sjBLYs5suVDLtYt41zdWvZ8u5K8jERs//wYWXbOLAjtpOaR++QHAj93tnXyYWtIB7YHuylI7giU1rQ/df6eRgV4UR3sxY5gP74LCmRaR3/8H/9PrNpbE+KdiC6uL92SjcejDQlymeThALMpwL3p8UHOe0nlmZP+KjEdNViYyWyyPfbWAkxpvQpwBJiNAJLnUrU1h9SDPG8hMG+B8kG+992vUTBvAqa0jo3QtLMyPpeWsrW5DY7WLnROLvsnAqZx7USfPRm9isiTs18SlzcZjX6cknx9Wl8tR+aGcW1uB36Z56jEjA7cGGbL1b4W/Cz/SPd2bZw1OqpK8Jdy4z/6MlcTALQUmMbX2/JLhRW/ltupGeav5TKjs+VmmQ3ndLbsjbLkYKS7umpyoJPNwwNmExxV6HkTLO8PzN2RlpzMcuKn7h4KmL+qytuKX3pZc7PC1jivlJmtUvPZ5YN/bmqGqVqwduoHmF/Knbnc05bzfWz4udIO3nKA2db8MseOK3M9ubQgkU9G6NH0m052v/fR9f0Efb+Fatcy+y/voqpMVVHKruZ8sge+p4Cp7beohcCMvwuWAsd/UGB2SxhOt4RR9BRgxr5EbuIAPGxDcTCzJr+dKV/ER3MsJIRdfr5qz7A20IvaQA81s6uR/csAucbRCAQJLpAqNEDA2ih/oyFIDDC7ZP7p7sK20EA+6uhPnoMltk/9kcyMePbVf8OFg5v5+cBXXKtbx0871nBxxwp+bFjHlV2bOL5lBdcPbWXKq+WEOZvx4dRKztZ/zfFta9V/v1S9gh9rPuX09oXq0si5qsVc27WKC3Wfcrr6U87t3MSXS99lxIvlaBIj8XGwxdHMFEuT1tjYtsfDyYFoX3/6aPTMeO1ldq1dxLnqdVzcuY4TtSs4tvNzBvYpoJXJU4SamTPCI5CNMdF87uVCXZAH231dVThBXYBxteSHEE++6+inTEC7fd3YGSAn0DzZHuBBVZAv20KCmR0eQthTj6s2oW+HSHRxfdRd0vyEoTzKwMxNH0lu+gi0KS8R5JWMhWk7BUw7K5u/LTDvhtr/5q/vAUx7a2sEmEbjkRGYVu3siI8s+KcBptzLlHg8qXSb9i/laznZ49BIkIF+AoWawXzyup7LCyK4NtuJX+Y58OtcR5jrCdPdufqaDVf6GNuzUl2KEUiqJKmQmvT7YCmwEGBa3wFMgadUnJfyHDkQZ80BVe25cFjmkbdapE2t0v+NR2m/GjNfjVXm3cCUdB5bY3UpKTyRsotqxfkcF26WenCjTFrXNtyQHwT6NBqhyuUzE2A6Nv5gYdto+GkZMKUNLuYqerlwo9SBCyXmXHlVWrGOMNsG5llxfa4NP77ryLX3gvj2jTwK+0xC22c2EnmXrU57zUcvV0n6L1DzymyBpexe9v8ITf9P0PT/uGXAlCV/dXeyeRX5DwzM7vFjVH5sccLLaGN74Wrhi3Pb9gywt+GHpBgOBftT7+fFDoFgoEgMPm7KzHInMKVla6wqJcSgqQKVRzG8iNlll0cHdgb68FmQFxODfQh/9jECHKxYv+Q9zh3aBmerubRrHZdqZO/yU67uFafsIn7cuVatnJyuXkdvfSxRntZsX/8J1w5t4/B3S7ixeyPXaldwqW4NP+3bxMU6aecu/L/svQd4lWW29v+db06dUVCkpGcnu6cnu6Ts9ALpBdIbCaGTEHqxIR2x17HQkhCw9zJ2nRl1rPQiKiiCYxmlSEv9/c963mxABh3xqP/z4eS6Ht/snbCF5Lr2773Xute9OCIl2vee5vPNT7B/01P8dfvL7N/6Ch9tfJkdr/+BV59cy2vPrOHDNx9V5p7P3npURfL9baOsBnuST999iG8+/CNPtt6MzeiP3tuX6IsHsjjSzh8zh/KWbGyJCkZuHja7ZJ2XzFtGKIX5ripPy41DuFrzJaaojTGa+twSH8dDaSkUDB5IgK8vYSYXFZnN1OfKPOZCarNEXf7vVJgCS9l7WV14Bc6wrJPKUUw6P6nC/DkBeeZrnwWYmroUp2wARp0Bg78Rva+JjKSa8wqY1WU3q8zYyoprqCq7leqyG6kpX05J2R1UVVzH9LpJvH5DKT33xHF8tYGuVgPdLQLNUGiz0X1rKMcuD+Boo+/J0mnnZCsdzVJaNGtlVHHKnqPKFMXUJeprcqB6XXHJimrtmWxU5/joYD4tMPCRBLpLX1EZb34OQJ7tNQWa8rwbnqIu5Qg85flTRiB5vD9Pz7GxIfQ2h9M5yUhXUwBd0lOcKmVsOacDUyCqP2dgKheylHknGemZaOH4pECOSin2Ziu0BXGi1Z+u9Xo6240cX2WgY7WZD1eVcvnM5YyccgcVc++heE4LZTPbGTnjYSqnP6gi8Epnr1G7MyumP0LpzPsoUzsxT/UxT+9hnrUkOylryakNJNKv/Cl6lqfDt0+xSi9U9UPPeP2fch/m2OxljM+6jrESjZd/JcUZEzB7hRLq4cXiEAtbc9L5MFb6b1FsjpW+pQAzSlOYsREqtOAUGAWS2uyh9DilJCsjJ3I2xTjZYLOx2xbB+85IpbweyRlKla8noRf3Y8G0iXz6wdv0HNrJl+8/z9c7n1TbTQ7sfJJvdsl+yif5estjHPvwZba9tJ7SjEjS7QH86ZGVHNn9Fw5te46Dm59UBqHPxSi08xkVuH5kx1N8s+Mpjn3wglKLf5NQhPdeUGvAvtj+DEd2v8JRKQNvkzVjj3J456McfO8RDn34OF+//xSHd7/CpufuYXhSNEHePpj9DUQM9qBar2N9cgJvpyWz2Rahwho2S38yVtR2lBqz0Xq7miFqY2wEkvizKU7gGcn2uGieyUij1sebAF8fLDobFVnN1Mo8pqT8KGD+/Ek/7jLs6dcfUpIVYNaXLMAWPBRjgPQtdcq1ej4BU/qYUmpW/z6/QNWrNemsDE2qPb+AWXoLAsuKymVUl95GjQLmUkrLVlBTuoRrmqv58K4CaA2ls9WgTleLhY42Kz3rwqE1iu5rLBye6klXc6BSlRowRUmZVXlWSqnnDkwDXc0CTH0fiKUcK705KWEa6Z4YxldlFj7OMLJfUoRSNTWnAetskPs5njsTmG5ouhWoBs+/lRjpbhRgBilHsdwEdDXp6ZGbiJOwFIXpLsdKqVbAeQ4/NzW+Y1HK8sREIyemBcIyK6wKhXVBHG0LoPs+K13tZnpbTXSv9OeL1hzumn8F46bcQNnceymcu4rSmW2MnCrAfJhSCVmfs0IZfSqnPU7JrHsonb3+3BSm2hk5bKHqWaq+5RlA+0n6mL9QD9MNzDGZCxlXcCVFaWPQDzYTPmQwN4Va2ZWZwq7YMLYLJOPE5CMZqTa2qJESAaKDTbHOk0dLt5GEG3lOvmZnU5yNTU4777tcfGCLUClA7ybE8kBqKpWDh2AfMJA4i4E/PfcQBz/byIFPX+Nve57ly/ee5PAHz3Dovaf4YtMDdOx5js82PMyBXS/w58fvJCfeyLAYPc/ccyv7Nz/P57I8esczfLHpMdTS6G1Pc2z7MxzY8DiHt/2BwzufVdtMvtz6MAffe5RD7z3E4e2P0rHtZY7teJ6DO57i8/ce5eMdD/LpnqfY//7zvPn8esYMz8LkMRiDjw4f3wCMRgPBAR6MCfBjnUo8cvF2TDQb4yQ71qFCHD6wSfKRZngSpfl2bLhKANoSLxteItgR7eBP6elMChD3phd671Aqspqozr6MulxxyWrq8ud2yZ4OSvfn/wiYqn9ZuJRRZYsINSb3jZH4IXOP5xMw1XiJ9GYD9GqONMAnEKPOSkbi+aQwtfVe5ZVXU1a9hOrS26kpvZHqisWUl61hVMk82q/I5WDbUFgRCOtMdLQa6FkXTOf6II63meldFwZ3hdIxX8fxaX50Nhvommylq8lCT9P/EJhKYco8p1aG1fqXBroapewYweHaID7ODGDfMDMfpWgGm58fmG716IalwNF9QvgkNZRPUsP6FKeMlpg4VGWCqVZ6mo2cmKSjV5VODXSKMepk79J6Wjn2xwDTTNfEYLonB3OsWU/nlQa4MxLWBNPZauVIq4nOdSGcWGOENhM9K7w53JbE09eNZ8qURZTNeoi8OaspntVK7ZR7kV5l6ax7KZl7pyrPVk19guLZ91Lyg4EpAQUyazm0T1W61eX/y8DMWsa4zOsYk7mI8YXzyHRVYfA0E/rfpcIWp4330xLYHhvCtrhIVZJVCjJaVKQW+yaw3NgHTAVPRyTbZfZSlKY9UqmvHbGy5iqaHXEuNrjieDHRxaoYB+NNJhwXDyBEF8Dgiy6grrKAL3e/RefnGzix789qnvLgzufVGMnR91/k83cfVeMkMp959INXeOPxFYxICSUxwp/Vty5m9+ZX+PK9Z/h65xMc3vkU0sc8uPlxju14hqOy/WTHsxzd9Txfb32crzbL4ujHOLTtcQ5ueY4vNzzJ8Q9e4cutT3Pwg5f5dPuLrLt9Gbnx0Zg9ffHzCiTUlkhM9nAG6M146wMJGdCfYo+B/D4mimcSXWxKSGCnLZo9MXFqk8v2eCc7EmPYbI9ig9rqIv1LufkQYNp4LSWVOWYLOl9PAr2DGZ46lqqcyxiZu5CRmYuQXub/TmAuURmz9aULTwJT1NhPDUyT3oCPp5eanTQG6pHH3h6eyOcBfv5nPX5e3oSYrfh6ehNisWpGpDPLr2d7fJaSbOBpClONpPjI2ImZ9MTqf6wwi6+lqvg6dapLrlM5tBWlbofsDaecsf8/u2Rl3rKyTMZJrqWkWhTm76kuvZmqimXUVNzNhOJm/nRTFsfa4uAuP7jXyvE2I53tQXS1W+hsNdIj/czVIXB7CB1XGTg6xZ/OSQZottI7Scw6JnrPRSn1fa+UY6Usq1SWMvtIKVbUpYHeZgsdEyx0jA3lswI9u1N0qiz788Oyr9za15vUQOlWlTK2EspHScF8lBTCvvQw9mcE8ekwIycarGhGH70qxfYo5SylWVGYbrOPG5jfX5LtapQbBvkZiBo10dVkpLPRwImJenqaw/mmMZDjlwfAbcGwJpTuNcF0tYTSuSaUnpZgulcbodVA7+oAjrQ52HBnLldMnc3I2U+QO2MtJbPbqJ3WQsX0B5TCLJl7NxXilp32KMWz7qNk9r3fqTDLZ99P2Zz7NZds47AlTMhYyPiMn9ANe2Yp1v34l1KYWcsYm3kdYzMXMbFwHunRZRi9LQQPHsC9sdF8mOxia2wwW8XYIrOEsU61qWRLtDhANRW5MU4bH5HS7A4pRzoi2eW0sdsVx/txcWy22djkiuON5GQejndxVZCV3IEDCR0wEIN/IIP9A/DT6/AY1I/7V1zP0Y/e4die1zi082W1nuvwe3/k620v8Nd3nqDzwz/x2ZsPqfLr4R0vsOGZtRSkRDLwgt9w1WVT2PX2Ixz44Dn2b3hQ9T9lTOWLdx7ki3cfUalBhwScO5/l4NanNCet9Erfe0Gt//rbRtmf+RIf/PEx5owqxzJkMLqB3vh7mgiJSqV68jyqL1tOaFYJF+mDCDCZidJ5M2zwBdwaE8Wr/62Yd8WnsjXKwXYZp0mwsTkuil0xMaqUrUqysaHsiItUP6c3EpOZZwnCz28Iep9gCpNGUZl7GTU5C/4fAOYSBJhhphRVjjUoCP20CnPIwEF4eXjyb7/5V/71//6GC3/3O37zL/+iPpfnznb8vHzwHuKhgu0lrODiC2VbP8ULKAAAIABJREFUToB6/L0u3bMAU24CJNhASrKS/qP3M5wTMKuLJaj9OmpKrqeq9DRI/lRjJGe+zo8aK7mFijIZJ7mBEdXXqHGS6jIp0V5LTfFyrqgby/urUulZZ4dVAar/daRVz4m1FrpEpbQa6ZU33xaBZii9NwZzdI4A0x+aTdDk7jueQ2nx74CpgUErUQpEDfROsXB8vIHuiaF8VWrgwxRf9qllzD9H2fXM17RouypVr7JPUapepoQWhLJHATOUT9JC2Z9h5otcA13jZBZVVKMc6U/2mXpU/9INTLfhR4DZ9/Wz3GgILAWQblhqKUoScmDkeJOFwzP86bouAFotdLea6GoNpbclElbLCYI1JnpbNbfssbWhfNxi48a5kxk97RHyp91D6Zx2ametVHOZspWkZM4qNYcp4yXFsx6gZNb93w3MORowBZr/R6lLAebQ8wuYYzKvZVzmQiYVXEV6dDl6bysWj0u4Nzqa3aKc+oC5yRnJZpeTTapP6VQzlmrGMFbKjOHsiA7ng+hIdtkj2GmTXp6TrXFxbHTF84eURJZFBFHqOZAELy/MPgEM8TEwQB/MJdYI9OFRXNS/nzLWPLTiRo58vAG+2MbXW1/kb1te4KvtL3FghzZycnjz43TseIqDm5/gq63PsfGlBxhZmoPHgN8yLC6M1TdcyY5XH+arnS/yt21Pq3nNY3te5Osdf1Dzmwd2PM+B7S9wcPuLfLnlGT7b9Qd2v/kQ259fzy2zJ+D0H4L+kosxypuoMRRrVBLZ1ZMZ3rSQzIkLKZ62lLj8WgYGhuDjpyPCfzDZHheyJNLK0wmJvJuYyGZ7ONvEAKR2Y9rZ6tL6m5tiwtjuEidxFG8lJDPfHISv/2D0PkEUJfYBU3qYmYv/15p+qgtEYf78wDTqDWx8910Ofn2ALz//nL/u/5RvDh1S54vPPuNsZ9VddzOgX38CfPwUJM16I4F+/mr05Z/APNvmkpspL7+dksqbKK6SecxbUCMm5TcyqmgGa+aM5cs2l9arXKPnWGsgx9tNCpg9rSZoMSj3pbwxd7dKvyycnmUmuqf70zs5QEFTAgtOKsWzAOC7+nRS2u1Us4qa4/YkMJsEmmY6JhnonRzMoRoDezIkHs9txDkTcD/1Yzcw5f93OjDFfBTC3pRQPk4K56NkC59k6DlUbKJ3ghuYZ8LSbfhx3xS4byy+v38pqlKlK0n8YLNZBUh0TzFxsMmXziV6WBlIT7uOjvYAutpEaYbDynBYrY2WdLeJW9bE8XYLh9bruX/ZeCZMWsGIqespnbOe6rkrqZi5Ti2KVkumJWN2+gOUzHyA0h8KzIlDF2kKU0qybiX4c11/IYU5Jnspo8Ulm7mQJgXMCgJ8gjB4DWS9M4YP4+PZoHY8RrDFEcGmeAkkkN6cU/UxxeSyVXqckuYTHaoCyDc5o3jHFcub6en8ISmZlWHhjPf3JX7wACyeQwg0WPEPiyU0uZC0yokMq5uMJTYNnSkEP08PQvQ+LL58Mu+8cD+H9rzFsX0b+XzHK3z53xtC9r37OLLN5KD0J6V0+u5TbH35IR5tvY3G+goijEZMnh4UpcVzzaWNvPTgnbz3+oP8dZus+nqZL957mc+2v8TH7z7Dtlce4tXHW1lx01VMGV2B02rA56KLMPsHYtAZ0PkF4uunJ8AYgiEyntiCkeQ2zWfEzGWMaJ6Pc1g5AZYo9Do/wnwHkujZj+lWE08Oy+ANWXPmimK7K5LXnWFsFLNUtDiNw9kqqUexNpV6tMAchLdOA+aIxAYqcy+nWvUwZVuJQPPnjcZz9y1Pv/7jHuYvA0xfL28OfPUVXR0d0NNDb1c39PbSo65A79+fpx57nP6/uxCDLhCdjx86b1+MOuk9asak74Tmr1ZhaptJSitupbRSc8tWlWl9zYmFtbx8XR1HWqPoEoPPWjPHWnR0rxd1aaa3RYCpKcwuKdO2maE1BO4IpXeBgWNTvDnR6P+jYClwdAOzc7JmHpLnRF1KxJ4kCwmEVWDCaBP7smW85KcG43e9ngBTDEbBff1KUZNar1Jz64axNyWc3UlG9g0LoKPGqjJ2v6UalbLsc8iqmwgBpPu4ofndV1GZAkyBpZRmBaAnmgPpnKeH28UVq+fYWl9OrNfA2Lva2qcuDUpddq0NVL+vE2uNdNzjz59/38C0ifOpmLKaklnrKJvbQsWsdpX6I+VYNWIy437KxCU785RD9sz1XhKNJ+pSKUwpx6qS7HkGzFHZ1yhgTs6/igxnJf6+Ifj7DKbdEcsHrnjeiQlRRpWt9gg2xmtJPm5gbhWnbGwY22JD1eLkbYlO3k5N4Pn0FFa5XMwyWykcOJDwwYMZ7OvHwJBwrMOKSKyZQv6EqyievJiipgUUT7ocgy2JQZ5+GAyB6HSDiY40MKl+BCtvWcizD69g6+uPs3/HK3yx608c3P0X3nyqhUml6QyNCKAgLoSh9hDCTREY/az4D/LG4uNFYqSF4UOjGVeVxcyJpcxtrmHu5Bom1eZTkGIjMcJCkC4Qj0s8CQgIYbC3hSE+Zrz9jBgkl3TwYEJ8vFWKzRCdhci8cgpnLCBn6gJqpi4jLa8OP30wXnp//AKGEOvnyVSzkecSE9jgElNUBO8kOtnYN4+6OSacLfE29bW341MQYHoGaMAsTmigQgFzMbWZS3/1wBw44BIOHzxEd1cX9PTSceIEnSc66O3pOSssBaDPP/OsUpg6H1+CjGZkNlQFK8jv8my9S/dzv1pgStLPjWoXpijNqoqlVJfdQG3JHcwpLWD7HSNAxkfWh9B7XyhHV/vS3aqnt8VMT6scE90KlgJMI12tomDC4JYgjlzqy6FGL1U+VG7Qc1CXGjD1GjTFQDRZc4+Ka7ZTQsYbjfRMEeOPSY1QfF5oUouTf7EephobEXUZpkFTHkuqT7q20/ITybhNNvBZTiCMlgD0vv7kyRESbVZVU9dSXnUfMQFJX/NMxflteEpJVo4YieQ1OiYG0jlND7eFQkuwmrX8ps2f4+v1dLTq6V6jVzc3Pa2BdLXp6VhrUDc9XW0Gutv92N5SweLpk6ib+nuKZ6yjaLbsvGxXweyV0x9Qs5cCSpUx+z37ML8FzPHpCxQwZSPJ+aIwR2cvZVT2csYPW0hzngCzCl+/UHx8PWmzx/J+bDxvR4ewLTqCbbYINiTYeTfOgfQwtfVVsjQ5nM1xEgkXyRvJMTyRHMey8GDyBg7AesFvMfj5oDOFEpFaSNbE2eROXUBW00IKm5dROudG8udcS87UhVTNWYouyI7OX49BnKOBOhz2KH73n7+h/2//L/3/8/+g87wIZ5iZ3LQkEiJCMQ8eSKjHQAz/9a+EDRqAn6cvVksoFoMZk06nXsfo64Eck58X/kMuwXtgf3wG9sN7wAUEDu6HfsC/k+6ykZzkIlCvx+TlTYyXJ3kXX8QVEaFcYbVQOGgwIf0HoLeGEVtSz7Cpi8htWkThhHlklI9liCkEncWK0dsfV//+zA+38ESSnbfibOpnuMsRrW1ziYlgU4KoSztvJWjA9FDADKYkfjQVuVdQlbuYmsxlv3pgynaRQwcP0XGig67OTnp7e9VVqcyeHnrOOALSxx95lIsuuBDPQUOUe9drsNbPFMX5T2CerSQr20quo6LsdirLfk915UKqy66jbsSd3NZYwhdr82GNlR4x+TwQzok1/nSv1sEaM92t5j6VYqJzrRF58+1dK/0xUTOhdF1r5ZsZmgFI5ie/q/R69udFYQowjXRODuoDpjZm0iXJQU0meqdKqIEeJlv5qljyW8V8812q8Kd8vs8lq9yw4RowRXGqKDxNee5LC1cq9KtCI0wIoneSe84y6DSTj3YToPU0pVTbN3t5sq/53dAUWIrKlCxfucoNCQsiYWUYrA2hsz2YI21mjq2V342B7rZAdQSUJ9aa6JC0platStDdYuCTe4Zz18KRTJh1I8Uz1pM/6xE1j1k1Yy1V0x6iXI2YPEDlzLVUzmz/YT1MMfuIQ/Z8AqYk/YzJXs7YYQtoLJhPVnQNAT5h+Hl7cLc9hm0JSWph9NaYSLZKSdYloyI2tkscnmziiLGrVJ+3kmJ4JiWWO+PsNOkDyLx4IGEDpfxqxssRg72wltwJ8yiYeTU505eRP+MaCqdfQ2bjQoZOWURG4zwKmq8ivXQ0/pZIPH10JCan8cm+v/Ln115jfXsr11+9iKkTxzOyqor4+ERCvH1JGjyE+dEx3BAfy5XBZkbqAoi/sB/xvl5EeHuqzFeLv44Ep5OygnyKUpPIdIRTMyyRyxrrWHnjAv70xDoeav09xUOTCBlwIcP9vZkXYuGlnCzeHpbBlvxs2iVkwMMDs85A1NAiYmqnkN24gMLJixk+aR5Z9VPwCo3Gxz+IUB9/kgdfxOrEaN5KdrEzIoL3HQ52OCUuUPrAojAdvJaUyuXi6FSmnxCGJ42lJucKanMWqxVfv0RJVsuRXYqUYU+ePC1LtqZgGeoUSlCBtkRaFkm7A9nrS+cTZkpWEXia6UeCC8QcI7Fyp2XH+vv2PT4j51UFHXz3c4MuGcgXX3yBfHR3dytgnjhxQj3+rv888uBD9P/dBWorSlhQMP7ePpjEVev7D6L5fsUKs0LWd8nsZcVNlFQuobLsGsaOWM7zi+vovDdTjZMcXRnIsXXB9LSJw9IILdKzNNOx1syJtQJOI91tBlgfRFeriR7pm90dzvFFBr6Z7kOHpNo0iqPz2+k/2riI9pzkzboj9OT5LgVM6VeKGUbKlZKOo6dbICpReVPl9QSYQRysMrM3U9J1JBBdSqWS9yphBvLYctoRcLrHQeT6Y/qeAkwz+1JD2KegKaB29zUt7BVoZ4Swd2ggh8rF+GSlZ9KZ85anG3zcsOwz+vSpUHeWrAprUC5hMVBZ6FWvZ+l7TQNHm/zpvtIKtzthpYXetTIfG8qJtUEcbzHR0y5HbmhEWWqw7JQSex8wu1br+fredJ64fjjNc5ZTLgpz5qOUzmpTwezVUx+jbMbDyiGrAtglDWjWqbLs6cEF33LJSkDBeBm/yFx83ihMWSk1OXs5dRnzGDN8ISMSRhPkHYZhyGCuDovgnbQ0lVoj67s2CjSjnWx3RvB+TBAbI4PYFe9iZ0w8Tya4uDTcSqK/D8EevoR4WdAHhhOanEf8uJlkTFlM5tTl5Ey/hlw5064mp3kROU3zyZxwOSl1U3GVj8c5vB5zaiFDwlwM8fSntrKaR59+ks+/+JSeE4fh6BFOHDvGkhtuwDbwYpaEWtmfGM83KTH8LS6cT+NdvBBtZ0m4kTK9D05ZDD3Yk+DAAOpK8nj4poV88FgLh166j683PMGeDc9w3dKrcAVbcFxyMY3mQB5JTWRXajKfuVx8Ge1gf5yNPw1NUn1Yi2cAYa5MbHk1RA8fy9D6uRROXEzh9KsZOvEyjPYMhvia0Hl7cU10LK8lxfNeTDBbbcFsj3WwJS6KLU4ZvYnmhbQ0GgMCsXh6YfCLoCiriYaseYzKXER11lJqf4EepkBSFG113pKTp0Y2lUhWrABTwVJSfZZR5T4Fy6guWEZ92ZWEmRPRS/lare7S9klq0BTHrIBTOz8mSN1ziAefffaZAqWoy9PPdwHziUcfUwpTVomJ2UeLtfsH6lL+jr9SYMqi6LLyO6goWUxD/VKyKm6kuHQJ08un8tHtDbAyFtbolduyoy2I3hY54r6UN2D3MSnHrPQ1u1rMsDaYnjUWpG/Wu8rKl1cP4sg0L5hgUik3HWLYkU0cohJlnrJRC2c/PkU2nmjwlOB2tUvzpLPU7TDVXKaisLqlTCsAmRxC58Qg9hYM4ZMMC/vTw9mbHMK+5GD+KptIUk3sTzWyP9XMfoGoROmlhrE3LYS9PwKYGoDlNWXNl7xe8MkjRp+P0y18PMzErvRBdI4PgWluJXluKltuIASacqOB7AKdJOHzIWpJtFqmLTsvJ/pz9FJ/eu4K4/jaYLra5Hejqf9TV7m5Of2c/nUjXWv8OdEWxs4Vucyau4Sqaa2UT7uP4tkrKZnVQnXzHyiZ+RCFc9dROvtBymfJOTswZW5Tndn38X+kDHu+AXNc9hImZS+jPnM+Y4cvojhxLEG+ERi8PLgiKJhXU1OQUHUJXN8ULRmyTrY47eyMdfKcK5r7k+K5PTKKcTo/Yi7qp6LjPH0MhEQlkzKinsLmeeTOXE6WAHLacgXLnKnLGNa4gLSxl5JUNwN78VgiC+uJLKjFUVSHo3Ak9rwqnIlZ+AZY8LeGUllXR1vraj7cuo19n+xj5NgxmP/1X7gvN5u9sTF8EWfns7hIPk+NV7Ojbw9N4YX0DFbYXTT7Wkkf7IP/Rf0JDjaQkhJDXkYi1UVZFA6LJ8TqRarHJVzvjOWt5Ew+Tc9mf4yL9+02dkSFscsewl9SXFwZqCNysCfhzmTs+bVEFdTjKBqLq2QymZOuYvjsZSQXjcI3MEgLlXc4eS0uhm3OILY4QtgaZ1dZsrK5ZFdsHE+nplDn64PR2xtLgJ3irMnU5cxT20qqf6FtJT8fMN1Ksw+a/0BNngxOP+37PD3+Ccxz2mTyI8ZKystvorT8ZirKllFTtZyCytuoLp/HNRMb2b+ijJ41EdAq5TwjHerNWN54RU1qR4OmANOsjkSu9bZZFVR711ihJYTjtwdw9DI/OhsD1YYOpgXR2WSmY6KUEgV6AgYpwWpHIKESfVRfT9TXt2Ep/T4JLuhpFujKCaarMZgvK3Tske0lqcHsTw1jX0ow+1OsfJpq4tO/A2bozwbMT4bKcusA9hX40T0pFJm5lMCCs5eevxui8jNxu4slAELbAiO7NENgShjHxvtzaIo33BRGz8pQuteFqh7yKVCeDsazf97TKi5nHd2tFj5fm8n1iy+jfsrNVE19gOKZbRTPWkvV1IdVlmzxnDYqZ95P5czvzpI974E5NnuxysUdnbuIMcMXUZI8nhCdA72fD42BATyfnMgWFYkXxeboCDVW8o5TQsWTuMsVR42/LykDLyFi0CBlkhliDMUYP4zcsdMpv3QZWVMWkDPtOgpnXU/+9KvJbFpI8uhLiauZir10ArYRY7ANbyBKgJlfS2ReNbaCWmKG1+PIGEF8VgmhiZlc4m/ggosGYAo0kpqaTnBEOPYLf8vjwwv5NCGRDyJD2RtvZ5fqtYax3RbBHlciH6Zm8/awIm5wJpDh4UPg4MFc0q8f+sEepAcYSPAagtnrdzQ7Qtkwso4v0nL4wu7iU1u02lu5wRHOe/ZQNqbEc3t4CNGDBxMW5cJRUI99xGgiC0dhy2sguqKJlNGzyK1rxl9nInzIAO52RvNmbDRbnCFsjQ5na5yNt6ND2eqM4sMYFw8lJVA4ZCA6yZI1uyjPmkJt3jxqchb+YuHrvxgw3eaac7j+1MAM9Ndx5nEr4F+rwpRybJlaIn09pcXXUlz5e0ZXzKD9itF80ZKtKZY2GU3QXLCda/WqtKegqcB5mrqUntlKPT2tFnolpF2NMATDaivd15g5NjOA4806mCpKyUzHBFluLHsgBRqiKLVEHw2eAlFRke5ypRua8py2JLl3ija/2DlREoWCOTbayu5Ufz5ONvPXjHCl+vYmi6o0sT9NFOFpCjNNgBn8P1KYSmmmWk+qSykF70mxsC/TygdpvhyqCYLJ4XQ2ylaScwem2wikrfrSyrGiMpEEpWYjB5q9OLZQgOdQRisZ6zkXWMr3KmC2BtC7JpAT96Vz721TmNg8n+rJD1A8415GzFpP5XRZGt1G+awWambcS7WEsP9aFaYAc0zWQsbkL2J04QLK0xoJN8UToPOn3HMID8fHqb2X251Sjo1kU7yT1+NdrA+3UerlRdCggfj6+jE40ISPLY6Iknoyp15Jzoz5pE6+nMxpS8iZcj3DJiwgpWEWcVXN2IrHEVnUQEThKKKKRmEfPgpn8Wgcw0cpaEbkVROVV0188WhsOVVEZlfizC4mJDYJgyUU3wA9nt5eJA3ozxP5uexPSGKnLYKdcXa2RIbxfoyDD1wOtjsFTsHsSnSwJTOdV/MLuSM2keaLB3O33clfkpN5MC6G3AA/hvX/dxZHGXnUYeHdRDu7EmPZHC+BAw4+lji/xHjaYqKJGjQIc3gs9sLRRI6oJ2J4Hc4C+beMJmJ4A3FFNfh6+jDUbwgPuuLYFBer5e3K+I0rirfEcRwdxW6Hi7b4WJIv6YeXzh9HWBo12dOpzJ9HZe5CalQ59udP+jnfgPn4o4/R/4ILCdQFqCQgvS4AvQQP6P4elm54Kmj+SkuylRU3UFV1LZUVtzK86CbKS29hatVYXrq2mK/b49QcX0d7oHojFhCeaA9EoKncsSfLfJq6FJXZsdpIT6umMLtXmehZZaJ3tUVF5x1fYuKbqT4KIPLGL1tNJD5P1n+JokRMLKrUakTKszJW4oaGBk6B5ilgisLskZD3iWa1tLprQhh7MwPYnRzIp0OlvxiEAqbqYZrYp/qOfSXZnwSYZq1H2leSlTGTPSlm9mVZ2JPpR9e4KJgcRsekQBUWf24K00ivyprVjE/iElYxg5NkH2gAh5s8ObIwkN4VEXS0hMLaUDpXGlRf8tygKZWCAHpX+cE9MfxpTQ2XzZxGzaT7GDH9YYpk5nLmGipmtah+Zu10AeapcuyZYyXnvcIck72IMTkL1R7GUbnzqBk2DUdwGv66QDIu7k+rSxYgx7DdEcV2RwQSMP5ScjyLTEZi+/fD4OOHh86KzplCQl0Tw2YtZujMhQqaubMWkN54BXE1c3CWNmIf3kBkQR0RoiQLRipQOkY0EJ5XQ1RhHfai+pPHUVRPmMAyvw5b0RiiC+twFVQSnZZLWHQCRksQzv/8d54dMZw9sS52SepQdCTvx8ex0+lgu13CASLYFh/GZlcwL9iDWR1sZoafPzW//S13J8SxISOJl5KTmOJMJLffBSyKNPF4dBCbXFHsiXOyLdauQuc/tIfwrsvJPYmJhA/wxBQWj71gDKFFtYQUVhFdVE9UoYB/NOb4DIyeHoyxBvBCUrzqVcoSbTH7CDDfcYUj+0F3RcXx+1gntosuYEiAnvioXOqzZlFRcBUVeQtOhhb83HOY5yUwL+wDpkTbnQZMcd2eeQSav3ZgVldeT3n5bRSPuJXa0uUsaqhm511D+aY9QgFTggq6W6ywJogT7QY1ktBzcqxEK/W5S7JS2lMKs9VKj/Q6V5voWW3SItp+H8yxKwM40uRDz0SDMq90Turr0zUJLPWgQgncwBRV5oamW2lq5U0x+0jCTW+zVa3LksXVnRNC+HKEhQ+T/dmXYWVvqpW9KRY+lU0mqQI3MepoilBSeP7nClMgbFFg3qd6oUHsSTWxN9PIp4Xyb3GocrHMjZ4bLPsUt1ptJqYnuaHQVLncUHQ0+/LNHC+6bw+mpz2Cb9aY6F4bRLdc/65/efZSrPv7JK2po10Pq3X0toay655cbr5qIvUT2ime/ggFsx+kZPYqysUApNTlfVR9zxzm+Q/MnEWMyRVgLmRU1hXUZ88iNjwbX38jjn6/4/aEGDbExbHdbmOnI4KtCQ6eTI6h2eiLY9BALHortpgs8hpmkjNtEYnTFpE1dxmp42YQVzsBZ8U4IorGE1lQj62gRrllpU9pLxxJVMFIpSgFlAJMeWwrrMdWVI+tsI5w+frw0UQUjiMifxSOAoFmDa7sEdhiEoj4zW94qqiQD+NcbI+WxdVRbHLa2Pbfjtgdjmg2OiJ5JyaUtxNCeCHZxi3hFppt4WQNvpipjjCezkziifQ0xlijyf1tf1akJfJuZjK74uzsiQhTNwgSY7cr2sobLjv3p2cQMSgAc0QqzqJxRJWNIry4mujhI4nKkzJyA/6RMdh9vFgQZeWNxDh22KPYGONgo5SK40Why+YXJ9siY7k2xoH1ogsYFGgi1TGcsZlzqSicT3nefBVYILD8tQJTQPZjSrJKYf4TmJRLP7PsRirKzzZKcuq5yvIb1dxlacmtlJfdztiyq7ijaTgH18Vyot1Kx1o9x9oFfiEqL1YcseK0lDlM9yymvPnK/KVAs6fNqow/vW1B0B4CojbXWOhco60D670piIPTvTk20U/1LzsnCDhN9Eo+rCgqBUyTWg2muURPh6YGTylHCjA7BbB9ZdmuRlnObOGb6hA+SPVhb4bMZVqUU/bTdHHNCjDFLesG5qn813MfRZHXkdfrU61qlEVz3H6UZuTjYTq+KjPBFBudk8x0y+jHOc2guvua8m/XFmerUuwkUdKBHJ3hTedymasM45s1Ro4I9FotsC703IEpLud7ZHbWSM8KE1894OLe5aMYN3EVZdMfomD2AxTPWaH2ZEoYe8XM+6k4rRz7vQpTNpP8bNtJzkwM+oWSfsZmL2J83iJGZ17FxLxFjM2+nHRHCb4+ZpxeHswMMvJmfALbnA4+lFD1xGieS4nhymA9rsGXYPAJJC6pgBFjL2XEjOUMnb6MtKZ5RI2oJzSvnMiiGiILRmEvrMNRUNN3ahU4BZo2deoUIAWaAko58nlkUS2RRXVEFo4honAMkYUNCpqx+dVEuDII/c//4v78XLUqa6fLzraEKLYmOnjHFsEH8UkKnNsdkbwvZiVXHE854niwqoHKACtlwRFcm5TGVGsoTk9vki64gLvS03jR5WJDQjwbXDG8Gm9nU6qEqYfxdnw0K2Jj8R/ihSFuKNEjxhJRXEtQfhkxJfU48msVzL0CjQzz9+Zuewhvx0pP1caGGCdbXZKOFMqWeEn7cbLJlUqTIZAQTw98TBFkxVYzMXse5blXUZE7n5GZV1F3HgFTUncUBAcPUQHq3hKq7uuH5MVKoPrZzr//27/x+eeff8sQK7OXXRJk8B0fzz7zDP/1H/+B1xAPLurXD0NAoCrNenl4nPX/If9fCWw3B4rTV48pwIi/l2+fu1Z33mfJVpbdRHXJzZSV3MSYhtupzRnNk4tKOdYuABQXrInjayV/NBhWiQtTA6M4ZeUoFakyS8WdqSUACTwFotrYggY1gpeLAAAgAElEQVTWTnlDbg9Wc4JHF+s50CzQ9AcZlxgfCGrZtJ4OUVVTrXT2jaBo4yR/D01Necrzp41rNIbQMTqMfTk69g6TlJ0QdidZ+Di5D5RuYJ4cKzl9Bde5zmlqoyWyiUTbfRmkKdahZvYM8+VInZWexhC6msxqZlSSeM5VZcrPQRQ0E8wwzgiTDByf6k/HQom+C6OnJUjNwUrCUpf6HZx7D7NzrYlj90gf1Ezv3SaO3xvMK78fyeSJN1I1tYWS2esonSMxeQ9QOf0JrXf5feHrfSk/pZIle74Cc2z2Ahoy5tGYt5SxWVdSkDAKg38EIV5e1Bn8eDk+gS2xseyUsqzLwZ8TollpCyfpoguxBhgwRSYqhZnftJDsacsZ2jgfe8kYQgsqiCwSE0+9cr66gWkvcAOz9lvAdMPSDcyoIinVihtVVOZowotGE1XYgFPKuqkFRA7x4obEeDYnx7MpOpwd8ZFslNSh+Gg22G1ssEexPdbGrugwFRz/ZkYGqzNzKAk0YurXH/O//SsZVjORQUbi/L0p9vNlUXg410dEcFuck9XDUlgVZ+OZGBsPJcRxeWQEfjodQem5OItGEVFUQ2h+ObbCGhw5FdiTc9H5+FAd6MtzybFqXvW9GBsboh1qW8m2uHA2xUTwloyUxCZQ6eeD1csHndFJYdJYxmdeRXXeQqokfD1r/nkFTM/BQygrKeXKyy9nxrTp6lxx2eVcOmcul86Zc9Zz2aWXcuDAATo7O5H5SxkrkQ/39WzM/MvrrzN96jQuv+wy5s6Zg7zGjOnTmT1rlnosz51+Zk6bjis6Bl8PbxV2Eegn69a0cZRfQ/h6VdlN1JRI2PoNjKq7mgmlDfzltmp675XwbglVN3O83azCC1gV1DeeII81YCpongnMtlPAVGlA8ma8Vt7UjWpzBneEcXR+IEcm+4AED8hmk6nSyzRyVJSj9OvU3KJbaWklylPlWXeZ1g1Mdx5rEN0Twvi00J89QwP4ZFgwH6UG83HKmfOY7jnM/wkwtSg8BUwVk6cB86N0A5/k+nNitJXeyUFqfZc4gtVWknNUmV3NVnomiys2CCZKdqwfxy8PpPfmYHrXhKibFfdNiRh+un6E6aezzcDRtf4KmFJyZ30gm1dVs+DS2xg19Q4qZq2hfNYqqmY8QNX0JygTWM6RFKBTfcxvzWGeHo13vgJzTOZVjBk6n6a8qxkzdB6VGVMINsQR6O1Dps8gHo2LY0NiApuiJFDczgank1ejEyi8ZAAmnR8XWUKILWkgb9J88qdcQ1bjIpyVTQQXVRM+QlSlVk6V8IIzz+kK83Rgap9XYy+swV5QT0RRA2GqPDsGW9FoIrMrsJtDGGfU805mGm87w3gvLoL34iLZHm/nTUc4W1JjeCcxnDdiDbwWb+VBh5FmvwHkGj2ors2nYUY9N7XdwrN/eoaVrSsoGp6nEoH8L+mP2cuDCB8fEjy8KB3iwQgPT1K8vPA3moguKNVuAIZLH1agX0tsbgXhUS5CvYYwN8TMxtQENjgkYzeKLa4Y3nWEsj0+ks2OCGWaanE4SBs4AKOXDqspicqh0xg9dB71+UupydHMPnV919ocyZNdpOYyZTZTgg1qc5dQm7sUdwasBBBU5y5Dru7nfsj1l+phXnLRxdxx++30dveomDvJhu3u7NJyYs+SCSsxd98cPqzSfASQoirlKvD8PoUpX+/o6FDf5/5zEnqgcmfPQtgDXx+gvLiUIQMGKWDqfHRqg47mnj3/t5VUld9ETenN1NZcR2XFHKbUNLBlTR2d7UNgTaDabHF8XaCWG7taht3FWGJUwDwbNN0K1N0jcwMTAebqAG0X49oIum62cHS2Dx1NvlrvUkZNplo5KqHiMpsp5Uc1wH962s2ZSvM01dY37E9TKF+WBbB7qB8fD7XycXooeyVgIE2g2dfHVCVU9/7KHxNc0KdGVRSexOGZldv24/RgdqcF8EWxga6JQarkLHmvHcrcdPq/4/Qbge/+/ESjZmaiKYjepkBOTPej+zpJUYqgq1WbhxVlqKUuWZEwAvfP/YdeJcygc60vvbIjszUYWj15b3UZy6+4SS2Vrp1xF5UzV1M9/X5qpj9C+ex1lM/5nuCC8x2Y42SsJGch47MXMyl3OaMzFlCXPRdH0FB8fHVEew5ghS2K11OSeMchQet2ttntbItOZJpRj2lAP4YYDJgShlLQNI+8adeQNXkp8bUzCBk+kvDhI3HI6EWBlFrdJdjTr6fKsH8PzJGq12krEDVXT/hw6XU2EFU0mvDCkUTaYki95GKez0znDZeTHbGyqFrLvd0ZI4YdJ2/GOnkpPYGVabGUeF+EbeAFzJ0wlu2bNrN1wxZ2f7CHPR/tZu++/bz15rvcuPwGRlXXYzIGk1JQQcNli6iccxnxBYV4+unwvtiX1KHDicwtU0Yk6VtGDR+FK7ec0KBwYgdfzO3yM4qJUSYk2eayzRWt5i+3xdvYHu3gldQkFkaFYPtvU1Wghx5naC61uZcxctgCGvKvVkAcmbuIkecRMC/u1581q1YpWErwhASoCzzlyOdnOwK8o0ePKkAq6MG3lOZZ+KdA6Y7Mk6+74SrPyWuceQ589TX1NbV4D/FE5yM7PfUYdHoVehDo73f+l2TLb6Jc1o9VX8uI4bOZUjedt1dN5GibN6zWwxoDJ9b5qdKslGV7W7VMUonLkyOzlqerTDcwpZSrDcuLa1bejLWg9s4WPWIYYmUQ3Vfr+Wa6J8cn+dEzxQLTwuiZImVMUWfuGcszA8rd6tJ9/bbKpDmYwyNN7MnyY0+Gmb0ZWkCBJPqcAqaUaN0q88cAU/5MkLbiS0HT1AfMIHan6fimJoieRsm/lZB4PR1Nskz73IF5fLzMmgbTOdnAkWk+9F5thhXh9K4JVuVvLfxeDFWa2efsoQXfb/pRv5t2A50rA+mVcaC1vmxbVcX8S29h9JSbqZmxivKZ7VTNuEdzx0rG7A8oyarw9fNRYQowJ+QuYnyOlGOXMiZzCaOyryDNUYpngIkwn0EsMOl5LsnF2y5ZGi3mHzs77NHckRCHvd9/YdHr8LKEkjlmOrnTl5M95WpSR12mxiykB+koaiCqQPqSfeaevh6lMvr0ff73sBSQilFolHKgRhTVETG8FnuB9DYbCB3RQFRyBpEDLuLuaDuvJsqi6xg2ySiJlGfjHOxISeXVYdksDA4j+oLfYQ3w5bcX/I7hhSX85YXX+Xjbx3z64accP3GcvR/t52+fHeLQl4e5645V2GJTWLr2CeY/8RrjH32ROY8/S+XlC7DqQjEaIwnOyCcmbySOvHrCxSGbXoDVP5BMj4t5ICWe920OdqW62BhvY7NTjD/SR41iV1wsT6fE02D1U0u6AzzNZMbWUJt/FTU5S2jIuZrarEXU5C1SqvJ8Mf1c1K8/K+6++1uh6UcOf8PxY8e+9dy3NpD0EdENQIGdG4Bng6U85y7fylWAKx9ydX9+5p87eOAgNRWVqgzrNcgTs96kYvUCVVj7+a8wK8pvZMSIqykrv4aSEfOZOmoJz984keP3CRBNsDqQ4+u9VARed0tYHzANfZsvguhdoykdccae7GGqPqfMZ54KOOhtMcK6YGg30SVZtGutsDKUE4sC+UYWTjeJSSYCpkaqEZHOZjHKnAbNvlnNvy/LCjj7VJrs3pxspnNCKJ/kB5wE5sdpoXwixp+TClOcre6IvP8pMCWOz8je9CA+Tg9S8XydoyPokfSipgC6phjokNKsBCy4/54/8NoxXoILzHwzVcc38/wVLFkbRscqbaynV3aRqm0xfTcnJ29Svh+Sp6tPDboWjq/Uc0y2zdxv4e0VtVx66d3UT71TZcdq+y/XUTVrLWUyZjL7u4MLvhW+fj4CU0w/YzLnMyZrCSPTFzIh71oasudRnDaBwQYrQXovxg8ZwINxdt5OimWDM5KdcQ42REfySFYaFZ6DiB00mAC/QOz5ZWTNXEb21OVkNczDWTgaR2G9GreIkLJqYYMa9Jdhf/dxQ9QNTDECaWXbkUpNRsq8o/y5opFEFVXjVCMp9YSVjiW2sBSbzp/p3l48G5vAtph43o91sMkVyfOxYdybFMdUiwWXTwDxycMYffkiknNLGTLQjymjJrBr1w6O9BzjttYV/OY3/8qOdzdz6Mu/snbtKpxJLm5Y+RA3rPszVz+8ieuefoelDz1N4eixDLIGEzosnwQxIWXXE1bQQEhcBmYPT8aHmXg2LZm9UQ62JUXzVnykytrdHBfJhtgIdsbE0B4dxVC//oTqfNH7hlKW3khl3lXUFF5LXeYyqjMXUVWwWAUYnC/AvLj/Rdx5551aYLqUSJGNXT0azOR6luMGpFsVHj58WH2/PP6uDzcc5Xr8+HH1bQJZOW7wnn49eOCAAqYYfSS43xxoUmvBtOzZ8x+YsqmkpOJaSspvoKL0JiZU3sKK6TX8ba3sUJSl0AEcv8dTxa51ttj79l/+cGC6odm1yqABWLJoWwLU+ilVArwjnI55QXQ0WWB8KEwKp3uSlWPNZmStl5bk44bNmSVZt8o8VdaUmUemRPF5sYmPhppVSfYjyXv9CYEpcXoCyL0ZRvZm6LVrHzD/mmeld7ydzomBdDT60zvdQqeoxHMFptxANFo5NjGAw5cG0nGLqMoQlbLU0yIqX0rjEqqubYmRHF/1WM3G/nBgIou/V4bQ1R7KgXUWjt0fzOPXljFx2kpqprVROvMBCmc/RskcKcW2UCKh7LMe/WE9TMmSPXnOdLX+1I9/IZeszGFKfmlD9iLqZDF23jWMzZ7P6KyZBFicmEwGUgf25y57FO8kJPC2M4JdcQ522W28mJHI5WFmYgYOxOinQxcZQ/6UeeRMW0bGxMVKHcr8pCjMU4AUxShK87RTVEdUkcxb1hGVX6P6gzLbKL1PZ+FYbPljsReOIiK/CntBNWEF1QQX1xNbVoPd5iBz0CBujk3kyfRsWuKcXO+IYEZwEJkePlgH+zGivpHLVtzD8sdeYs4NKwmKSsAaaKWtdRVfH/qCNze8wxVXzmP/J/vp6TxO69oWHEkpXNvyJMvvfZ1597zO4vte4tbHXmRoWT0+US7C8kuJLxiLI3s0IUUNWCOicQzoz6rEGN5MjGOPTdywkbwTF8XWeCfbXXY2xUTxenwcS0Ks2IZcRKg5HKs5harsy6mS3mT+9dRmLqMmaxG1udpIychsTWmqvqV8z9/1MKWPqQWnV+fJ9dx7mNW5S04Fr8trSfi69FLd4et9mbIqeF2Fr/+QLNlvR+P1v7Afd4vCPE3xCdT+kWIUuLk/pDcpf+b7gClfc0PTDUx5/F0fsj5sZFU1Ph7eBPpK/m0gAT7+qiT7azD9VJbfQHXFNVSU30JF+V1Ul9zGrJpxPLMshwNtuXS0RNLV7k9Pu5mOVVZOrDbT3SbmH0ufUUTroUmvUtyayrHZJmVYeQPXq0B22WTSudpAzyqBpZHeNgOdsj1DyrRrwuCmEI7O8ufEJJ0WVD7RSuekvq0ek7Xl0e6YuNOj4qTHearP2bcrU8IPmkM5VKtnb7aOj9LNfJwifczgvrESSfuxsl8Fp/8YdanNd34iCjXdxF5xyaYH81GalY8yjHxTE0rvpDC6JsnYi2ZmkgXaEv/nDlF3O39VkpHE5k2Rf6MWKC9rvcTo09McxPHJOg7P8KHzaoFalBrt6Vwj22DEcGU6uVpNuykReMrKLpO2Zk19LuvWLHS1BtOzVmLzguhokefk96Gnc5VWzmWNL0fXR7O7PZ8/3zWSpZdOp6a5jcrp91I24361NLp81joqZrVpCnPWdytMtwGodE5fluzPvtbLDd5fCpg5C2nIm0dD7gIaVElwKeOzFtCUdSmxjnz8AoMwe3twpSWEdxJSecMZzq4YO/sio3kjwcmdiXaSfX0xe/viFWAis66R/BnLSJlyjYq8iykcqYBp61OVMuCvSq2njY9EFdUrBWkfUUdkfjXOwpHEFIwkKGUEMQWjseWOxVk4RoNpcQ3hI6qxivu2pJaotEysPv4U6q2MNoeRYwgkxk+HYZA/4Y50xi24hcvvf46FT7/Ogif+zOJ7/kDV5Eu5eJAPlWXF7HlvO3T1cPxEJx098mbcxe13riA2NY/F655n/iNvctlDf+bmp15j9Nyl+JldhKUOJ6yompicMTiyx2DJr8FsNJM/qD+vJLtUks8uRwTb1Gyotj90mzOKrXHRPJGSwJhAHSGevhj00bhc9VQKpLKvYWTWtVRnX01t9iLqs91jJX2QdMPyW8AU4492avrC08XE80PMPt/3PfIaEsZeW7Ds5JFtJTWFS9TRtpX8o/D1bwOz3wUXsmLFCsUtN9DkwT8C5neB7qd6/tDBg9RWVp0Eps5bC5CX4PZfAzCry2+gvuwaqkpvpbTsbkrL7qBmxJVc0dDIkwvL+euaHLrbwzixUpJgzHBvFEfWWDmx1oqUBBG1s0ZKhFp0njtvlpZA5Ag0ZUmxAFUUqwZWE8fbjXTI81IGXGXl+FJfDs/04ERzADQFw8QIetUOSdlaYjhtmbT0NGVkI5hedQSsUr7Vvk+Sf7obTRwf58/+Am8+Sg9grwStp0hAura5ZL9kzaaEacHpaq/lOY6UpJjZn2Jhv/xZ2YqSHsnuVAsfZQUoWErIgIJjo1UBvWeyri/2TwB/KidXtrHI6Z6iZcZqEYFiFgqha3IwX0/34OgiX7g9BFZFwupw5TLubhG1qd20uPvEAks5nTKTKUuhZUH0WnlsobM1nO61kXRIru9qveZWbjHQtdJMj5h91nnz1/ZM/nDzRK6cvYj65juonv2oNkoy416qpq+jevo6qmaso2JmOxXfs63k74ILzj9gLqIhdz5jJMAgeykNOcuQMu2E7MsZPmw8Ot8wLAEGyr18eCIllb+olV42tsXaeCfexpMpCYw3BBEx0AM/g5mwvBLyZy8jfeo1pNROwZFbjV1i8Arqlco8OzDriCisxTZ8pMqRFWCGDy1lQJCTWHGiSo9QeqHDa4kZUYNzhKQFSVm3Hlt2GeYwJ/rBOgL+42JMAzzQeeowhcUx/qobWPnyZubd/wKLH3+Vqx56keue/DOLWx8kxJXKwEFDWHP33UhZTnTM0RMddHR2sHDZchxpuSy+9zmueOAVFj75OgvXP4F/dCoBkak4sspxFFYSn9ugjiW1ALOXNxOCDLyY6mJDnJ3t0VFqnddOp51djii2RoazKSmBuxKjyfIagsVPj8HHQXn+XKpE4WUvZ2SWHFkcLa7Yq/rCC/4JzJ8Kjmd7nV87MCvLb6am8nZKS66ntPx6aqp/T0XhddTlL2FK4VjWXzaaXWuG87d2Bx3tftDui5TxulfHKFfmiXX+dKz3pKdNdmRaYZWYUsJQYw6qpyZQtWjlXZnbVAEH8qau7dBUKrMlCO4M4dg8Xw42edHdbIbmMG2Nldqj2QcUtRtTkoGkVCvGGs1cczowZXxDoNQ1MZDPh/vyUUYAH6sVXG5gasEFAkyJzpMwg3MOLhBYpohK7Vsllh7OnnQz+/ONJ4GpLYGWrFspJwcoYEp+bm+TkZ5vZeRKkLykGJnokRCGKUGcaDJzZFIgHfMD6bnBCHeHKWes9nMNVgr/1AiJ9C+lV9znXhYnc4vc0FiQhCa5WZGfce8aCSew0t1moaPVQKek+6yX/rSdPe3lPHzNKC5vnkDdpKVUz2yleOb9lM68l4oZ91AlcXjT7qNq+n1KdVbMvPc7S7K/AmAupiF3IWOylzA2axljsq9mjOTL5sxjdNFlyi0b4GvFOWAgC6LCeSs1mXfjbLyVEM7m2AjeSEni+vBoEi8eRGCgAS9nAjnTFjB06jXkTLyCqNxqVX4Nzx/5D4EZVSRqtA5nYR3mxHx+GxDEsPoJJNVMwl4sCUA12PMqcOaPxJk3joicBmx59Thyy4iMzyQ6Jg1HpAtDiJORly1l+WN/5LJ7nmPRw68y776XmP/gKyx87I9c/cjzjL5yMf0u8SQ3M5vdu9/npZdeZHJzMx/t2cPym24lrbSGpQ88yxX3PceCR14kp2kOPo4kwjOKcRTWYBtRQ2zhKFw5NVhsCUQPGMyNsdG8lhjHZrUjNEopTNkjuiU2jI2xDl7LSGeiWYfDcwg6HzOJEYXUF8yjOmcx1TmyzmsZ9VmLFSir8ub3mX5+WWC692P+U2H+OhRmRfnNlFXcRknpdVSUX0d97R1Ul99JdckK6kqXM654PLfMqOTdu0r4oiWW4yt0IFF3q8PpkLD1dQEcW++n8kgRtbJajEDBdLYF9W03MYOEsPfNbQowxXQipUNVSlTGFXkzD4ebrByZ48uRyZprVim1RlFrmsNU0nK04567lK8JPE85UDsmGehtlp2RJg5U6lXqjox77JOjUn7cYemhPx6YqqRr5ZMUgW0we9ND+Wioia/KZFF06Mm/ryhh7e8WqCUZNQrMpe/qDpKXZCOjmjntadRmNY9PNnBsiqT5BKhSNXdLwlK4Fq7eEqzKql2SpnRyjZeUZgWKouKlxCqlci1AQnaVyhGV2S0jQmv10B5IR6ueo+vCOLA+jm2rS1i9ZBYzJ89kbPPV1M1tpWRWO8Nnrad01vo+YEpowYNUTn+Aihn3UXEu0XjnncLMXkxDzmKlLsdlXY0cgeeo3IWMz5/PiOTx+PnaCBjiRbbOgxdSUngj3sGricFsl9lCl4sHnYmUefpg9vFhkCWc1NEzyJx6DQVTFxHZl+QTIe5WCVs/S0lWvkdMPZFqTnOkGtcwuHL4rZ+J/LGNZE6YiaNCws1lprOamNx6EgqaiM6bRGTeWGzFo4nIr8aeU4bObMORXcLcdY9xxZN/Zu4jr3LV/a8z/75XWfTwX5j78CvMf/xl5rc/RHhsKr7e/tyzvpU1K+8iLtrJhnfe4colVzO0ehRXP/QMSx99gYk3rcCYlkdQWq6KwQsprMFaVk/oiDqihg4n2BBC+WAfnopPYbszRlsLJkH1cZG8kRjOK2lB/DE9jnviE4gf1A+zvw5doI2arKnUZVym5i6rc8Xks5iGTJnBXEBF/oK+ecxfDpjuWU7phZ4OTG0n5j9Lsno/AwY/M+mJ1VSNuPb7T/G1VBdfR3XJ/8fee4fXXZ5p/vvfzs6kYbCtenpR78W9ylbv5XQ1W26qltwx2NiyJTdcwIVmq9uYEkibJJPZTd9MdpJJMiRAADdMSQIE3NT1+f2e96tjjAvBbCbDDjbXm+85R0dHJdd1bt3Pc5c9+MS2UbaX26rqKtt3+8//NPVeIvpx78PtPjBeIv0wZc6HKfE9SnH5oxQ7d1Netp5dyxfxsz0+PuhYqOXKdk1iuMdIvzCZnigFfnTpoTtUgaeK0FMlxSIckrGtMCEtGUizoXz4Rj8oHxeW2RHP2C47H6wKVq0mWn6qxiJvBM0PhT5q7ze+zxyqlXzZMGgIp786gvM5Rs5KsECatq/0R+Np5c9aoMHtMkytlFpyarXXPZcWqfJjL1fKGDnyGsD0g7l5PPpPREvCJo2MNBoZbZDHRdwjQGtnYIWJS/U6+tcZGd1m01SxEknYGakC7Ye6wtQfIQKAYt+RPzzkDxAt19d2tXJNs/6Y1ONDXVFc7olVO2O6JkLnlxjrtfL+8TR+ctjL/vtbWNr0KBUtx3Gve5aitc+Qt7qP4rW9ONb0KsB0tzyLq+VZHKueUTVfztW3Di74r88whU0q0GxjcVY7yzLalb2kOmebUs+uKNhCfFgmBkMYEZO/wo7IcH4wZxq/mBbNK8mxKjLve7Pnsjoigvh7JmI0RDC9oJqs5nYyV7US51iirCCyt7wVYMZJhmyRAGq52lOKUMg6I4cvG6LJrWokr34zKe4VyteZUlpNUm4V0/JXMK2wloQcaTjxEJNejC5uGqFGO87lDez6xj+x4ZnvsuN7v2bLUz9jx9f+ja3P/SvrnvvfbPrGT9j6zHeobrmfyUEGnGXFvPbi73j5V7/h4p8vULdqPflLGtj97LfZ8cx3mO1bjnlGOgmZJSQXVRCfW0Fq/hJic3xEzlhAeEgITRFhfG/ebCRo/aWUOHVelDq0aTH8fHY4z8+bwkqrlZiJd2M3RpKSVEBV7kaqFm6mPGu7YpkSWFCdqYl93LmtCkArrt1d+m9fDS746+0wNWbZjjdXjgaYV0U/qkRaA0xvwXZVLv2XC6Rv3GE+8djj4xaSMS28YAxGPibm7mYj1L/2Yxf+/PneYbqce3G79+DzHMRVehC34yFKHDsp8LSS79lBiXcvPvfDLC1Zz73Oap7bsoTXu4uRMANhOaOdWuqMvHlLi8lAn4GBXqO6PSJJQapvUXaZwoK0dCA1olWiFa2AeqDLzJB4M7tj4JFoBrcZubgqSPkPx8bHrtpe0M80ZV+pjWmVCEiBpcY2tUQdu/Jxjq2I5Y9FZs7MN/N6mmYjUWNYVfosgeyfEjDTInhjfgRn59o5lxbO2QVhvJ5tZmRpotqtXmW8KkxBvmfJyZX2ET9gagxT8nOlPFsBZp2d/lojF5pDGJLKrsPRIC0kYtfptDHUZWWwy8pAl+TGav2jNwCmYplm9TtXoqDOCCX4kUCD4W4Dg10hXOqycfrYQr57oIb2jfezpGE/5auewtHyNAVNJyhZ8xSu9U9R3HQMV0sP7pYTuFqeUWrZ0jVPUrq2i7K1vZ/fkazUe8mpytlOZc52lmeI6Ed2mW0sSttCS9mDZKRUYbGmoAsOoOCuL/P1BXNUo8drqYn8e0IcP5s7i73Jicz80peJ1oWTPK+Y7OZtpK3aSpx3hcp/9Stlb8YwBTCTSmQnWU5crrR/aCPZyfZUciuaKW7aQbKrAVuOj8SSaqIzPSRmLSIpbzEJOT5SCz1My3MRZIvDaLIQPXUay9p2seXkN2l99gfsfPZntD71U7Y88zPufe5nbHzux2z/+o/Y//R3MEQlERcXy3e/9jXGLvZz8d2LLK5twbvqPnac+Dr3PX6CoIRZhM3KYmaJ7Fq9TAoacSgAACAASURBVCmoYVbmMhLSnUQmTSV+0l3sSInlh3On8qtpWkvKi2qHmaiqvX4xI4ZHZiYxc8JdxBmthJmSyc9ooGz+WpYV7KY8S9J9tuHNaaVyXBXrydGY5X80YPqBUrFLBZbXAWZBO1512lBgWbgdT34btwuYUrl1M8CUwIKPeC+vTf35NOh47ed/gtt3AHMvbudufK6HcZcdpLL8CB7fHorcm3FU7KbIuZeS0iOUOx5iUelWal0NdGxw8WZfNhe6ZzHckQjHtN2ksMrLfdrubKTbDF0Sr2e8qt4UxaawSzU2lDB29cZvZahP22kOyqhXQOJwJO9vmMyVJoPaAWpgOT6a9e80G6X2yqwVLCvAFIFNuNp/CoiOqj1oPO+Umjmdpueciq+TPaYcDSj9TPF2GeYbAphiI5lj5/UF4ZxZaOF8jh7qEtVu9SpgSjm28lxqPZ8fAqbWvCL3FWBKQHu9jf4mIxfXhzKyR4IepLg7nJFOM4MdRuSPioFuC/1dFgZEsCNB911aTq8/BF+NZDvNSkEroiBRxao/UrrM9HdauXRiCm887eb5A8tZWbcS19J9VG34JmUtz1DU/BTuDc/jXH2SorpjVKw5TvmqPjwtx3GsfgoBy+J1fZSsP0bZWunGvHk03meSYcpYeMl1pyazFTnLMrVCaLkuvcnxA+S112WZrVQIo8lvZUXGNnVkLLs0czsrsrdTnbaOhIgFBIcYmKEPZo1Fx8+mpfCbuDhOT5vGb6al8tTsGZRMvIe4QCMRyfNIq72XhWu3k1zZxLSiRVrgwC1GsrF5PuSkli0mNtut9p7RaSUEx8ymdMUm8mq3k+JsIqZoiRrxphQLWMp4V8INvCTnlzEz14EtOhWdXkdAaAgTzTaSMgqpbd1Pe/fXaT/+XXZ+9cfcf/IHbHrmR7Q+9xPanv0+FetbCQgO5YEN9/HH0+d5/08X8SxuoKHtAHuf/hbWuTkYkueRmuNiamEFMfk+EvOqmJ23jIT5eRiDQygKmcSJman8es5UXpiRxK9SEvjN9On8csp0/nXaDH40NZWlFj2xJj3Ge/RMi87AnbMeZ8b9VOSKKrZdhRZou0wZzW6nIst//mNHsgKUnuw2vEoZqzFMX57YRjRbiQaWAppteAUsPyVgTvjyV2jf3sbrZ89y6pVXOXfmLK+98irnz55Tt+X+9efVV15VFhJJ+7nWTvJxNpH+y1fU6549dVq93pnx69nTZ3j97Lkbzu9e+C3OklL0waHEhEcTGhCC1WjGEBKKSff5SPrxOB7C49yLx7lbHWkwcTsexll2EIfjYRzOvTjdu3F5dqmz1NHMw8tr+Pf/P6T7va7ZDHeFQreFQcma7ZnKUGc8o51ifzAw0qlnSO3UJOtU3uD9gCngKRYVqZeyMthrY1A8mtJycjSSwd2apaK/UZJyrAyuMDO4zMxonZUx1ZVpYqhRjkXtCQUsRQQkFg5awhVQDS8P50plOK+LvWSeWe0bZeeoAaTsH8cTe1RU3idXykpl2NnZNt5cGK2A+FyGiUsVUQwu1QqtJWxAO/6dqzBLrSDbH7wgu0zFOuusjNRaGGg0cXm1DvbKzx+j9pCKlavoOrOqVBMBjyhgRQnrZ5fyO/QDpgohkO5R2XUej+dSh4kREWP16LncNY0XHnVxcNt6lrbspKilB9daUb32qCQf52q5fVwBpK+5j4rmXsqbe3Gv6qN0zQlK1h6nZF0vpes6cazt+TwDpoDsVirytuLNb2W5AGa6Brp1BXuomn8/jdmtZE3xYAyOwKoLJTvwHrpTE/nV3Pm8nDyFVxPi+Oc5M6kzG4icHIglfoqq98pdu4Pp1auZWlRNwi1EP6rKq7iaWGkyKalSthJhmHHpDgLiZlJUt5HculamOBpJKFhMUl65Cl+Pz/ERX1Sp7B0xeaXMLKkgdWER0SlTMUdEYbRFEWyMIMgSxZSMXBat3cSunufY/eQ/8eBXf8Ku5/+FTU//gA2PnyQ8PoWZ02fx8m9+y6uvnCG9yMOGA0fJXNzIxNhpxKUXk5DlIjHPxxTXEmILRPnrw546hYiJd3FvuJ3vzZnNzyXwff4c/nnWDJ6fN48npk7nwYRk7rXamBY0EYPFiC0ojNL5VbjSV7HU/SClCx9QgKmxzO2aYlYAU6llBTT/BoApYHkNYHrHAdMPlp6CdjwFbRpYfkrA1AWHkJyYRFFBgTp5Obnk5+ZRkJdPbnbOTU/6woV88MEHynoiyT3yT3yZH+fD/PEPf0RmegbZmVlkZ2Sq15evlZWRedOvkZOZRUJMHIZgHfognYrHE8C0SI+m/r9+cIHUfzld+3G5HsTtEsDcg8exT9lMXGUHcQpguvbhkM5Mj5x9+Bw7qSm6j201FfyvvW7+0JvGle4k6I6CjihGjtoZ6tBM9WM9YdAVpdV+dWu1YH7VrICnvPELCPT3mLncYVSfJ8yKx8IY3m7hYouOy40GRlfaGVxuZmi5ibFGm7JjaIApLFN8jgJWEQw32hhbKV5GqQwLZ6gmgjfz9Jyeb+LcfKn0kiMeSvs4cN6+F/PcvDDVs/nGgijOplk5n23kSlUEwyu0oIWPAqaMjgU4tdCFUQWcMp6V70+zmAw2GLnQFMzgA0Z4LFYJp5SPVXkpLcoeMtgjPaRWxNOqxQ6O7y/H95jye1SK414bQ09of8DQa+dKZwzvdM7jpwfL2X/fSmqa9uBec4Li9d+gZFUPzlUdyiqiAHOVAKYoYk/gaz6Ot0UsJL2UrpUjwHkc5+rjuP5f22H+dRmmAOYWqnK3Up7XqlipsEwBThGgLM3eTn3GVpbnrGNOfA73BBmJCZhEnd3EN+ek8dtpszkXId2P02mNjyZs4gRCImOYVVlL8drdzK/ZSGqR7BnLb7nDVD5MEQfJfjDPq0aycRkOJiZMJ79hPTn1W5jmqCc5fxFTcn1Mza9QY96kshqiSiqw55WSVFKJeD6nZBeTPDuD+MRZREUkYjLaCNCHEGQxEzNjNr669bQ+8jS7T/6QHd/8P2zu+xYFnkVMnBzErh07+M4//y8S5yxk0YZtTIyeQsS8PKYXV5BaJOXWYmdxk1DiJiw7mwBzKIkT/oHDySn8YN4CfjpzDp3x8bRGR+GYPImFQUHMDAkhceJkQoImEWy3EGNJYFZUJuXZqynNWIczewu+rHZtLJvVhkeAK1usJRpY/q0B0yNj2WsAUwPLdjyF/3eAGWa1qTovXUgoQQGBSHuJ1H0FSN1XYNBNzxe/8AXeeuutqwk9ApjXtpYoBL3uf77xta/zhb//B0KDgpk8cRL6UB0C1rqQEPQhoTc94rmUeq/QwBCVJWvWC1hKsfR/fcB0uvZS5tmDw71HgaYwTa9DzoO4HPtwOPZT5nwIp0saTR7C49qvejNLHU/gKd1Io9vNc9scvHO8mKHOOOiRcaKR/g4TVzrsDEmgd4dYHTRVrIwNNVYkGbRaWPhQtzAnC1c6DQwcM2pqT+nSPBLNlc1GPmgJYahZmKSVkRUayxSmJiNZ7QgoSV6r5Ldq+001km0KZ6xWSqUlwEAAMxopjtYAU2q5/PF4n5xdyuecG2ekIvaRdpK3C0wM1mieSxnHfgiY/j2rnSHZuUpIgQBlnR3qNCWvfP+Xm0O5cp8O9tmgS2w5Noa7hB1q0YKiJpbfkQaWNwKmgKWMaAVQL3SHMHZcr1glvQl80FfAt/dUsrG5iepVh3Gve56ilucpWfVVXOufxLNeAFCA8AROZSMR64hYSMRSIsKfHkrX9iiwdKw+iadZU8t+jkeyrSzN2kKNBBiISjN7O0uyZJe5jcr5m1mRt4PFCzezsqiVqoxGTOZUTEEGpk6+m/tiYvlZVg6nYiP55YwpPDE9lfhJEwi2WJlSWk7pmt1krniA5BLxYd7cVhKfX0FMrpfk0kUkFVdpoh/pwMxwMkkAs3E92fVbmOpoIDl/MVNzfMzIr2RqfjWJxYuILqkkvNhLrLDN3HKisxxkeFeQWbyYKTOyiEmchs5uwx4Xw0Sdji/eE4ohYgpZ7lo2P3aSx7/1Q+5rP4DJZic1JYHNWx8gefZ87FPmExyRwpyiclLzPCp9KD7XQ9T8XGbmlhA3dSZBE77CQpOB/QvTeSA5iSVmAzMmfIHYe76MccJXCAmYRGhwMBP+7otMmHAX//0f/gdGnQ1zYAw5s8pZXLyZyrytan8pwh9hmX6m6R1vJ/lbAKYEJ3hy5bSrcyvAdBduR45nPO2nynE/MfZZmHXSJakxMrNOS8uRxByzTkBHO7qgELS4OaMCSpvJjNUko0+d6qyU3srrj16n44033lCA6QdLP9O8Diev3v3q088w4UtfwW62qNezm61YDCbFGPXBIVx/ZPRqNZqwmaxYjRaV9GMKNXxukn6crgcp8+zA4d6LU6X9HMDl2oXbswWnu1VlzDrLDuMqewyP4zG8Ap6e/ZRWPIS78hE8zu3KevJEcwnnukq42JvI0PEIBrptXJGgAmGd0qcpY0Qx13eJOlbEQhHqiF9zRPZxfWGM9NkZ7DQxKBaIXmGmMfBwBBc3hnKhIVhVgNEYwegKbZw53PAhYEqMnvgzB9UI16SFuTeJnzOKi14rr2eYrwNM6/hI1j+ivT3QPC87zPkCmFbec9oZWR7BmID11XGslt6jAFx9X1YGx8fHEshAbYQCz/4mA5fWh8CBcHhcfmZh3QKK4qscT/NRu175g0M72u/wQ4bpB0wJg3jvhIH3us2M9E3hrQ4nJ+6roKHhXpxNhyiSDNhVx3E1dlK9pg/vBgFPeewkAoZlq+X6lLov9hFhk37AFIuJPM/b/Cyelmc+3yNZ6cOUPeZSGQPmtlOd3cbyjO3U5rRTkXY/i/K2sSTjPpZmrmPBTJ/KP7VNmkR2aAiPz5nOv0+J4t9mpvL1eXNICwrAoDcQn1VEcUs7WfXbSHHUjBdB39xWEpdfTmJxFTG5buJzvUyREW6mi8nxMymov5fs+lZSnU0kFiwhNbeCaXmVpGSXE5/rI17SgcoqSSwWFltFQvFiEvIqmZpbzdyCambluEhekIk5LgFzVCxmewyBwRYCQ6xMCDIQN30uzso6kpJTsZpCsdlNhEXFYopMYU56CXNldymAmedTY9m5BW5SZy8kMiqRMIOR2TYbBQYzqRMmEBswGePkSYQGBBAXHUt0ShIP7NrFqdOvc+7UKQ7t30dcciqTAy0YAuIomLmYysyNKjNWRD8CllWZ25X/8m9lK5EdpgCm+1rAzG/XhD1qFCvjWI1h+gHT/SkAU8BSmJw+KAS7yUKYxUpIQKACMpNOAOrGEzB5Mm+++eZVhins8i/9+8bzX2PCF7+sAbHBqH3NYGGORgWMAo7XHwF1GcmqlpJQ+Ryp+Pp8jGTVvlJyZF37kFzZMreMX/fgdO/E5dyJ27Ebj2OvUs+6XAdxuA/h8B6g1LObUs9hPBWP43LuZoVrBfvqyvjFwxJykMbIiXiGJNe008pQh51hyT6VN3KVdSqgIIIUOeGMdUtLhh2OhzMs41kZzap4PfFvRjOy08qlllC1u5Q2EumGRHZ/44ApPZoCmHIGGkwMNpigOVwFAgjADtdE8VaONIpEj59wzqVZVMPI1RHtOGvUWOfHg6eMZP2A+XpGGFcqoxmrj1D+Sr9PVIBTWKVilg3hqutzoElYchjUys8QpXavV1oMDG03wTFRxEpnqJkhFSkoYKntfK96V29SzC2gKntg2WuK6OpCbxjvnVzIrx5xcnRLA80rH8C58iila05SKIC36jiVq/soq3ucgoYuPBuew71KGGYfjjVyPmSazlUn1GPCMMvW9CoW6ml5Gveqpz7ngJm9hbr07dQt3IE3byflueLHbKNW3sDTN1NetJ3FmZupz9pMRc46UqPTMYUYsQdMwG2+h+/OsPGz6Qn8YO583ME6woNCiZqfSV7TNjKb2kj1LCNeAG1c9OMPXPe3lUijSVhGGSHTM4hML2VKURUxC0oIjJ1FUd0msuvaSXa2EFu4XAlupuRXMTWngtS8ClILK0gp8pGaX8F0EQUV1xBTKAC9lISCJcoCkpTnZmpeGUlzM0iZOpdwawSR8sYZOBFTcBDBukgMOgNRNj3Bk+/CarYRGzudlKR5TJ2ZQ9iUhdimZ2FKSSM2eRbmsDgC9eHoDBbsBjPhE4MIvHsSX757MqlT51Jb00jfkW5++et/5/LYKJcGBuHKgFRpcOJbzxGeOpWQkGimmhayLGcjvpwHlOdSAHNxuvRdbqW0YDNelSf7H7/DvB4wPfntuPPbNKD0g2Zhm2KXCjQ/BWBaDcLizMhVAEpASa7ymJ+FXn8VwHzvvfdUA4nsLSVG79pYvZuB53e/9W2+8oUvaq9tNKMLkmJoK9I+IsXQN5wQ2VuGKhZqlC5Mg3w/xs/NDlMEPxUlwhT34vC0U+zdRYn7YRyOo3hKHqW8ZB/lzs24PZspLW8jv/wRSr1HKHc+qIIOHN6HKPA9TrH7CD5HO62LlvKj9hIuHktkrEuYopGBnhiG1K5Ny4/V8k01wByVXkcpPz5mYWw8zOBKp0kpZ690GLSUoMPRjG2WPaAZVtigNuwGwBxsFHY5DpiNZmiJpH+5DhoEoOL5Y344Z+dHIc0lYgU5t8CiBaj7d5q3AZhiJxHBkDDMN7MEkBNQwNygV5VeAppSgi2CJAWa9REMNNnQAFPYZTQsj2GkwU7/GiMcjISjdoZ7zIyesDLQaVS7XRlZqwo1lZAkf2R86GNFRFXjebIyspVx7KD0YT6RzC/3ldJ27xrK1x8lb8M3yFv9LK5VfVQ2d+Bb2Yer5SRla57GIeXQqx7Dt6oDz+pjONfI6ca1uk9L9FHM84Q2kl0rTSU96nU+5ztMsZWMq2sz2hS7FEuJjGVFiSvK2+qcVi0uTwIOcrdQtqCWSGMShiA9c4whNBsn8s0Fc/n2/DQa7HYi774H25SZFDZuJq+xjdmeVSoaL7bQpyq6pCMztlg7EkYQnecgKqMAfcpMAiPiiJ0xh+iUaUw0x5JX2UTRsg3Mc9cyx7mUuIVFTMkuIzWjmKS0PBLmZRM/J4OY6WlEpcwleuocwhKnY45OwRCRgD4sDkNYNAZbBAazjfDwKGxmeQMNxarXYbNYCDXZ0Ov0RNmshJvMhFvDsVgjMRptWKxhBIfqMJptBAbrMZrsGAxWAqTZwhZGkOzigkJYuqiGkyef5te/eoGLf74IA9LEASMqLFxKk0dgsJ9LQ/1s27kbQ2g4xolRVOStpCL/Pipyxdqzk8oMLRrPk7OJ8uwt/MeHr2vF0/7yac1e0oYnbzvevO3qKjYST/52zVZS8OlsJdp4VgMiYZpyNGHNh2Pb6wFTdp1/+tOfFMP0A6X/ejOwlMe+9bWv8+W//4J6bWGJauQrbPGa8fC1X0djtvK9mDDJOFkvo+S/zg7TU7Ib/3GXPnj7QQS3G17wKYILJBrP43gYYZoynhVxj8N1AJfzEO4ysZrswyNM07VLiX7KPA8jR8Q/Tvc+XJ4DlLkfpsx1EI/nAItdm1ntrOLJdeWcPebgUl8Ko8cnKeCkO5LBDovyFI5JvddRAQoRucQy2BXBlV4bl/tEACSsKVwFhY+KAEhZTWK4siGUy8sDQJSwK2xISEH/CjMD9RZETDNSZ9KSdMTz2GhnpE6CAWRfGMUHnjBeSwvlzcwoXl8QofaQZ+bYOadqvj6eUd7AOtMiOTsvnFdn67jsimZsSeT4TlLsItreUmOXH1pfLjSEcqXFxOiycKiLVYKk91smwSORcEwKuc1qDDvYZ+dKj00FQmj1ahJrJ7adSEa7hYWKP1OUtGbGOoyM9dm53BOhfs9/PFHMyV2r2LhqE0tW7sOzupuSVdqoVVikV5Sxzb04Wo7jWnMS15peypo7cK/qUWpZv2JWdpoSiSdHdpsOYZ+r+xQLdclId/UJlfYjr3HtLlNuS5yespas/QyFr/91RT+aD/Nam4n/tt+qUpM5/pzs7UoEVJN3P/mzKzAbYjFPDmZh0CTW2q08l5/PxpRk4u++B2NsIgW16ylq3sEc3wbi8iS4wEN8oY/YonIFmHHFFSQU+5hSVs4cZzmJaRlM0hkxmM1YLGYm62ykF5aTVVpJeMocTHFTCE+dRVjydELCogk02pkUYiQg2EBQiFHZXkKDQwkNDiEkKFgJSQInByhhyT0T7mbi3Xerx0T8Ic+R/aJOpyNYH4rJYCTSFs7Er0xk8qQQ9boTg0KUTcVuCsUaGoglNBh5/cmTAgi325WoZMa06fzkRz9WRcgjQ8NSvsjI4BCD/QO8ef48v3/pZd5/78+MjojKUysw/sH3f0h8TDIBE4zMTS2iPH8dVfmtVObsxJe+nXJRLassWQFMyZWV06o1lXwkfP3DoHUFdDntt91WcrMQdn/4uqT9yFHgma8Fr0sA+6cJX78WpD7p7cCAAN5+++2rrNIPlnK91b9vPv81viSAOS7c0ZiljINvDczq+/nI7vWvAJjXJQF9VgFTVLK3Ok4BYMc+pDNTnuN2yTmg7TC9ApjafY8ArPshnO6DCjgXefZQW9LCo41uznZ7GHg6lisqoD1MjWZlRye7Oo5GQXciox0SsxfJld4wBZoqwF1M951hKtBAEm7ojGF4l4lLzZMZaTJAnQSZhzNYa2ewTiwbZkal7URsJ9c0g6hGE6nJqg7jVHoAr6fbNMCcF8npWTblp7wBEP8S20yL5PS8cE7NC2a4KhqWCuMVMY/E3mljWNlXKp+ohKs3mLncpOdKswlk17k8jOFVVoZ2GTUG3WlBGONopyT5SA6s7IAjGZU+UokblN9Xt4TdRzHaEcfo0Qj1fI5blL/ywsk5nO110Xmfi8b1j1Ba34lrZS/ulj7KmrpxNfdpp6UP5/VHAtUFBG/nrD6Be7UA7q0BU1pL/tvfLBZP1Kkf01bynw2Yy3O3sDz/XmamFKILtBE+aRLzJ0zggVmzWDdrNomTAgk1h5OxqImCtTuZVrORWKnqyvWpHNjk/EqSCyQztkqNUhPSy4idnUNY/AwmBpkJCjail12SwY5ebyMg0KBOYJABndFGiN5EZFQs8XGJpCalMiN1GvOnzyZjznwcJaVUllfQWN/AffduZHvrNna2t7OzfQdt27Zx/8b7aKpvwOt2s2B+GjOmTSM5KYEIexhmgxWdPoywuGlYEmZiT5xOgMGiFJYxYXbaNm9i/979rGxqVgArgPs/v/c9xPunypAvX+Zff/5zdrS1s2RxDRvWrVNRe2LOHxkHzKGhQd56820K84rRB9mJNE3Flb2SqnwBx+14F26jPGMrVTkPUKkY5h3AvBYo/bfvAOZNovM+BcO8FVjK47cCTJd7Lw7vHtzufXhdB9QRwHS4D1LsegS3+wjVzr3UFzewa1E5P9y7lLd70xg+ISNWM0it1NFIhqQqrDdCjROVJULSfpSiNkKpa4c6BGDtDAhwCLt6PIbBrUautIQy0miBJhHaRDBcZ2O4TlimP1FHC2DXmkHktohyojmfq+NUmoHXF4qVJJIzs6y8tXDcZvKXQPKaj0sf5ql5ds5nGRldEgu14YzVWRmqE1+oiHtsamcpI1lV4SXst0msMFaot3OlXsdIqw16Uhg8GsXYsQStjUQF14uqWFhnNP3CyHss0B0IXToFkv2dyVzpiGdQWGmPiZEnU/nN4XyOPLCKpQ37cdU/QUntMbyrTuBd/SSOph6czb24WmQUewcwrwYY+Nngpwku8DPK66/+17yeYS7N2MqKzAfw5a1jekoBxhA7sZN1zAvW401IITYgmBCDhbneGnLXbGP6ik3EFtWQnCt2kCqS8qtILqgmWQqY86oIm11IQOR0AsJSCI1IwRiZTKglGpM5jDBbOLNmzaGszMmSpcto37GTjs5Onn/+eX74/R/wwq9/w/kzZ7nwzrsMXryk2N3YtekxI6MMDw6hEmVGxxgbGWF0eJihgUEFcufPnuWfvvUNGlbUERioZ8qcbPIqG8hbupaipauJnDIPozmMubNm89bZs6ro+OyZM8rXJ/aF7333n7j4/gfqtR7cvYc5s2ZRXVnFP37zmwxc6VcpNmMjMp4dZXR0mOGRIS5fusTGDfdiN0Vi1ydQML+Gyvz78WVtxZfeSnlGK1U5W6nM1mLy7jDMsRtY5h3A/M8DTAFKl+dBhFl6nQ8r5aywT4eoZ30HKXEfxFv+CJWudhYVt3Dfkha+2ebj7NGFXOmdAb1izNcz8EQwQ91mxaqkYUNLANI6M5UiVHU/hjMk0XDSttEVw9ihSGU1udysV9F5sqMcqbUxJMyyWawdfn/jtaApY9k43i2z8uq8UF5fqIUWnJlj4+30cZvJNYD4lxjn2flhnJpv450S2Y8mqNxasbn01xkVUGqAaWNI/KLSQiJJRCpEXoRJJgY2GuFwBPTG098ZxUhHgib6UcHpkqsr4fYCljb6xYv5RBgjUsUlXZbSMHLCyoXeaP7UU8hP9y5mV1Mjyxq341pzjLLGDsUuy9ecxCtWEWGaq46rcwcwr0n78YPb3wIwl2e205i9h2UFbZRlryY5pQBDUATme0KYprcRERiKzmhmhrOc7FUPMLt2C3ElS0nIrxgvjl5EYsFiEgtqSC5awrzylczx1JFRtZK8JavIqW4k3bOEEJOV5cuX8sprv+etP7zJH/74Npf6LzE4Kt2VQwwrABpWHZaMjSJHgHFUSoRHZG8oZ0yNSf3xa/K4f3Qqtz94711O/e7fOfDgXpUrm+VagmPlFnIat1La3ErCgmICQ23YzHZefuEFGBtBWGL7tu38/d/9HQKS7/7pHc6fe52ujk5+9IMf8s4f/6RAWi0xpWNTAHtkRHkIBTQvXbrAyRN9mHRmjIFhzE8txZezHm/mZiqkrSRTAHMbldkSxH6HYfpZpf+qfq+3QMw7I9m9OB1y/OPUW49cP45dfhzDFMB0uyUZ6GG8jsP4HIfwiMrWs5ti905KyvdT6HmIMu9ByqsO43S2QoJ0agAAIABJREFU0+JexlMbKnntaBlXTs5gpCeAgaP3QJ+F4c5oVY4s7FIx0C4jo91GratRqWjtXDlqYkj2md1xDO0P5+K9Oq406rTaLAWYNkZbRHl6LVD6b9uhPpYrVVGcSddxbqEoZgU0w3nrUwKmlEVf8sVCfQKjjQKOJvobjAw0aQxTiX5UDVkYo9LruSKcMVHLrjHBvgjoieTCMQsDvVGMdMYqb6qE14/2BDPabWKsI4LhHhMDnVb6H0tm4LEYbZx98h76n7Nztm8Oz7XVsqluO95FRyluOkp2yxHKVnbhk0qu5uMKLMsauxXDFNC8A5j/WYCZvZP6vP0qqL0mZyvO3LUkRWVh18UTPsmMNdhIkMHItBI3Bc0PkLF0KwnFy4iRaLmiKmKlH7NQ2kdqiC9aQoqjlnmL15BZu5Gs+o1kNdxLXtO9xMyYhcvrZnBsRJ1hYJBRLg0PIBvBAUbpHx1Rt+VjI2ixpOq9dGxMscGr6koBz/F/khYjb7pjo6NceO9d3njlZY53dXPXpBCmZDspbHyAgjW7KWlpY3bxYiYH2/jKF+/mn7/9HcmaYXBwgP/9459gt9rweTxcvnBRMVYB61d//wqb79+kxr1zZ89hUWUVjx55hNdefVUBrcY0h/jlL36ujPz6ADMpEWm4MlvwZm6iUkILMjWwlFzZzzNgBk0O4A9vv6390eP/w8d/vUVO7B3A/I8HTJdbwFGsKAdxO4/gcR7R9pueXTg8bRS7tuGs3IOj/EFyS1spq9hFeVkbze5NHFy9iB8dyOFPvfEMq3GjWCrEfiJ7uyhljVA5tJ0GZbMYlXzZrjCGRSzUY2fsyVhGZVy526oC2ocbDWocOlhrZaRRGKbsM+X4y5o10BxZEcHYigTezDVxdqGZs/PtvLEwkjcWfAofpqQEZVgYWiTq2DhVAK1Sh5pE5COiH2GWWuqPVnYtCUR2+mWH2R4FT8Qz0hOuqrckSF3Y9Ui3iaHeYPqPB9HfZ2agK46xjjiVnCSpPyPdoQx063ivK46XOkrpbF3GkmXr8a3qpKj5aQrrnsDT9ASOhg41jnU2icCnT4GljGUFLO8A5n8SYNZktbM4cye16TupzWxnScF2yjJbSInJJjwoCpP4HPUGUvJKKFm5hbyabSQXLSe2sII4ScsprCK+cBEJhYuJL1hMbP4iEkuWEVdcQ1xpDUmeFUyrrCd6+hyiYmMZGB5mmDGGx8YQYPSfoTGQowEp9I+MMDIq488bRSFiSVBAKcAqDFQAc2yMD957jzO/+y3PP/NVgo12pud7lLo3vX4LcytbmJFfweQgK1/+4gSe7O1Trz86Nsof3nqLqIhIEuMTVD6pGvmOwc9++lOe/+pX+afvfFexzV/98t944/XzvP/n9xkZGeXylUuMjg7x6isvEhcdhTnEQpx1JmXpjao0ulICDDJbqcy+wzAloUd+zzJGlyPTAv9oXbFM+f/5uiOA+ZV/+OJVBa5mI9E8oB8rNrqV6CdULCf+MIbbqPf6LyD6UWKfG0Q/+/EDptP9MC7XYXVEDOR2P0h5xV4crh2UONsp8+7G4dtDWcUe3OWHcJXtwVu4gh315fzvQ17e60lnSBSwnZJqY6e/O4L+nmjGJOWnw6KAcugJC6hxrI0xUc+eiGC4O5KhR8O5vDmU/lWhqiZruNbK0Ao/WGqAqULQx+PnhlZIiEES75TYOLPAwNk0G2+mR6nGkVuNYP1+S/m4n5Gq5y6w8YdcK6NLExirj2RUgLLBqJJ8pPxadqqqmqxRMm0lgSiMwdUmLt8fCo8kQGccgzJ2PRnNQIcEFEQxJD9/r/RUGrncK7+LOEaOxWjZusdDGT5u453uafz8YS+H72ti6YpWXC1HKFrTReGqbnwtJ6loOIGjvkvlwbqaetQO0yOK1r/hDtOx5kkca05yR/QjrSZ+lWxOO4tzdlKfvpPGhTtYltlOZd4DeArXMT16IVZdBCFGE1FzFuJo2kJRzQ6mF9eRqPouy0mSdhIR/sguM6+apPxFJOQvIr5gkWKfMUVyrSZ6ymxCQ/T8+b33GR2RSijt/dHPFNWYdZxV+gnH1Y/d5IYfSP1gKU/58zvvcObFl/j2N77NpGATyelFTHcuIdldq+L8pmY7CTWEMenuALZueoARGbGOjimhj9vpUmrb3/7m3xkeHLw6ApYRLDISlvfzEW1MPDYypn4GGeeOjQ3x9lvnWFRZjiVUAHMGRfOWU5m3BW/6FrXDFOD8vDPM4IBAWrdsVSIqiS3ctWOnur1t61YV5C5h7tefxto6Jt414SpgahYWUcj6la+3UMveBDCtBgP64GDl6bTozfj7MBfM8n18F+Z1YCndmf8vqmRvObJ17VUM0+k5gICmqGOd7odwSaemAOf4kfuipJUM2kLfLgrK91DqOcIi1w4eqFnHd7a5ebtzPoN9MnrUK9Y12pOklKD+DkhRjqoCahG5dJpVrmq/+A5FIHQogv779Qw26VXKzsgKTaUqSlUNLD9sCxmROLrGeC76IjmVFqIyYN9Ij+TULMt4RN6N1pIzcyVgPQoBzrPjYQUCnOfTrVxyR6v95fByGzRbGKozMCyB6g3hDC0XpW4YrIxgqN7ClTozV+4LgcNm6ElgVMatnSLasTOshE0JDHQl0t+dQH9XFAMKQKMZ6ZXIOx0cD+aDnun8eHcJ21feT3XtE+Q3f5OC1V2UrD6Ep/khvPVP4q39Fq7GEwhYikr2WqD8WzFM59qncK7Tzh2VrB8wJUJPvJvpkjnbRk3ODqoL2qgsEgN+HakRM9GHmIicNg93y1aylm4npXg5SQVSAC2nnGSVBzueCZtfRWK+lgIUV1BNXKGcKhJmzScwKJiXXn5ZmdYVQIpwR43lrp2/3rohyg+kch1lbPwlxq7efu+dd3j1t7/j+//8fdWlGTl9AfHZDuKL5XvyMi27FKs9mpDAYMpdbv+3oIBwZWMTYlv56Y9/wuCVfkRs9PKLL3G8t4/dO3dxYN9+Tp54EmGZ7/zpnXFmO8rAwCXeOH+K1gc2M/HLk4m3ziB/9hJ8WTKS3U5VdhvlGZql5PM8kg232a/mzhr1eiaKv9diVXYgg07P9ceo0xM0KUAlCRmCpW1E81dKHJ7cvl2GeQcwb7H/lDxZAcLx0azD+yAOjwQfyKjWD6KHlGrWISEInodwVe2jpHwnxc6H8LgPUeXcxdqqWp5YU8pLT+TzfvcM6BMxkI2hYzKSlPQaLf7tKmCqQHcLg9Lg0atVgY3ssXF5TSgDjXpYqXVP3giYZkbqLNAQTX91NOey9JxOM3M+PYIzKoTgRrBUrHJemBrZqqCCtAiV7iNCoTcyLAxURis/5dAKM2PCMOuMmuCoVnyW4dAYzlCDmQt1IVxqNjCmKrvCoTeawWMmhjr1jPValG3mytF4hjqTGelM1HJ2uwzQG8rok1be70vltWNlPL+zgQ21aylfshvvyi5KZEfZ1Iu7qRu37Cmbeihb2auudwAzvZXrLS1/zXqv69Wx/vt+IdH1Kln5eE3mVhVmsDh7O4tyd1Kdt5Pq/G0sKVzPzOgF6CYZsMVNxbXyATLq2kgqW05igU+BZpKfaaprBYkSvF5QqQRBkgakJQJVkjhnAUE6Hf/rRz9ieEzgTnQ9wtQ+3EcKS/SDojzqv32zq7yCPEfCBPzg+e6773DqpZf4l5/+DHtELOGpc0jMLlNB8EkFblIyC7BGRCtfZ2xkhPra6uuPwb4HH2TyxIl85x//Ue0w5Yv/8Pvf58njJzj6+OM8/uhjCjQFPJ988kleeukltf+88MF7vH7uFH3d3QTcFUycZQaFc5erkWxVTts4YD6g9pefZ8AMmDgJm9mCAKfYfmSnKfclyP1WQeqS6iNpQiqQIFSvbodbbeM5trdgl5J3e4dh3tKPeQPTVL7Lh8dHs3tweHfh8O6mzCu5tPtVsEGp5xBlnoPj52Fc5ftxV+ylxPEgRaX78VYdo6p6L9Vlyzi8ppIXjri43DOXEfEfHg/jYrdF5dFKLJwayY57EsckOq7bxGCPGfpkHxjN0DYzl1eFMrzSpFpMbgRME8P1EmIQzsjSWP5QZOXUfCPnFoYrT+atRrLq8TQBVZsCTonDE0b6do6VkaUx0BDFUK2JkUajCkmgQVJ8IqExWgHmlQY9l1bpGN0u7SvR0BfJaE8YAx0GRnoEMCUGz8ZAZzzDnQmMdcTAMROjnaEM9Op5r2cqr/RU0LG1ieVLNlIhY9ZVT1EstpHGTrwNvXgajuNoOkFpSwclqx7HubLrDsMUT+ZnCTCXZbexIruNxXnbqcprU4b7qqydVGcKeG5gXkIe5iArprAEyurvJa2+lQTHcuIKy2848YXlaEfC2SuJL6hCK5muJH5eOiE2Gz3PPquEPSLqGZ/MjgOjAJ/234i6aoB4M7CUx24GmO8JYL78Iv/6s38hOiaByJQ5TCvwkVBUQUqxj5TsIizRsYSEhDDprq/w7h/+qI2GR0YVk5zwlbvo7e7mvT+9w4X331cCIAktEEuJ+DNlVDvUP8DFixcZHBxUgPn222/wysu/48CD+5j0pWDirXNwZqykIkfzYvoyxFIiZdKfb1uJP9ZOGKLE10lqj/RWCnvUAtUlVP2jRzJr5bmRtjB1DRaQ/Zj4vaus8w5g3gZgPozTdUSNYMVeIj2ZTtlXevdQ6t1LiW8fJb79lHj3U+bdp5hnaelDSiBUXv4gTu8OSsr3UlbdgafqcapdW2lfWsUPd5byx+75fNATy+XjNoZkZzleXyUxcKrvUTJpu4ShGRjpEo+i1mrSv8XEhZXBDDUZVXjAh60h4n8UULOoZKCx2jg+cEdyZqGJ19PDOf8JRD/CMP2j2dOzrbxbHM5obRSjwiLrtV7OkTrxWEpGrKT+RDBYa9Iqu7aY4ZF46IhhpEPC5aV5xMxYr1EB5mCXdF2Oj2jFoypZusejefvEdP5lfw2H162hpmEzxS2PkrP6acoan6Gy/ilqVnTja+iirLmTgtUaWDpa7gAmywQsP2uAmdXGiqwdVAtY5rWzKGsXS9L3sDR9J4vy7mfB1FJM+nD0lmgcK9awoHYTCWVLiS+suHrilABI7peTUFiuWOa1e83UvCqmphdgCI9m90NHGJSYOWGQ16Oh2lXKqNX/361Z5q0A87WXXuDf/s//IT4+hbCEmUwrKCemoILksipVTm2JS0BvNPCVv/87fvGTnzJ0+TJ/fvc9nn3qab70hS/y0P4DnHr1VaSsWJJ9pAj57OnTvPbKK5w7fUZZTt44f56zZ89w9twZTp96lZde/C01VTUYA+1MicrAm70GX5awyu1ogLn1cw+YYWap3ArCZjQr0JOxqoCfpPdoO0nZS370CKhKuLqApnxuhNWu9pn+DNurADneonL1/h3A/MSAKVVfwh4dHkn42avEPsqb6T6AjGDLPA9R6j2gwFIi9Nzu/XjLH6bEuYfi0p34Kg/iqzqEo+IIzqrHKKs4TE1VK/cvb+Tr28p5vaOAge5YFcwuDHNQVVfZx0e0FpVRO9plYLhTqsDEnxnP2ENRymoy2GRAPJEftoZIrZaJsZUWBpYbGauLpb8yjtczLZxP/wQMUwQ/46NZGcdKtddFTyxDtWEMSsXYSkn0MSk7C3WRjC2PZHi5ncsr9FxZr4f9EkIglV0RDHZY1ah5RILmZdzcqf1BMCx/GHTqQJSyx6dwuiOH7xyoYEvTSlbU7sJbf1gl9pQ0P4mjsRd3Qye+xmO4mzpxrOyitLkHx8oeXJLqI/vLOzvMzxbDlGD2ZekyOtxGVW4by7J2U5exl/rMB6nMvo9ZyUUEBpoJNoThqV1L1opNJJUuIaFQfJgyeq0cby/Rbss4VoFlXhWpedVMya1mam4V8wq8GMPjWbdxKyoDwD9zlav/XAugn2AkK0+/diT73nt/4vTvX+DF3/yaqVNmYIubzpS8cqLzq4lTe0wnxrhEdEYTX/q7/85TnZ2888Z5Xnn5RU6eOM4X/+Ef2LNrD6+89HtOv3pKgeaZU6d4/cxZBZanXnmVU6++xulTp3j55Zc4deoVfv/yi/z4hz8gwhaJTRfDnMQivNnrcS28X41jRSFbIUH3Wdoe87MZXNBGlWPTjfVeV8eboiy97lwPUn/hvhQ5C/AJqEn1l7oajEhl1/VA6b8fPClAPS8qLAK5HR0eoRip9vFbjWT1WtasqiT7MEvWahTRT5D2dZXox4pFF8ZnXvRTtld1WUqfpftjou9uGLV+wuc63Aco8QpoimJ2v+rIFE+m23kIp+uw1mji0WrA/B8X1ayjYjfl1Y/j9T1Khe8RKqsP4Vp0iPzqJyiq7sRXfZj11c2cXFvGG4cXMtCZynBXOP29YfT32hlQGbNWxoRZ9lgZ7bEwcMykscxj8QzvsnOlWad1ZKqaLbF3WBiW/WaLlSvL9IzWxTC0OIE3cqycz5DWkuv3l5ICpJVKn5tv57x8XO0vI3ltlpk308MZqI6jv9ZIf72J4WY7Q00C0BKNFwF10QzX2RloNjLWbgdJ8emKVuAvSuChnjBGeiIYORbO2DHxlUZAn1Ux5is90ZzvKuDru2pYU9uCp3YPZTKGbXwSb/1xPPUChh04Wp6gtOVxHM0d2s6y8QTuxidxyWnqxSXg+XGin1V9OK85txWLJ37Oj8mS/YjoZ0n6VuTcjPFdPzL9v77/KaPxlmZuUyXQn/Tq31fe7HqrHebSLAHJdqWaFeXssqwdLM/cqR6rzFrLgqnFmIxh3BVgoGTRSgqXtpJYVENMiY/oAi+xBRUkiK0kbzHxOZL2U0OSnPzF4+IfGctWMiXPiy1+BuWuSi69e1FRTBnJ9g9reHnjwtKPqDeRyCp2KnApLFWzlMjtSxc/4LWXfs1vf/1L0hdmEmqNY1peBbF5i0kpW0FclpuIKfPQmexqHLhpw72cPfUS586+wKGH9hASGMiS6uX0dT5Jb8dxDh84xI5tbaxbvZo1zS001TXStnUH//j17/CrX/5aMcuXX3yBdaubMQQaCdcn481bjU/C1q+WRm+hIvt+KhTj/OwFF5QXtuPN34YjZzWzJOkpWNsbGkODsFuk8WO8FSTEiCnUgjHEgil0HIiuB9GPuy9B6NJuct0x6U2Y9NKreeMxG4wqR1ayZD/RMYgwKER9zxa9CYteuj0tyG0BzAi7FV1wIBHWMAxBFswhUeRn1H5mVbIeyXy97twMGJ0i3HHtxyXnFkD5YfjBR7NkRf0q7FKSfaQb06nUsCL2kTxZich7SH1c+9j4x737cfkOKHuJr/IIvqojeKsP46o6RFmlXB9VtWFuRyv11VvYsWozL3Z4+aAvkYE+6YE0MHwslMFj0uoRx0BXPJePWhntHs9aFfDpTGJsp50LzaEq9WekzsjQskDGGgMYadQzujKCweVRjCxL4s/OKF6aFcJbmVGcn28bP2G8MS+KN+ZFcl4l/5g5PdvI2XmRvJEex5k0O++UWBhebmWgPlCNZEdkj1lvV6PZgVqdqhW71BDKmIxiH42EJ8IY7IhjTELTu8Q6YuVSt41+laVrhsd0jDwawPvdKbzc6+CRzUtZsWy92ld6xtmiu7EXjzDLRo1Fyp5SO5rYR8Q/zqY+JQJyruxBnebeq5F41+bHOlb1cf3RwtZvI09WAPOaHFllIxEriTy27ikc4+e//VcETAHWm4GlJuzR2kquF/0szWpXILlMAed2lmbtYGnWTpbKXjN3A3MSsjHpLOgtYeQ4q8jyNJGUX0180SKSSmpIEBVsbgXxeZIpu0hF5SWq3aX4M6uUQlZUsikFFdiTZ1OQnccfz76uULJ/eIxBYYl+TBQM9OPkTfyX/qf5gdJ/9VtMFGD+/gV+/+ILFBYVo7PHMku8onnVJBYuVj2Y0dPTCNJbCAoMptJXQdexx9mwppGsBQvQBxoIvsfExC+GEDhBR8ikECZPuJspiXHkZi6kccVyDh84yLe+9i1Ov3qGX/z852zdtIlIeziBdxmYk1SEL1c6MVspz9xBRWa7aij5LIevu3O3qQD2xa5tzJ/mwhAYgc1ox6QLwRAaiEkfjMVgUIIbi0FKmWWMasQYari9ozNivMUxhBq42VEh66KI/YTHpBOPpihqDZhC5fsUcDer+wKYJl0wuuAAwsx2DEFWYuzTKMtv+WwCpjSLOPZ/5NyUYY6D5VXQ/BSAqdSwooi9jePyPYSn/CDeysN4q47gqT6Cq/IQjvKH8S16hIrFj+GtOIS7/GGqqg7QtszHjx8s4e2eLD7ojGG0xwR9doY6wxnqimVY2FlvGGNdRoaOGaErAo5EMrDVxsWG8aaSFRaoNUJjGKNN0QwstzNaG8Ol8nBOz9PzxoIIzguTVCeMN+YKYAqICvM0c2aOibPzojm3IIbTC6z82W1UDSjD9XpG6i2M1MruUhS4Wj/nhXoDl+81M3YgQkX9jRwzIxVm9MUy3GGnv8vE6Ak7A50m+p8wMtKbyHtds/nJAScH762jbnkr1Q2P42jowzUOkgKU6vjHrddcRR0r49hrz60A0w+UZav68B957HYBUxpMrm0pEc+l/9wBzEwBzY+2lQhALsvcpRilgKYCS9ljZrdTk7eRhakFmEONBAvjiIshYsoM4tOcJGevIDVvOYk51cRme0go8JJSWkF8kYu4IjdxRV7iiiTcQEBzEUmF5URMn68C0l/6za9gbIiLg1cYVgIfiSvQvI4fAua18HjjbT9IfpRhXuDVV17i1Vd+T0XVIoIskcwq9JKU7yMh38O0Yi9R02YRbLSgN5gICdETZg3XAgfsyaREzyEpYh4zEjJIiZ6NJcTCtMQkWjet54kj+zne9Rg9xx6jdfNmmptayEhbiN0Uhj7QSkLYXPLmLsOXswVf1g7KMx+kImM3FQKcWTKW/awm/bTjyd1BVWkbJVmNRFtnYQy2j9diCVsLwWwIVuBpCJWRZogaa5qvjjyFbf7lI97Hm59bfa4RqxRF39YRVimM0oZFZ9eucl/CCgyh6meQqzBkU0g482cUUuG47w5g3gZQ+kH1ZoDprjqMHG/1ESoWPUrFokcorzqCr+IQy3z72Lx4A889UM3pY9lc6ZNQ9kBGO4MZFTVph3W8Q9PEQK+B4RNyP4axh+P5YJXky0bDsnhYmgi1SYzVx9Bfq2es0crIEjt/yLBwfnYY5+eFc178lXIELP0MM83CmXnSmxnDGem/zLByucoKTTGMSmG0MMr6YKjXqbaSkbpw3m+2MLAnlqHOeIa6wxQzpisYKXoe7olhtNPMyNEQ6DEw8GQ8p7sX8q395bQ2b2Dp4sfxLX6WironKW88iEf2lH6wlOs1QOnfVd4BTGkq+b9oK/mko9hrn3e7DFPGsf4RrLDNJVm7qMnaQ032bmpLdpA/qwJbSDi6EB1Gi5lgowl9eCK2xDSS5pcwq6CKWSWLSREmlyuVXwKS5aorM65Iu4oYKDG/grh5+URFxfLD//nPCjAvDV5iROX+DIBoZ1WG7Pjy8kaM/MgjNwfMiyrO7rVXXqOpqYVJoSamZeSTnFXMzGIXswtLiU6ZQkCwjtBgEwadnVmpOSowvSyzAW/eGtzZ63Blr8aZ3UiCfR6mgEhsoeFYQ2yEG8KJscYRZoxCF2Al6B4TYYYkpsZmkzN7CUvK2vBlt+HL2kV55h4qMgUwhWV+dgGzsmg37pydlEn2bckW0mdWEmacgi5AgMasRplWU6gCTQFOqzEUq1FGn7d3xAdpu8mRx616/U3PzZ7/cY+p78ukx2KUPalRu8p9Uyg2ix6zUa9Yri7QTlL0Akpy6vEUb74DmH9FwBSm6SwX68nDlFcfobrmcRYtOUpFTReLqw+ytnIj3Wtr+P1jbi6cmMaVHj30TmL0iSBGHjNoQQC9EfTL6LYnDB6PYmxXJJcbjQxL9dayRFgex2h9FFcaQxhqNqid47vFEZydcw1IzovQwFKu88WDGYbsMV9Pi1XtJG/m2RlZFqHsJKKGHa0zwEpR4Nq5XGfhgwYDwztM8LhdNbBclki/3gjGOo0MPKFjrNcKfTqNXZ6YxkudDnq2V7Fm5Sp8S3bia3gaT/3XcK04QXnjMTyN4rEcZ5d3APNGIc9H9p5/ox3mpxnJaoC5A8Uus9uoyd7J4uwHWZS9VxVQV+dtIC05n3BDLKEBBkICjYTqLATrLRjDYolKnUvKwmKm5ZczpVCSfmRnKeNYEQOJzcRHQqGXxLxqktNd6A1h9HT1MDoyyODoIFp6bL9KlpXhrF/38xF0vMmdmwPmJV596VVee/lVWrds4+5JgUQlTSE8eRrBYRF8aXIgk4NDsJjCsRtjiDClUpy+gqqCVtwZm3BLwEDuDtwZD+DN3ow7ay1F85eTllJKWkoJ02OySQlPZ3p8DtMTc1g400PhwhVUl2zGm7OJ0vkbNXaZtZPyzF3jYLn9Krv8LPowywt34cvfgzNbujJb8RRsZOGMcuz6FEImmQgN1GGUgm6TgJAIZzRbiJa6o5VHf5LbUvpsucUxi1L2Jkd7vhGL7pMds16P0RCC0RCK0aDDKPtXdXTodTpCggyEBtqIi5iPo2A1Nd6duIu23wHMvxpgHsJZeRBXxUHcFYfUbtMnO83yg5QuPoZzcQeLyh9jte9+jjQs4V8PlfD+03MZfsoEXQZGH9Uz9lg4wx0RXDpqpr/LyvBRKzwRw8D9evobDFAbzfDySEYbIxlokV5KHUMrbVzwxahM2fPzYjg/L3ocLCPHGadYSSKVKvZcWiyn02xq70ljDNTaQEa7dSbGWsK40hjJn5vMvH+vDo6aoFfPlW49lzsjGOmNU/aXkU4DQx16BvtsfPDUXH7xSAGH7q2msXY9rmUP4VHxdScpXN6Js6EPZ0MvrmvB8g5g/r8MmG1IY8my7O1K+LM4p51F2XtYlL2P6sw9LM5toyJrHbnTK0gNW0C0YTo2vRWjbjKhIYGE6A0Yw+KInJJGUlopU3MrERuJVv1VOR5kUEFK/jLIZ0+AAAAgAElEQVSmZlVzz2Qz27fv5vLlK2p3OTLqT4+VCHYZ0Mpw1m8a0YQ9N8FLJfaRx68dyV6+cJlTv3uNMy+/xqMHDzPx7kmEhOqZGBDI5MAgTCZhTBYMgTaSw+cyL9GBL+c+qnJ34cvYiS9jN970PYodetN34MnYpsqevVmbqMrfii97E+70jbizN+DKWcui0lacWferYmav5Mbm7KA8q00JfspVObSUR4s69rOb9OPLb8ebtwt3zg58BTtZVLYbd/695MyrITU2nShbClZDBHZjFOHmWCy6KCy6CPWYPP5Jj80Qic14k2OIvMVrRGIzRN/eMUZiMdvHTzgWUyQW0//H3nsHyWFf+Z3331Vd2V6vJBLAhE7TPYPJg5wzJnWYnDrn7unJg0xkTE7AIBA5DIBBIqWVd32uXdtnu8o+n31e350lr1aJYhZX0kpLSaRIIn+u3q+nBwMIgAgQBKnlsOqxu2d6GiBZ5Iff977v+3IwGnIxGeYwJ28tq5c3UFu2BW/9AO6a/XhqR6eB+YyAKaafBoGl71h8tuk9puaYTu9RXI2HqQ8ewhO8Qth/gUZ7H4MtTfyb4XreHlvO7WvzQEw/ZwxwbrYKKr85ns318xncltD2Y+l8sidFXTW5LgemOzO5ucnER+0GbnRk8nEoj5+aTby7Np84NKUdG1eXojBl9/KtNZm8XZjH28UmPvYVwMY8bjSlcqtFo/Y6b3Xk8UFbHr95ycjtlyXvNolbV1O4cTmdmxcLuDNeEFeWErgwlslPLyznPxyrZ3BHM5HYAO6WKzjavo2z/RyejUepbz9I3YazVHXKLcsrf9wKU7ljH7EXeZ86TLRVP8vjl1phxoEZtfQRtvYStPURtA4TtBwgWnaEQMkgYWsf0QrZJdxGzapm1s0rY17GfIxJJnSzZEUgHYMxE60pi8y5SyhYVcwicy1LyuTItIf5Vi+LrH6Wm50kpRoJR2L8+rcfcEsiZVU03m11aktQKQYg+XM8mv3RwHwYRCVU4J0fvcEb3/8Rr4xf4p//03/G+jVr1ZWRnS+9xKI589En6Zg3exn+qo34y/bgKZXjzrIv2Uuw7ACekiE8JYP4zMN4zdJO7cOjQgd68EoAgZzqKuvDXroHe2kX9tIePNYh3OaBOCgt4oTtwmPZN1H3YPllVJjuin5l+nGW9eOtGsFXPYy7sgdv9V7qbRspLwpTstpB8SoHpas9lKzyUbzSQ/FK95PVKg/Fq3+/ilZ7KFrlfkjJe30PraJVXopWeila5ZsseW/Rai+FazwUyuNqH4WrAxSuDqoqXddItXUTrtq9+BoGcVQOUG8bwFV94EsLTEfdKA5ZJ0nUwww9n6Ppp15lx/6+GcjuOoLD/fKE6ecYTv9xVTK/FGiq1wJNUZm+43gDsnZyCl/oNO7wKVyhE/iCR2nyDbAr0M6ru0O8ecHB766u4NZ5OUyth0uzuXUxm+vj2Xw0lgGX5/HJfiO/3pLMxxv03NmQyV3Jd23K4G5zNrcjWbxfbeSdNdm8syaX99bnqp3Ld9dm8M4a2bnM4p31ObxdmMXPKzK5FSlQ+bDX23V80JnKrfZ0dYvzeqseBjPhbDafXDRy/Wom1y9nT5iSMpVZ6ZNLy3n7VBV/3udh78Y2vK1D2KXtuuFbuNpfxRG7gK/tIq6OMeo7TlOzQUIILnyhwGyQFZJEbU6sk4hD9pVPZ/p55lB8HFD/qIDZS8A2oKAZto4SsYzSKPcyrUNErf1EFFB34ixupXRRHXP0i9F/Q49uRtzOr9NpSNHrmZWWgSZnIVnLzCwyu1lcXM+iNRYyMjNZV7iOv//VL7lxB27HqanmlxJXIHrztgKmKM4nA+btmzd584c/5p2f/IS//Is/Z9aLL3D+zGm+/53v8OYPf4i33ol+pp7FOevxV2wnaB3Ab+7Hb5WLIvGrIgJIVXLLcnL2KIadeyUrIwJIMfckSilLccda9uKRtRIpBc6eiRWTL6fpx13Ri7uiBwGnu2IAd7kozQHcFX24K7twV+7BXbULd9Vu3JV7cVd0P3lVduOq7sH5RNWLq6YPV03/75Wjug9HVS/Oammn9uF88H3VAsJBXNXDj6kRXNX7nxiWzy18ve4g9tpR7ALNuokD018kMF2HEVDeB0vvMZxSvmPK7JMw/cSBeVypTAGm23uCgPcSft8F3JFRHFEpua95mZjvLFv9g5zc7OO7p6v48NX53L1ggPNaFT93fTyLD89ncPfyPLi0hA96DfyqYyY3OwzQmgNNuRDLg6iJG56MeLj6mizeK8zlbQHl2nT1KOry3aIc3i7K4Nf12dxtyuduazrXNxr57dY0dSz6ZiwVJKDg5Uy4mM3NK3P55HIBonRvX5K0IlklKeD7xyr45t4mdrftxd90nKrOP6dm46vUSMRd63nczddwNf8ZjtZr2NvPYt9wGEfHuS8YmFemAPMajs3XcGyRenUamA8z/jx6D3NAuWSVK9YqcXiiMnsJCRwVJIdptAxPAHNAQTNWPoxU2NqFa30HloUNLDQuZ3ZSJpnaDEwy39QbSTEYeUGj55/KEer0bLRpRkzGZHT6Gfzo9e9NTCxFUk7ctIxbf1RDNn7o6wmBeesmb7/+E9568yf85V/973zt63/KX/6rf8Xbr7/Bz95+h949+5j5jWTmZa0jUL1HKUm/ZQS/pU+pzHjIwAQYS+NRdvF2qqjEfXgt8fIIGJXyFPU5UQqWoiz3TlTXxPfEMStqVUD85dvDjANTINh3PzQnwSnwnABpeXzeKTNPd/nIE5Wzcj+Oqies6gM4HlINVftpqNyPvepAvNR7RnEoAA5PQFBgKOpxFGfVwXjJc/W1BCjlvYn3j3xqeDpqD9yDWAJmn8PjPxZgunwn8Pgv4Q6M4w4fwx0+gjv8sjqW7AlcwOM9TdSzjZHOIP/3sXp+fa1YXTC5M57K3fFUuJrBzTPpML4ATs3htzuS+KB9pgIerXnQlMedZhN3Yjm8VxwHpMTkvb02nXfl3uX62by7Pod3CrN4p8TEB65M7rbmqIB1uW15e1MOHzWl8ckGLRzJgjMmuJql9kS5mgnnk5Xa/O2rhfyPUy6OvtRER3MPvthpGlpfpXbjX9CwQfYoT+HoOEVtxyWqOr5JrQopuEiw+TTuti9aYU4D86GhBg+D5WP3MC0DapUkbBlEzS9tfYRsvao9G7H1E7UO0mgZUiXPI9YBorYRwqXDhEsHaKkYoqWyD+e6Dkrn21mRXUK+YTHGlCwMGhNphnTSTOno5LmsFuhm8qd/+r/yr//dv+Tjm58gR5iVO3YiTF10pcwxE39+WOv1UV+7c/sWP33rdX70o7/lP/zHf8+Ls2Zw5epV3nr9Td748Y85f+YsM19MIi9jBYHa3XiK+wiY9+OzDOGzDMYPPitV2avuWE5VlWoWKfNIgaZq0Sacr3HAxhN8BJhSAsZePNKmLRXH7MiXGJgCSlGZUlOgWTGIu3wIt4KkwHE/7rIDuMtGcZcfeCJYClwVMAWaD6tHgNReJVD8/YoDc+Te9xJQrdmPo2ZoSg3jqBlRIL0fvPI++Z68dxqYiVWRBx/va8l+BoWpdjVDp3GGzuIKjuEJnomvnISO4QwexxE+iz96kph/NwMtYf7tsJP3Ltn4+IrcmtTDeBpIYPuZDLiQD4fT+d3OWXzcmqJOb91tyeO6OvScyy/KTLy11sBPBY4CTHVcOov3ivN4S+5m2tL4OCAXSLK5I/ctm9K53ZTB9Y3p3B3KgTG5Z2nixpU07lwwcve8CS7n8IvLxfz70Qb2b91Ie/sgHmm3tl2lpvUatRKc3nEed+dZGjrOULXxLOWbxqjZMIa75RKR6DU8rV/sDFPSgO61ZKcV5iQ8nxSYEeWMlZuYAsw4NGVmKfPMqLWPRms/MYtAc5iodZiwTaA5SHP5floqDqp2bah4iLB5hFjFfrwle6hb24Z1mZP1Cy0sL1jBwqw5zDEuYEnuMrL1el78xj9j+EA/H934ON52vauSZdX8chKYTyYu44i9dZOfvvEar7/+I/7Tf/3PfG3mDE6ePstrP3yNt17/Cf/h//i3ZGZmYdQUYLdtIGDpVY5gr3kUr3kEr2VowrTTj7tUlKMYeBLVF4egJdGaTQDzYaHqiZ8VE5B8ZmIX88uoMCdasQqW0pqVEnj2x9uz96lKUZZSQxNt2wn1qVq4j3/urBxQc0OZHT5YzqpBHlaO6kEeVvaqAaTufW8Ip4LfIPbaAey1fdhreydKnvdjrx3EXjOMvWZkouT5NDDVnctHmH6eHTCP4YwewBE9gjNwFY/vmmrPBkL78UZHsDceoj50AXfwIhHvAXY3beRKl5c3z5u5fnUxN89IkIGEsxu5I7c0Jct1v5YPN83i4zYDN1tz+F3nbD5qy+bX9Rm8Xajj3cJMpTAFmu8VCTBz1RmwX9YYuRnNhLbZ3GnN5nZjOnejBujJhbGF/GY8g49eSedDUbaXjNy4OIdfnF/PX4142NXWjid2hvr2a1R1vkptx1Ua2i/gbD2Du+WcasfWd1ykatNxKrYepHbTEdwt44TCf4mn5dXpluynnoN+iWeYEWsPIVsXIWufUphyTDpslai8fhqtA8QsQ8TM+4la4vPMkPUAwdIBFYAQtQ7RVDFKrPIQIdt+/JZBIuUjRCsGiZZ3E7LuJGjeSsi8GW/xRpzFMVbmrUKXZGB9UQnvf/gRt1Q7Vkw+ccPP5OTyKYB599ZNfvHW67z9xmv89//3v/NP/vmfMjY2zruvv8N7b77F337n/6OkaD2aGSYq1vppLOsiZOlXoPRaBvBaBIpxqLmlfararQJMMfRIxR2wXnN/fGWkVB4nZp6q5Tr1vQkTkMw17xl/vmxZsm6lJIcnANg7MbfsujfXlNasguaU2WZi3vkpQBmfhw7gqhhAoPmwclUN8rB6EKwPvp6EbPUQruoh1W61Vx3FXn0Ee/VB7DX7JyA5NPE4DUx7w+9H4z2oLBOvnxUw3b5j+IIv4w0dxaVMP6dwh07iDx7F5z+CP3gcT/gMNe4jeEJHicUOEnG0cnqri++ddvCb8TV8dDaDm2M6boync3c8W6UAsS+d2x1p3G2aza02EzdaMvjEk8U7xVreLcrg7bUm3lxj5KcTp7/eXG/gt87ZcZNQi5HbLTlcb0/n1g4jHM2CCxncuKjh7hWDukTyq7ML+ME5F2N7m2mNbCPYdhznhnFqWs5S2zyGvemKyoV1t1/E0XaO+uZzam7paJVTXRdxtp/F0XYee5uoy3gc3uQu5nMOLvjsCjPhkH3I9ZBPDcLHGX2mfu85AfNR6vJxLVkBZtjWpRSlgFL2MKU9KzPNRtWOlRlmHJhiAhJgRqzDNNoGidoGCVnEODNAQEBbth+/eZCIbYRG2zCR0n4iJX00lvazoW6UiG0nxfOrSUvK4WtfS+IffvMhN2+LzSee9yM6U16pP/5ANF7ibfc93rnD+3/3U37wN9/lu//zO/zTP/lnHHv5GK//4DV+/Dff5wff/Q5+twPdTD3m5bU0VuzFVyIu2QE1wxQXrHcSmIkZ5FQIxoEp8FQJPiqUQNZuBJryKJAUVTkB1ylzzfh6yRelMPtx2eIlblhXuajKiVJAHLln9BFTT6XMNEVpSov2ASPQ1K8/ATCd5f1MLUd5P47yAZwVA7gqhx5ajkpxsz66nFVDqFLAlNbqKI6qEziqjuGoPoxDXqs27Ui8NSvt2ftK2rJf0pZs/UEaJHj9U4SvT8biPWWWbAKQDz4KMCeh+UBL1uE5Gjf8/AHTj2rH+o7j95/AFziOKyzQlDqOL3iSYOAUfu8JXL6j+BpPYw8dUxdPApHjRD1tjLS7+e/H/PzykpWPVRatiU/GdPHVk4MF3N2Wwe0mI3dbDdxpMXE9nMW75lR+WiQrJhm8vUqyZbN4d30mb67X8ZE3l7utudxo0qsrKB9vNXLnYBacTeP6qRfhsp6blwr4zeVifnQpwv6NPkLhPXjbx6lsukJt5yU8my7jajuPI3YJZ5MEqo+rlqy99TzOlmt4ml/F23QNd+tF7O3nqescU9dHJmH5BexhPhqYj3HJbo1nydZt+yZfmizZSHEPYQmCL+mJVyK6ztxLY+m9mprmk3j+OEA++L1HmX5EScZLVOW9CstzNbOMt2DDtiESFZloy079/uOey+wzbO4iVtlF9coo2ZpFzPxaKt/+sz/jDje5xQ31Z9GZ6p60zDWlQSvQFKX5Kevundv8/d//HT/84ff43ve+Q3LyC4wM9fP2T97g9R/+hO9/92/YtW0zyV+fSYFxCYEqMfH0oA49W/snjD99eNX8UWaQ98pt6WVqTf3eY5/LZ022cb8IYA7gkvWJiXKWyd6lqMbEjDKhHKe2VBNt2qlfe3bPldoUxVkxiKtCYDmMs1LmnPeXo2qYh9ZjjDpi/LlXMr98fInr9UnruZh+JoDZUD/KveD0R4erPyp0PfH1e5/x6RVmnf0gUgqaE8CUdRJJ8ZEwAgknkBKXrNN3/LHlUruZx1RIu0ci8ybyZr0hidA7pV6rr4fke6dwhU9QGzuEL9LD7uYd/JuhRt67YOHmVQ1cTYKzM+FUAYzM4/qmdO62aqHVwIctGfy0KpX3igz8cn0ev1w7h5+vzkcOSMue5u3oYm4153Gz3cgn7UncGTBx52w2yEmui6nqbNc758v4dy+3srWljVDLAA1tp6nvHKeu86oy8tS3XcLZdiGuIttEXV6YUhcnvy7vmfzeH2HST92WV1C19dVpYMplEtm9lJD1qBh/ppRyzP4eMAfV/FLNMJ8QmHGY9tJY3o2ndDPzTGtI+rqOrZu3cOPWxwqacjRadWEVHO9yVwUa3KcfP8WLu/zmt+/z4x//kB/84Psq8aW/p4ef/OA1fvS9H/HO62+yb+c2NC8mk6NbgMO8k0jV/j8MzAdgKeB8LCSngDbxvi8uS/YeLAWa94Aphh6phwHz2cEx0ZKd+vhoYO5X5iAxCDklsu8pgPmk8Hua93+VgDmpMl2H1e6lAFMC1Z8UmAmgugMnJuB4SgW0CzAFkA+WtGztsZO4wi8T8AzR1bSFb+4N8/2TFfzD+EruXMuHiwY4oYdeLR/J/mRnPrc2mHjfbeTNIj3vrMvh3bW5vLcumx8vm8XHDjkIncvtDiM3tqbx4Y4MOJ0Hl2dx+7KR34wv4rWzlfzFUCObQjGisf34ZU2k7RXsLZepaxmnoX3CvDMVhp/m+TQw/0C6z6dsyX7RCvN5AVNauGFLN5HKPazIs5H6gomli5fyy1/9nFt3r3Pj9k1u3roTN8yKvnwKYIrj9te//hVvvSWHnd8kMyOD3Tt28dZP3uL73/lb3n39Dfr27sCQpCVXv4iqNZtwFO2bBuYTtFangu9pn08Dc2Kv8nGrKF8ChTkJSzkuPRFWILCUduznDUxPSGB5El/TRRyBMfyeUTaFdnNySxt/fczHP7xSzMdXUuHiDDip4eNtmXzQlMXtDgOfRHJ5vdjAG+tn8+a6DN4pNPHTwlQ+cRphQzq/a/kaH+6Yxd0jS7k7ls2ty1/jH64s5IeX3FzoamZL81YCkYN4YhfxNn8LX8u3cTddw9E0jrNdZpMPqsopSvJR8PxHAcyibiJF3fGA9KmAe9bPHzPD/MoAU9KDSruJVnZRvMhB2qw8kmak8Nd//V+5y01u373N9Zu3UCNNtZqp9OanUJVT33KHDz78Fe+88wbvvPUma1avYGNnO3/9X/4v/tv/+Z8Z6evFvG6lClnI0S+koWQrwYrBaWBOA/OJ2rJfFYU5Ob8UYE6c85KTXs8FmMFTOH2n8DZdwdH8Co6mKziDR4n6uuhrifAfX/bz0b+u5MPLGdw5NwtO5vOr9lQ+iuVwK7qQn9uMvFeYzHvrpFL5dUUOn3jz1RmvDzf8CYzMgCsFfDKWzy/GV/LfTng5vKWJaKiLQOsZHG1XcXZcw9FyGVfTZbwtV/G1XsXdch5n6/l7rdZHAfLBr/+xAzNa3E24qGsamM+rJWsZIijz2fJu6gqbydIsJGWGhsOHRrl9W8LX76iYPAXMu3Bbrks/8R93+N3v3ufNN1/j9dd+RGnJOtJ0KcwvyGPm117k6//ka+hnasjU5LJ6bhnesr34bH3TwJwG5jQwH7FaIkaghLpU9y/VjcvnoDCDp3AETuKIjlHbeIGG1ss0NJ3DFTxMa3gPe6Ih/nzAxevjNXxwZTG3x7K5MWjgo/YcbsYK+KDBxM/Wz+Tn6zT83Vo9v6nOgbaF/LYliTv9sqYirdi5vHfexl8Nh+ltitEc2IszcJaGxkvUNo/j7JTw9HM0tJzH1XYFb/tVPM1juFqmgfn5qsxphUnILJm0snbSS6hqB/mG5WToMvG6XLz/Dz/j7p2bKkhdtkzkj6cxycoPXf/kY376ztu8+fprBLwNpCZ9A11KMvqkdGZr5pJnWMq6BdXYSzvx2Xrxyy1Iq8TjPcb0Mz3DfOK9y8e1a6dbsn8cLdmEa1YB0zORHfucgCkzTEf0OI6mU9RGTlDfdJK6xuPUh4+q9ZSm8EG2hnYwtj3K356p54Nr82Esg1t7srjRbuR6MI1318zg52vT+dnaHK5753KzI4uPdqZw51gBNy+t4O8vruXb+xrYEuslHDhCsPEazsi3cTZeVr+uo/0o9g0nqdt4nrr2i9hbL+JtkZnmp2jBPvieP3aF2VjSy2QA+7NuwT74eV8hYIq7NlEJ52zUNqRi9iK2IYKWbkKVu7CscJD0pxrWrVzN33z3/+Hm9Y+UyhRQ3lZW2XvyMnHKS75y544o0TuT10oSX7t9+zZ3bsONj+/wq1+8zw++97fs3bWNGV//U7KM2ZSt81BT2E598TY8tn0EKwYI2A4QsN4z/UyCU+BplRWSCXPPNDCngTnFTftVackKKKeqy8+iMF0S0C5OWjkwreqe+edBw4+8dodO4IwdxRk7gTN6DldkDHfkLO7IKRzB07gCZwgFjrMlvIfDHSH+42gNv/tmObePmvjN9q/zftNM3rak8dbaHH5lWcitJiM3d83g5lEdvxkv5zunmji1PUxbsB1f7GU8TWdxNY3jbryCv3GcQHQMT+wcsipS0zFOTcdF6tsFlmdwtY390bVkH7pWovJkP+VaSay09/NVlVOh+ZUCptzUjEPzQWDKzmbQ0kOwfDf1xTEyUvOZrZ/Nv/z2N+HOTT763QfcuiVK8w43b97g1q1b3Lxxgxs3bnD71i3uToDyjsBxUorG5ah879aN2/zyZ7/m9R+9yRuvvc7JY4f4xp/8CZn6HOzWDnzlvfisB/BZJdVH8l0lFm94UmEmgKnU5jQwnykkpyrOaYX5x6EwlSNWXLETl0meCTAn1k8Emu5AfIXk4cA8iavxBK7GU7jVAeoxvOFzeCKn8TaN44hewh68TCh4gs7gXkY2NPOvBxt4/+Iqfnswiw93pvFLx2zeKkzj/aoCrm/U89GwgfcvLue/Hgsx2NFBY6iXYOtp7C1jNLSewy5pPU1j+KMXCEbG8Ucv4Wq6RF2bAFP2KSVAXeab/0iA+STh6zFzH7HSPpTSnAq3z+P5NDDVTmegpFetpgRs+/DatrKiwIzmBQNBt59/85d/ydtvvcGHH/6WW3ducP3mxxOh7FP2MOUUmDoHJlLzLndu3ebWjZt89OHv+Puf/4K333iTt37yBm++9hN+/P3vcfrEIXTJSeSaCrBbNuC1DuAzH8ZnEWgO4bcOEbDea8lOA/PzXSdJQHMamNPA/EPA9ARP4wlfxB05jyt6Bnf0NJ7oKdzRU2rVw9V0nrrwBVzRcTyh04QCI2xv7ODPex389FQ1H/TO5XeBWfzc8r/xft1MPumewy9OW/mrUTt72loJRw7jbnqVhtgVHC1nsbeexN56AkfLKdxynit6BV/kGh4JJxCgtp+mvuMMDR1jKoxgcr/ywdbro15/wS3ZhyrMJwFmk7kfKYHmM0/2eRC608AkKGe0SvtpLB8lVNZPqGIf1uUe0pPyyTbksKBgAcWFRXg8bg6MjvDNb13ju//jf/D6j1/j73/2c3732w+4+fEn3L11m+sffcxv/uF9fv7e3/HOG2+q9ut/+U//mb/6V/+SyxfP0LNvFw011RStXUXyC7PIMhRQV9KOS8XdjShQBuX3UN6PPE4FZeL5dEv284PnNDCngfmHgXkGb+gK7sgFnLFjuGJHVbmjJ3E3ynzzJPbGsXjSTuMlPNHTRBtH2dK0i1deaubNQTc39qzmNccMfrlhAT97OcK3djeyKdpJKDKEr/kCnqaLOGMXcMqjxNq1nFblFGNP00UFTk/TOdwtp3C2nsLefo769nHsf4RrJZ8ZmM2WAaQEmtPAfHbBBeGJMPepSUEywwyU9hOyjhAtO0TYNkKovI/6wnby9SsxJmWhTzLy4tdmYDQa0WhTSdEkkTRjBiadgSXzF2IuKqauqhqP3Ynf5cHd4KC2sgpbqZm1K1YxNy+fjDQ96cZZGDTJaGalkm3MxpCUTp5xCXbLJnxl0pKVFqw4Y7vwW2UH817STwKW8jgNzGlgPirU4Ksyw/wiW7LqoknoMu7IGM7Yy6pcjccVGB1y5SRyDGfTOeyNF6gLj+NsvICv5RLO6AU2evZwIdbM3+518T+3m/luVy3jm9vZFNiN038Kd/Nl6qNjOMLH8Tafx94kqyMXcDWdw9l8Jq44WwSgZ3G1nMbTchJ3yxmV7lPffgV726V/HDPMJ1GYLdYBWuTqhqxVPKgIn/XraYVJyDJEU+URAiUHCJr3E5TLKBV7KVpoJ1u3gLz0BWiT08hIn82s5Fnk5eeQrjdg1OjQJ6eik0pKQTsrmeQXZqjSzExS3zOkaNSjPiUZbco3MKQaMKbmYUqZz5JcK3ZLJ77yLny2QTW/9Esb1tI3UdMKM9EqfV6P0wpzWmH+QYUpEXmiJidK2rOiOH2iOsNncTedUq1Se/Q8jtAlvKGz6r21bcfxS9u2pp9d4Z0c291Ld8QE8ioAACAASURBVGcHAccOGhvP4Wu6Sk3oOPbmk7harlITG6da4u2az+ONncMXO4O76Qz2lrPUt45hb7mAq3k8Xq2XsbddxtE2/tUDZqt1EClRmZOzzM8rkP2pgNlHVFqYMmcVg1JpD1FzDxFVvahAdXMfYVW9hM3xCpn7CZn7CFl6VbKOpOuELV0qyzVc2oVkyqrPsPQSVfVso/EepTDDtmGaKg/hLxmcWDEZoKmqn1h1F37bZpzmNtYvqGPtgiqWz7EwJ30lizPXMi9tOfnaheTp5lOQtlBVnn4h+YZFFBiXMce4nHmmlcxPX8XCzLUsyy9i1Zxyihe5KV8Zw2Pdgce8G48chC7twyetYWs/AdsAQdswAZvMMh8OTbleIrmyk9myTxGJl3DaJm5rquPTUz9Hnlv78IjJaKLc1nhQuts6gOczVuKz7g9fl0D1z09BPhy8ifxayY8dVDmyTsmRfVSW7HQ0ngpf//yzZA/R4JA6rMoue5cT5XC9jFMMP+6XcXmOTtQxFbru8B6dyJD9lFmyCZfsfaafE7hVruzvR+NJ0k8cmDK3PKPmmd7QZbyhS3gi4mAVV+sYrsbzeKLj+MLnVDKQs/0MzugYgcglgsEjBMJD+CO9BGKn8EQv4FQt3jM4mk/jaLqsIu/qJTS9SYA5hi92DnfTWRzN8f1Le8tFnC3j8WoVZSmwfH5JP/Wdl2jYcDleG6/QkKhNV6h/SNk3X71393LTvecNU57bN19jsrbc75Jt2PIqk7X1VRq2vkr91m/yv7RaBojXPWjKmkmkuDu+bvIsVeZTA3NAQVOFrZu7iZq7iFi6FPAElHE49is4hiw9hCx9BM2yuhF3o4as+whZ9xKy7iFk3kPYvI+wufsBYEqe7OffkpUM2ngOrRyg7qPR1kOjtZeYbYBm2zAxuYBiGSZiHiRU2k+wtIdg0R6CRTvxF27FXbgB5/p27OvbsK9rx75uAw3rNmNftw3n+u24i3biLd5LwDxA0Cx/H3oJlvYRVJ81SKCkj0BpDwFLN34p1XaV9uyjganeY+mLh7JPHJb2lj55jqxA05s4TJ1YVUk8TgJToBkvt60Pl60Pgd2zAWb88+QznWV9uMrlCkmiPt+g9Ul4Toa9xyEpsLwfmMM4q+6v6SxZCV7/nMPX5cKJQ+qwKofzCFJOl9TLuNxHVbk9R3F7jqmSCySJbNjP+ujyy3rJw4B5Co9aI5FVks9Q0bO4plbjOVyxuBvW3TSGlCd2r+S1gFjmmPGSCyTncTxNus9UA9BTmH7qOi9Rt+ES9Rsuq5qEZQKaDz5OPRI9FZCPed6w+do9QE6F5ZZXqd/8Cg1SW169B8yWiVmmuGY/t93MzwRMgaaoTVGYE7ATVVk6QMg8NFFx1SbhAPEaUPAMW3ruqczSHsKl8Z+LlMavksRzZJ+XwoxfO4lYh4ha5XSY3NuUX1t+T6KY+1CB8LZ+GsukBoiaB2iUDoCtj6aKXpqqemiqkeojVtVHpKKXkE0g2IXfvA+/uZtAqSQKDahUoTg04+AMlHar9wQs+/CrCyVy0ktueD58rSShOn3TwHw26yXTwMTxuOzYB7/3vLJkp4E5DcwHQJlQmAlg2h8GzCZLP5PQfJbqUj7rMwOzn7jKlHZqHC5hswAzAciJNqxqz/ZPtmnj7dv4zyhYlgwQLhkkUjpIxCyqUoD1vIE5TFSpySF1b1N+fQGmtJQj1l6lPqPl4qYdIGbdT6OqYaK2AcK2OCAFkkGrgDKuGAWYAWs3QWuvAmZAAVNUZqJ68Zu78AlUBa6WXnXs2j8NzIm7mM+hPTsNzGlgPkSZTivMS9gnjkk3dFxCWrCJ+qIVZkJd2qe2ZBMKM+GanYTmszws/UyBGZ9Bhs3SgpXqmmi77iZs3aPatlHzPqLmvaoi0sY1i7rsJVwicBogYpYbmNKKlTnm82rJCvDktuYwUct+Gi0HJg5Ty2u5vdk/WWFbP2HbAE3lh4mVSR2isWyUqG0EmYVKy9lf2ouvtBtf6YS6FGhaRE0OIMCU1mygdJCAWaofn7kHn7kbn6VHtVj9FjH+jOC3TLdkJ9umn2em7DQwp4E5DUwmj0hPQDIBS3n80gFzy6vYt3wTx9Zv/X5LtnnCNStKM96afYZXTJ4amKIspR2bMP1IS1YqYfDpnQLNPYQte2mU1q1cBTF3EQenALNbmX3iLVlRoImj0dIGfR4Kc5BwWR9hW58KMIhaRiaAOargGbUMEbFI1uyAqpBtgJBtkJBFaoiwdZiIdYSIdT8R2wGiNnkcJmQdUJBUM8mJ2WTQ3EPA3DcBzCH8pUP4zUN4zf1qjhhvsfbjF+haE/Vw08/0DPMZKs9pYE4DcxqYf1TAFGUp9VBgyopJfM1k4EsCTIHkPVCKQzbukpWWrCjFRDs2Pq8UtSltzcaSCaOQen8CnOKOFWj2Ei4VYEp0ndynTMwyP2/TzyCRsh7CZT1EbP2qJRsVhWkeJWLeP/HX0k/Y2hcHa3k/4QqpbsLl8nN9hGQNxTJM2DxCyDys2tGB0j785t64erR0x9uy5n0EFDRFZQ7iN8ussp+4O7Ubr7UXn7Rk1S5m4nEamJ+7ypwG5jQwp4H5RwdMhwBz24MK0zqAKMwHK7FuIjcz5RSYnAQT9fnEcXqPUZiyAxp5oGT1Q0pMPnGl2BU3/ZT2qfljuGSEQOEIoZKDBIoO4CuUueBBotZRoqWjNNkO0qhUmyjRLuVIda7eTlB+H9ZhYrYDBIsHCRUP01x+8Dm4ZAeJ2ASWcWDGjT8jE+pS4NdH0LKPUNkefNaXcFs2UV/Uir9yE27LBgJlO2isEtXYo1q6wdLBeOvVPAFM1WbtUXNKf8keAuZuXIV7CJb1EqzYh8uymbriduqKO/HaduG17sNn6yFaNUywTFTmo4Gpvpcw/siayaPcrgnX6yMeH/lz0y5ZXJXDOKWmXbL3oPocTT8NE8afuDtWnLFxd+yjXLKSKfu0B6Qf5aqdupfpDZ3CGz497ZJ9zi5ZMflMLdf2b5OoybUSNcN8CCwFnpICpHYgZd1EDk0rYPbQ+KSmoKcGprRXEyVqU4AZN8MI8ALFohSHiFWM0FQ5iLdwN4ESccYKmLqIlO0hbNtFxLaLpopumir6CRZ3ESrtIyZpO8UDhESRfu5rJQLMvomSeaXMMgeJWgdpLBvEV7KbknkBlmaUsSijkIWzVzN/9nLyjYvI1S5mZW45HvMWohW9NFcdICSrI7Iuch8wxcjTQ9jaS0Ri72w9eCwvUbSogXkZy8g3LmRO+gqKFjvxlu3EVbIHR+FewuWPd8lOA/MZtWWnFeY9GD7oiH3Y62lgTgPzOQNTmXwSqySbX5mEpUDzUwNTqUxpjU4NNXhSQ9BTAVMAKTPMRMVnmcolK2af0r34SnZSs6KF8sV+alYGqVjqo2pllKqVEapXR6hc4VdVvtSLdaEXb/EWQubd6mebZG3D2qfWOT5/YMp5rzgk1aNtQLVmBaJRuY9ZtpeaNU2smVNOvmE+abN0mDRaMnQm0malK4B6bRuJ1fSqn5P/KVA7luZepTrFyCPhAjKflN3UoJh/yvZRsz7K3PRFmFKTSdelYEzVk540h/LVjcTq9uMu7sVb+gfUpajPaYX52VdLpoE5DcyHtGQTinNaYX6Bpp+JXcvEOomskcjsMqEuPz0wLfGA9t9Xmj1PFqf31MAcJFoqNbGLKS1JSxfBkp2ELDvwlnSyJttG1osFZM3IIf2FDDKSsjHNyiIjKRfTizlkJ88nL3kZ8zTrqV/dQmP5XqLWPTRa9xGzddFU9nxcsuKOlVZsRMFS1KbAL646Y1WDNNX1EKzejHllFTlpWWTodRhSUzGmmFiYtRpv2SY101SrIiV9E+EGDwBTFGdxTzygwLpXhbtnaiRiL5k07QxmpxlJm5XHmrlO/HI8WlZrKg5Mt2Q/T3ds4rOngTkNzGlgfilnmGrfcmIXM27yic8tnxiYkzPNREj7lNbsE+XPPjUwBZSJ6psw/XQRtXXRXNVDc80eXEVNlC9rYE1eIRkzTRiSUzAkp5KhTSc9OYtluYVYl7moXhkjZN1N1Cou2y4aJTKvZLdy0D4fhZkApkByyjzTJoEGI/hkPaZqN/WWKAUZC9Ana0idNRNjqokFmavw2DYRKpOYvyHCpUOqlSwqMyCmnwmFKQagkMyDJRChsp+qNY1k6+aiT0nCqEsh5cVkMlIXUb66Ga9F5pxdhMumW7Kfu+FHoDkNzGlgTgPzSw1MUZZi8nG+9GeqngqY99yz8XWTcGFXfJ75JHPMpwKmzC4TTtnEo7RQ+wmJwirpIyr7itYuIuV7qF/dzBz9EgyaGeg1s8jQG9UVkPWLavBX7CRc3k+0bD+h4hGipSM0moeJFPcSUwEG988xIw8cgJY2aiLaLh5vN6W9OrXVKu97xLUSpS7lvQLLsu74o/rZUSLWY3hL9hMoH6S+ZAP5aSsxJGeQptNh0s1m7uxVeMu3EakYUC7ZcKkYniTRp/9+YKr83C4k1Uf+en0Vu1i7qIbc2XOZnZZNhq6AlfNqcVp2EqoYUgEGvtKHXyu5zwg03ZKdbslWj5C4XvKP6lqJ/RDTpp+vdjReQmGKunRu+xaul/7svnbsfS1ZyZMV48/jqtUyqL7fLDc0JQz9wXnmH5pp/gFghu9zyfYSmUi+UdF2E4HrccPPRIqPWg/pVdFxasXEKgaXzeQZBJippGlTMWp1GJJMFC22x28+mvequLnG0oOEigZV4o8k6bRWHKTJNoK/aC++4n0ELYMELRIQMEpE1FexrLEMTTpaG2UtxDYRMmAbJloxRNC2D39JD41lksgjCnaIRvNBtVspCT2SCysqtqlMdikFvr00VkhS0QCB4kFi1sOELSNEKoaoL9pCvmk5Bm0aep0OgyZDAdNn262gHSyV3dNuVWJ68hX14ZfMWEsvgZJ9hEr2EpUZr8TkmfvxlO6kck2E0qURags347buUGslEdsoIUk8sg3HgwyssqfZh6uki2CZ5Md2Ey7rJyLh7MWS1ztC0Lofb+lA/PSX/D239uIq6cZT2kvANojkzMq801W0D6/k1toGcZf04iruxWfrw2vtxm3pwmPtwVHSjat0AH/ZAZyl/bgtA/jKhnCW9uIyDxKsPITbOvgUWbLyM/dKAtwTwevyGM+SlfzYRD0jU0+i9fqox0cozESmrLNyCEfl0H1OWXvVEFKTmbLVwzhU3YNXAmLP8/G5AVPlyE7Nkj2IvSFRh7A3fPpqEBNR/b2fddgP4bAfRh4lR3aqQ1bcsYl6aJas+whOz2Ec3sM0eI/gCJ7AFT6Nwy9h6idweQ/jco3i9x0k4Bsh4O3H49qHz9+N278XT3AQl38Uh/cIDZ6jNPhOUus5jSN4jnrvUdzBQwQj+3F69lFb/xJOzx6C0YOEmk7jDp8j0HKJYMslXMFT+KJn8cXO4mk6RW3gII7wMRzR0ziiY9hD5wi1nsEfG8If2k+k8TCh2H7c4cP4Wy/SEDmLPXoOp8qUPY+3+SKe5gs45GxY81ncbedwt57B1XxKnffytZ/H3XYeV8t5XK0XqW+7hLvzEt72M3jbT+FpPYa3VT77EI7ICN72c7jlCkrTRRwtl6lrvoSr4xpOOREmQe7tV2mQk2Ttl3G1j6tySNpPxxXqOq9S13n5M2fJNmy+ilT9pvijer1F8mMTFc+LVepy27eUsnRv/zbuHf/iPmhOmn7uhbAnwtj/8GOspFeFtEtQ+6cKa38MMCPFPYTlcxLQVLmqE8EElngwgST1iPlHHLLxqySyVylrLjLflLWMfqXAsvWL1Gkrk06PUaclLcVAyRIXAct+wrb4eokAUxRmPORcnLa9BIr2EbbuJVbdS6x2P6GK/QTLRmipO0CsUlqgEqk3zIaaY8Rkf7FoD40VgzRWHMRv7cZftp2ArVdBK1q2Szlww0UHCZb00Fk/SlvtMM0VA7RWjhCVCyEqym4fjeUjaq2lybJfwT9a1k9D4Xby05eh06ag02oxpKYzP3MVfts+FWIQKJXM2O2EynYQmQh0D1l7kaD5YOlutYoTUIHtO/Gu7cMv/6wqu/BIjGD5KF7LbrzyNctBvGulfTsYn2eW9ROoEGh1E6zswWPeRcjWpULco9b9xCoOES7br66c+Mt7cNl24avoIljRr4AbsAziK+1XbV5pDauaUKZyGcVevINgTTdBuc5S0UWgsg+XReDYh698iGDlsHotwPSXj+IsGZ4A35NeLBnEYxmaLIGuyybQjIPTWdaPq7z/+V8reSQw45dLHBX3A9NVPYK98n5gPk8oPu7Xel7AtE9ALgG7xGMcmp8elgLWB392EpgKlodV2HoCjglYPmqtxOM5ij9wApf/KHb/MWq9x6hwHMIZOoHDN0qk8QhuZze2khYWz60gLWU+KTPySJ6Vy8zkLLLzSlhb1ITDM0godhpn4AQ1ntPYQ+dp8B/DFRhk6Yp6dLoCkpMyMKbNYdHiGrzBUXyNF2jwn8bfdBF/5Az+yCm8keNEOk/jbXkZT+wYzphAbpy6wDlKKl8if94a5uSWkJdZhMm0mOw5NVQ69+OKncffeQ23HIVuPIc9cg5HZAxX80V8G65gb5bPOY0rdgJn4zE8LafwtJ/D234BT3scbDWNx1hlbqVgmYOchZXoMlagT1+GMXs9DY2H8bZewNc4jrv9VRraruFqv0ZN9Lwq36Z/gX/jn+Fqu4Kn7aIqV7uYf65R2/nKMwNm/ear1MllEwGn1JZr1G+Nl1wjEbOPml1OUZfPFJhKZT7Ykk2ozge/Lq+fCphxx6ek8sRbswOTwFRxd6X7aBRgloyoxX9f2XaypSWbaiAOTF0cmEudCpjRMlGKAvgDE5/TTdjaQ6S8m1DZTjyl7VSvDlK+IkTV6hgVq2KUrwzhL9umgs59RRLJN6LUqIBNoOcq7sJZuh2XrROPbSdu80s4iprwFu0kLOk6JTtwF22hdlUbFUtCVC2PYi/ciNeyFZ91O0GJw7MMcw+YAxPAXIpem4Rem0yaRsf8rEX4bTuV+vWXduMs2oCjpFntaDrN7dhLmpBHr2UL7sKXlCEqYN6Gr2SPWkdxWqM4rZtxlb1ETVEjbvMOImUjuNbuxmveg9O6DbtlG97KXXgqd+Aq20pDyQbc5m24il7CV7IXZ9FL1K5tp3x1BMtKD+sW11K+JoTb9hJu85746bDSIRzregmqI9VyFmw3/vJd2Es2ULYqTPmaMCVLXZiXe6gujNJgbsVh7aRyXTO1RRtxWnbhsfXgrxikrnDfU6hLges0MB8Hu2fxva86MN3uk/h853H7xnD5L1DtOElZ3X4CTceod+9gwWIbekMBmtRMdJpMDLpsMtOXkZ9XSG7+GjT6hbw4s4Ds7CIqqjpw+bpxBg7jDJ5U577c/iG+9kIus1K16Iw6ZqWmMit1LpX1e/DHLuIKnSPQeAGP72VCoWM4nIOsXt+MNr2MIttu7IGTeGIXqfWeoGCRnRnJ0nXLQTMzgxdnpDA7t4iGwAE8zedxtFygvvkc9tg5dRbMGb6AI3KJhuhlvG3fwt/2Kr7Wyzibz1LfcoqGztPY28/iaD+Pa8tlGmIjFMwv5oUZaSQnp6HTGElKMjBTk49382k8W17B3v4K9e3XaGi/infTK7g6ryl1ae94lYb2azjbruJuG8fTdkE92tuvUNfx7BTm44Bp33YPllPbsc8WmOb+yRuakyEG6izYI+L0nhKYKsJO3cS8t2ISD1/fR2QCmI0TwBSVl6MTYKZNAaaOkqUOBcxASVf8OkjxaFxR2nYSKt9JQ1ETa+fZmJu2lDzNIhakrWWBaR2Gb+STn7ZA7TBaljfgKt5E0NJFU/kwIdte1hW4maMrY2GmmYKMxeQZVjDXtJK5pnlUrPTgt25jXUEVuclLKdCsJDtpAZmz5lOgX83K/DLqS5pprJYovEFilv1K8UbLBrAXvkRBehyYadpkjBotC7LmKxUrR6d9pX0UznUzz7SauekrmJO+lNy0BeQZVrHAZKOoIEjt6hZWZVczX1/GotmFFGQUkKlbQLZhKTlpCyhdFiBYLusiPdQXbmTFnErmZRYxN3Mt+bOXk2NcRI5hEfn65ThKm2goamHNnCpytUvUXDhDm4spNYc802JWz6ugel0LPlu3ar36LQfiqyq2buzFndhWelmSU0yefiXZmuXk6tawKLOUOca16p/Xouy15BmWsTy/En/VLnzl3TjN0rZ92tNe08B8FlB83Gd81YHpch+nruFl3N4xXN7z2N1n8IaOUt3wEvMWFZOsNWJMT0erM2LQZ7NuXQ12+3Zc7m58oR6qajawcFElSTNzyc1ZS2VVK8HGIzi8x3CI0nQPM2d+Jan6XLSGLGampDNnQRV2zzC+xov4G89Q5+hj2TIX8+ZY0GnmkZySjdawmLKKXeqAtCNwEnfoFMtXu9HqUjCk6jGk6EhNnUXu3PW4IwfwtoxhbxpTp7s8LedwN57CFztNoOU8vpYLuGMXFEQ9TRfwtksL9SJ1HdKKvUidtGU3X8bfcYglS0vQJOnIkIP3qSnokrXo0uZS33qIus4L1HdepaH9ojpI7Wg9h6tjHFfnFerarlLTeiUOzfZLuBUwLypjUEPHZZ5F+Lpqxz5GYQowBZSqHjK7TBh/PlNLVs0yp0BTOWafMTDVuSuz7F4mDkjHn8cvkMSBGSuWGL9hpTD9tgQwDRhVS1aHMUVDydIGApYRdTMzJmEBJWKy2UekYjO25U7mpi8hLUWPKTmdwoVmnKWN1BcHWJy9knStHs3MGRg1elbNKSVQto2WykH81pcwL3UzP6OE2ZoCTHotWcZMdLNSyDalsnbhWlbmlZCTmkeOJg/DCxmkJ6WTnpKhQKObmcmSvCLclm0ErX3qIom6nqKAuY056TKLFXWpwZSqY+EEMAPWITVDrC/qZNV8Cxm6XAypJjL0WcyZvY7V85zUrNlI/fp2iubbWZRuJT05l3R9Eia9CZM+E5MunZIVLtUS9Vt7qSvqZM3icublrCBNm4FOk4JBm0xGmo7ZunSKlpVSkLYEU1IOmdosjBoN+tRUdMka9Mk6ZmtzKVpag69iJ46iPfhtB/DKrc3yPaxdUEu2bgGGmSbSk/NZv7iG6sJmaotbKV8TZFHOOmZr8tDPMLI0rxhf1VY8ZfvwSttU5q9PdTx6GpiPg92z+N5XHZhe/zHqHAfw+M/idJ/G7T2JxzfA3PlmdGI2NOnImK1n5qwU5sxZg9u9i3D0OHbXEdz+o/hDB3A6tmMyLCJpRhYrllcTDI/S4DxKg2sMh/sgvmAf1TWdVFa1YLFF8QWHCMVO4Y+eJ9x0jGJzBK0mgwyDgbTUGei0X8NkyqCqchPRpmN4gi/j9h9h+co6NCnfINOgI8dowGCYQVb+Mhr8vfhazuGIibo8i7f5FN7oYYKxUUIth/E0jhLbOEag5RTh9nNENl3F03mV+o5XcXS+Sm3zRWoFcM37Wbq4GO0sDbO1GrK0KRiSUsnOXoK74zCuTedp6BjD3XmG0OYxghvP4u04h73tPHXtchD6m9R1vIK94zLO9ou42i+oR3vHuLpa8lnvYf4hYDq23b9vmQDkg4+fCZjxCyfxHc1EfJ6kAKl6Ri3ZuJKU2WU3jRKmrlJ++lSKjxyCVgqzRJy7cq6rj4BtK7m6heg1Mr80KNOPALN0aT1ByzCxsmFCJaJU9xMp30XlKjt5+vnoZxnRpeqU0UZah9FyMd/001DSgW5mOhmyu6hLQfdiBuvn1sfDDsp78JXtVLCZl7laATpvdgGaGamYNMnMTi5grr4YmwJTJ7YVHoxJs0l+IYmMtCzStOlkG+dRW9hKpEKOSctMVVy8fdgLtzHHtJQ0MS+lpGFKSWdh5hL8ZbsQYHrkhFntHiyrHWRo5pNtWMLqReXUlLTjrxQDTjfu0h0EyrfjsW5mfuYyDJpvoE1JRpOsQ5uspXCZE0+ZrKMMqIxZV9luLGtCZKUtQq81YDRoyTDqSUsxkWtYzKo5NVStj+Esa2dxXjG6JHHwxpW8PknH/Oyl1JY04bLuxG3pxW3dS01hO1naxaR+w4BupvzLlE+dJYavqhu7uYtQ7QjOsi2sXlBBpnYOy/IteCq3x39f5aPYi4ee3vQzPcOcdLQ+C0A++BlfdWAKiLyhI7h8clD6Zdyu/axd7SMlKYvkWUloU5PQaVJJN82j3NaO23UIp+8E9d5TuEMXsHtGcfu6yS8oIjkln4zMFdTYd1PrPIAneAF/9AAu/1acrs2EQjvx+bdQXtVJnaMLT+gwvkgfZpuL5FkzMaS8SE5aKjlGHWlaAxarB1+oi1jrMXzBIyxZWoPRoEH7YhJpKRp0uplkz1mFKzykFKYrNkawfZxI6xmc3iHq7bupqN3Keksz6yxR1pQGKK2IUN7QSZVnB/4NRwluHsfRJrPGKzhih1i0rByNZjbphnRMWi3aGSlkpc+jsXOU+kAPJZUbWFfWiq1+M7Xe3fhaDuLfcIaapjNUt46reaUYfeRiiUDT0XGR5wbMl76JmHweBOSDrz8zMFskOk9uaIoCFBCpGeZTtGQlyu5B048y/kiWbBeNUmLwEWDKSomk2YiDU66RlAwQKx1Srlq/dRN5egGmjjRRmFo9xlQBZh1ByZWVduZ6uWAygrOolXnGBehm6DDpjaSkpLJiXhnRWvnsQ8q84rXtZLZ2DgatFpMxGVNqOvPSVtOwaiMhaw8hmYnW9LBucTX6FA0m7WwFGIH0ygIrQQlIqN6L37qdcOU+ipZXxIGVqic1OZXkF7WsnV+HX3ZDbXKtpIdoWQ/2wq3MMS0jLVWLMTUDY3ImCzJX4LPtxG/rw23ZRelSD3NMqykwFlK2OkKgehf+crl3KalBI/jMXbhLtxOs3EvRknLS9TMwaDSkaY2qild48dikJSs7mAcIVx/BYd1BrnE1+lQjeq0GvSaVLEMBy/LKCFTuw1G6G491H4HqASvGuwAAIABJREFUfczLWqv+WkwGHbrkFEyaDEpXOvFV7sZl6aK+eCtr59sxzMwhXZNBuk5PdloeZes8OG17cEgmbfkIrrJdVBbGyFd/LaX4q7vV193WA7ito88WmBNuWeWSVcYf2Y18Tg7Zx+xhPtIl+6U3/YziqEvUwfiOZf3E48Oi7p70a8rwIw7ZKS5ZcblOcbo+E5fsfQ7Zo4jx59Gmn6O4PcdoEAds9AT1zsN4vIexN+wlK2MlqbMMZJlMynBo0Bgw6OZhMW/A7z+H03+SGmnles5j9x4lEB1l7oIacvLNmG2N+KMHcXhfxu46TbGlja/PMKJJyWPmiyZmJRl5YUYutsoOKup282LKIpK12Rh0qczWp2JKmkWWtIE1GcxMyuAbM+awaHkAp+cAa9Z60Ou0pGtMpGuNpKS+SHrOchzhYTwt53E3naQ+0MvS1UFmpqwiOXUdBpMVfYaVlLRVfH1WNjNTjHxjppYXU0zkLSqizLEL/4ZxPJuv4Ww+wvylFSRrs+ItaHH2p8p/F0yU17SSXWBm1qwCZiTl8sLMTJJTCli22oEj3KdUZ33HRWo6rylXrLRhBZSJepYt2UnDz6Tp5xUatr2Cc/u3lCP2wZnlMwVm65TLJpICFIdm3Nzz0ECDx8wwHxu+bukmJrmwRfuIFPfRKNc6rEMKmlExzBQP0qxuS/bjLulgrmkJBq0OvUaLUWsgQ6tTwJTbkOpCicTsWYYwL2wgSzcbXXIqBp2GVG0qhctrCFXvJVa+n8bKfsI1O8kxzsMg8NC9QFpqKukzM1X8XlTtUQ4RLOuicFGNgpsA05BsYrbORPnKACH5/ak90UGiZSOUrfOhS81AqzGodRFtso5l+TaCFbuR2aUkGEXLu7AXbpkApp601AzSUrKZO3sFTstmglV7qVgTIN+wjCW5hdhLNhOSWaTsYxbLZ+wnYB7CJ6snZbImso+iRdWYNLNIS9Wpf6GM2kyKl/nxyHkv8zAB8yheCbGv6CUvbW3819Qa1LwjI2UO9cUd+MRJaxklaD2o7mfKzFOTLEpUp/7+6JL1WNe6cZVtx2Xuxl66neV5VZhScjFpRImmopuloSBjqfq1qwu30VC6F6dtJ67ylyhc4mftvAiesiFclgP4Kg7iNA8gKyFP3pZ9eEvWae3Hae1TayX3oDnhmH3UKsiz/PojXLKuiqFHhq9/WV2y9pr92GsPYK8dxa6gGQel81kDs+4BYD7BGsmDMH2US9bpPKIgmXDIfqpH7wnc/tM43afweg9RVBghI20e2iRJ5hLfgQaDxoheP4+6hl24fSdx+g5j975MvXsMb/gcDa79NDgGcHuH8AUP4PS+jMN9Cr//CqWlrejkf8A18j+4OuWYn5WcTnV9Ow2ebtaXRli2sozkWSmky3/nUowYZmRg0sxl8TIr60vClFXvxO07zMpVbrTy38NUE2mpaWj1qaTnrsIRPoAjdgF3ywEWrS9ihj6HWdpF2N19eEPH8EZO4/QPkTunBJ3BhF7moLokdNJ2zV9PsOM4dU3HcTWPsmB5JSlp2STrdaRok9ClpqJN1pOZt5YlKyqZm78SzSwRMGmYtOnoNDnkz7fgbTuEe9N5ajZcoVbavZ1X1E3MxG3MZwlMWSNJQLNh6zUc27+Je9e3ce+8f33kQVAmXn8mhRkH5gBydPoeMB9zxeQpgdk46ZCN7zFGywRS0n6Vo9HdBAt7iZYMEbMOE7BtoyBtqQKgqEyjxkiGNg2zKEx1Dkwi8PrxF3exMs9MuoArNRWDXosmNYX5OctZv6CKkvl2LIsbKFxgI1uXr/4hG1JSMaWkkZmci22JUwW6N9oESrsoXGTDqJmpVFRaipZMnZ6KlV5CVglWiMfuSctVHKW65Gx0SsFp0aZoWZZvfQgwNzPHtFwBTtqnaRoTc7MWUW9uomp9mDnpCzElG5Vz1lm6gaCtB19RLy3lB/GskTWQfiSMQA5Qyy5k0cI6TJok9XkmjbRMZlOyzIdX/l7IHqjsP5q7CVZtJ9+4VM1rjWqdRUccmO3qFJi0g0O2IQLWHlbMtaFJ0WJM0ygFrk8yYl0dxG0T17BAbx8lS30Yk3PRzdJikhWZ5GRMWiNZaXPITlukDEb/f3vn3d3UmbX9L/Cudz3PDGDL6t29YeOKMcVFOpItd0vn6Kg3V1oSSggY94JpBmM6JCSZzMzzvN/wetd1HwkMgUwghGES/7HXLR0dJMzC/nnvfe1rH2sZRH9XCqPSF5D9iwhJaxjvXUWIM56BeYR9S3vA3DWH+WZp9N/1fA+YOwjHHkFR7yOsbuBoZxAOaylsxpI8MM0aMG11GA1eEH3LcGwZsroIWd1CLHETirqozWjGNqGG1zEevIZo5AHiyneQuqZgN5VpbmUWK2wmA3Q6N0bGv0Qydw+J7KaAp8FghcWgh8tkhLWEFaRq9AVOQU1cQzR9D2p8G81tYzDx+99kFYp7s02fB+Z1yLnnGEuvwXWoGf9lcKG6yY+J0zuITTxEbPIpUjP30OtPoVhnhNtuRbnTDpvBBrurHaH0KpTpHcQmb6Cx0Qej2Q2T2QSTqQg2iwUHDljRNTCDzNktjITPw2xwoMLKnylGmIrNMFtq4Rk5DfXMQ03cQxEQxUEnCU3GxxX9EJbsZwa/+htC539C6MI/IF/8JxTGpyjJCtu8PDAL0GSm+fEyzEUke5aR6lnEZN8qJgKrSPivIuQ5h2DPGUS855HyLog1XgRSou8SKi3NsFkMoizrMLngNjngbR3T1mf1zCPnX4Zy/AIOOtrhICzNZlG+tRgsqLTXo9pyCFWGRjTYWlFnbkStpRk11iZUWxtRa2tGreUwehsVxHsvIieAeRHdzRIcpv1wiblPI8otll3AXEZWWsWE7xoCnWlYS6oEMPm5FoNJyzD7LyPjX0Vams9nmGfzGSZLyxbxn7y2tAbHm/rh1tfDUmyEy2yEuagEHTXcYnIBsd6ryPk4L6oZGGjApJHAEroPjeWBaYbT5IDL7EJvmyrM2mkykOAcqXQRicEvUOtoygPTApvBCrehXmSYcR9HRbjUegUJ3xUcrpdgMhjhsFOuboatxAX/kYyAW9S3JRSuw92zqLQ1w67nb7Y0YDAKIZPFqINZXwyr0QCX1Y0qZys6D4URpKlB/zWEfKsI9V2G3P81wv7FPWDuAXPXDOX7zV7uzjI/doapxh5AjdyHEl5GW1sfzCYTHBb+YqqNgllNDlhsNRgJnoMSv41jJ+KorZNQUTGMhsYhtLYOoPXQKA7Vj6K5QUZjQxihsTUklUcY8EzDbSmHkyNyQmRXggP7HQgMnkV68jmSE/cQGD6LYp1NiPTKHPw+LIHVUgmv7zwiqR1EM08gx7bR2jEGm53WmASqCRZbCdxVHZBT16Fkn0OZuIODx4bxf0uqoHN0YDS2gHDuDqJTDzAaW0RdswSzxQoq9i26Itj1DpgthyCnlxE/9Rip6dtoaeyHzVwGB4HoMMBhd8Bsq8dweh3KqUcITm7BYi5DjcOMMqNOiDFLih04dGQM0TP3MHbqOUYJzJMUFRGaGjg/ZobJOczxL3+AfP7vGiS//qfIMlmS/XTA5FowibEsguD8mMBMe9aR6l3CDFd39ZyDtymK9mo/Wit7cKJhAKHjJ5H2c55yCTH/RVRYmmG1lmjANJai1OSC1DKeB+YcJvoWoRz/CnX2JtipBrXYYNbbxahEb1sQ0f4vEfN9hYT/HKKer7R5St9VsU2EG0Wi3itIB24g13cLOWlTZLndhwZhNxrgNNPH1o4ysxv9h9NI0oyA5WLu55RuItCZga2kElajLV/GNKO9OoBE3zwyvk2kpUVk+ucR7DorRkXYczTrdKhylwqIVVga4NDVCCGQzVQCU8k+uIzV8LSFkOi/gKTvqvh3iEvziNIaz8850OU8MHXi62Vf12lxoLdNEa47MWkeCYlm7XNIDlxErf0I7IYy2E1u2PSlcOubMNZ9FnFpDQmaP/i4vHoJHXV9MLNvazeIb0I6KmnAXIbce12YESj+8+huHcXBsiMwHygT5WDRR7UUw+3UodRVDIuxCIYiC6y6BrTVyZD75xDqm4c6uICQ/5u9DPMzNS74s2eY4SjVrrehCtHPMlpafTByUYJNr1WtTFZYWHq01WEkeBFK7C4aWgZgdRyEydoMg8kOo6kIFr0FxiL+DCqDTlcqRD7Z5G0MB9KircQ2kICwvQgHdFZIgVlEMk8QSe+gb+gCDKzgGK1wmPQwl9AStAr9AwuI8Z7MY4RT99B+dBwm8z446H5G+Fr0KKs8gnByE2r2CSK5b4V7UGb2IeTEClIz1zEcuYJj/ik4a06giOC3F8Nq+Qusxn0otdthczUhMqk5+cRzW2hrHIbTUg2r0QSLcT9MRjPspW0InXyIgYlnGJ3+FnpzFUotBrj1RaiwOWAxuFFR70F4+ibGTz0VilgKf5hdcg4zKNx+vvsoTj8iu/xSyy4VApJZZR6YofOfGpi7d2lyr+R7qmTf3cNcFIueuUg613cFvkNhVJuaYde5YdfZxZjG8do+RL1fiuXLUf85VFqbYbXp8sAsQ6nRnQcmTcmvYKJ/XoC3qbxd66tZ7MLowKW3oLtpGMkAly8vIE4Rk28dia4VTPatI+ufR6bvqnDyiXluIuW5IWYn6YTT1TQAu0knlLlWA0cx7PkeZn7fpZcZ5gYGOhOwl7BsY4bdbIBVb8bhqkEk/cxCb+ZVshT9nEWtGCthJmmHTW9GqdUJz+ERHHQfh8NQJfq0bhcFS27UlrZgpDeN9NACwj1ziHOZtGcBSf86VM8yuprGRMmYkLVbzOLv2dsuI+K7KlyKaKkX8ywgMXAJNfZO2IylQhhkNdjgMtRirHcaMf8COAOa4r+JRGAGRI/CaaMFoRG2Ehv8nXGEfXQU2kDEvwRZOo9w/1kEjmfQUjWIatdhuK3VEGIIswF29kMMOvFDw1TkQqmlFb5jWQT9l4Rvq0xbvb0e5mvWeP+uEuybn/tnByat7+TITXAeMxrbRHv7MIxGK+w2AsMMq5nAdMBsZ4Z5AUrsHsaUBQyOfIXA4Jeob+iAyVgk1u05jQ7Y9A4UF5mRTF9EKnkH/YEpGE2lcFjdomXkcOlRzGrZ0AzUzEOE09vwD51HSUk5THoTHEYqYHVwO+rQP/QNolla9W1DTtxG+9ExlOj/CofRAqfRLqpq5RVHtbJt9iESk88QTe9gVLmMtqPjqG/xwOxqwz79QdQdktDYdBRm8f2qg9NmgJlQdDdAnV6BMvsASvoGmhpHYLNUw6AvgcW6H2Zms6WHRLlVGBdMP0ORsQpmLoEw0ufbDrPRDVfVCQRzGwieeiJ6lwVYhmZfgDH2EfZhFsZKQpy3PE9j9b8LoY98kSXZf0C+8IlKsq95z+ZFQDRqfysw6bOa72MKNe0bUH1pi5e3xyMkU55FTPStI9F7GUnpK3RWS3AUO+Ew61FqM8K476+otzdB6Z1G0v8NVOkMSk31sNqK88AsR6mxHFJLCEmxxWMOOQG9C+ioOy5q8vxPLSz0dP+NjuouJPvnkPbfQqL7BnLeO8j23MBs/yZyPpZNL4kFzin/TaSl68gSHn3foKvZD7t5PxxWI6wmPdw2M/o6FSEIImS5HSXXt4iBoyocojxpEF+DrcSMjqoh0WvMSrc1v9q+RQS7z6DW1SxUrU7OWNJLtqwe6sAsPO1RlFs7YDeXwmjSwWYzwWkrxeFGD+LDV4RHa0zijsslJPwbCHuWcKJpDHZzMaxmHexU1Fls6GkPCcVr1DePOO3rOJYzcAnVjsOi90IhFL8Wp6kUo94Uov2XEPcTwux5LqKjdgCWEgecNoqrjLCXWODvjCBMuzwfbfC+xtFaFcMnZqH4v0bIexlDPTOQjqk43Cih0tUoLP8IT44AcajabixDx6EAlMAljHtXEPLQS3btw0qyr3nJatZ47xb9fCKl7O8o+gkNbaAQb8Lt93j+pwemSjXrLcjyfcQT2+g4osJoLIXNassD0wyLxQqzoxLDofNQYjuIJp9CVneghLfQ3NwvMkinwQlHiRMOgws6nRXp3ByC8m10eWZhsh2CzVorQGy2GlBkdMI7PC08Y8OZLXgHWZJ1iazObdHDWlIkRIX+wS8Qn9xCOHMbodgm2o6MQm8ohsPggNPgFkKiivLjiCY2EMveQzh5HUe6EnCWNcFgsaPYoBOK1xO9KlKpOXh7ZTHrTccxiiltFhdMpQchz8xDPfMIysQtNDSPwOKogYHtMOd+mKw6uCp4z02ETz2FOvsIJdY6mM1m8XOXo396vQvu6m4EsxsInXwqRkqYVYZmvxfesjKt9z4iMEVmeeEfIDhpVkDRD7PM8MV/PVLCku1vE/28y6zdt4pp/5oo02a5aUSAcRFZL0dPNGi+DZhvg2y6dx4T/QuIdJ9DxPMl6q0dsBXZUWo3wGkxoOi/dGgq92HkxGnE+q4g1n8StgP8zeUvcFossBY50eDsxPjxk2LZcpqm6t55ZAavoqdlCFYdRT9mUUIx7j+AemcrFA/nMNcR79nElP8Bokc3MeFj9reIdN83CJ6YxviJKdAaL9e3iXTgMqT2QdhLiuEwF8Np5YiFDYNdcSQ5E0kzd88ScoE1DHXF4TCVChAadUVCxdtU0YVE4DIy/TcQ6V6B2ks7uC/QWH5Y9P1cFheM+204VHkcsv8sIoFL6DwYgtNYg+L9+2G1FMFl42+OZehpVRDr4+ctYmJwU7xXsOc8jjYOocpdDbedXy8VfFZ4Do+CYzNx3yoivStQPJyNPIWG8sNwmk0C6Fxg7dRXI+Q7iWg/ze0XEOtbQbx/CUcPjcBicMJQUgQn3T0M5fB2pDDumRPq1rHecygzHEGN/Sjiw+cRCXwDhZZd3q8RG17EUO8sug6PwlzC3qYBViNLxmVoqfVjXLoExbcGxcPRkg8B5uvKWs18fQUaMJch04Cdvey+FS0+1WjJBwBTHlx/zYx9twl7AYSh4Q3sjsL13/P8XIEZGr+JQuzuXxYejwdvaJtJaLwu34IcvgNF1UZJfpU6lveH7yAoE5h3oaiPEInfx8DQZZjMjXDayuCy6OG2lMCkK4LNVovB4XNQYvchRx9DiTxERL2NpgYv3Ha7GPWwGuywWF3YV+zAxPSGGEHp8WaEnZ1Bb4bL6oCbrSNjJYbGvkA4dw+h7C34x7+CwcT2iRmW4n3CEcxuPYjA8DzUxA5C0W0kJnbQfiyEEs50W7UeJufAXa4OobZNn3qEw11xmCylKD5QIrJPh8uOmiYfIpO3oORu4LgvihJDMSx6HewUPwpgHsLY1DJCk88Qn91BdXMvigxWWG1muBxGuF1WVNQ0Q8nehTz7A0Knf0CxrhJuGrFwPtVRiv3FDpTW+xGZ5T3PEZzlSMkPohSrlWQ/QPRzhkYI3yP4xY8I0t3n9HcYP/sDwuxb0qDg3E9Q+FjMXv4DYY6U/EKGuXvN128G5pum7SLj9K28BCb7mVmKgAorut7IKt8GydevzSPnW0C0hybgczhaMwR7URncFjMsJQZU2OshdaQQHbiM5OBl9B8OotJcjjK7BS6TA87iSnRUDgg/16yfZdUNIY6J+/kDeQYNZYdh2GdEmd2NMocL9hI3Ouq8UH1nkWYfwLOAbP+amLnMBBYwcnQajr80o7MmgBTHSuiXKl3AiQY/3AYLyliO0RfDbSmDpz2E1NA8wt1zyNLIXVpAgGMlOiesBhqqm+Aw2dFUcRTJwYtI9a0h1beJlPBQnUK56SDcFqf4ZiizVaKx/BhGe2bFppHx3i/QUH4C5fZKOKx68cuDy2RHraMVsueUmOdMcYtI90VE+y/gRPMIrKIUTJWbC5XOCnS3DiLSdx7p/muIeFcRCywjMvAF6lzNsOp0QnXn0FtQYT6Eke4ZyN4rUP1LSAysQaHop6EPdosDVksJnDaOoJTCcySByMA8wn0LGOqeRrm5CWWmenjaRxHuO4P44BxGui4i5J3HuO8ChqVJlPJr4NyW2QC3tQa9HSqig4sIeRche14H3/uPl2h//ufAXIFMI/a+VS3+g4BJgApoDq2/NCYgLIP5EODctYbr94Lm5wxMOQ/NAiQLJ1d4FSIYygOTsPwAYCrqXajRHajxxwipdP1ZQ1W1DyVFnIXUocxWIpThdmsNJP80YultqInHiMQfIRa5geaDPWJBPEeuLCYbzDYH/lrsRCy5iODoNjyeDFylbhhKimE3GGAr0sOw342hoTOITe5AndxC98BJ/OWvJjHuRuMC2tIV7XfD4/sKSnQLaZZaM7dxqH0YBqsNNge9qYvE9627rANKfAmhzA3UtQzAzJE5kxnVLheK9v0VdU0BKLk7iMzcQ6dHhdlaggo7WzRmuDnLaatDeOYakjM/IZS8gZrWHpgd5dAVlwhw02lt334LJk8/Q4JOPtOPYbXUaC5AxhKYzXaUWKrQ2h1H6otHGjDFDCah+Z2I8ZPffZA13jjFPdxMkj9DX/4tD8yfBDAJT4Z6/h9Q/93A1ARAK6CpAcuzE74VkV1yXdfrMFz41897lpDzboDCn4x/AwPtU6g0tsGuc8JlLEfvkUFEBs8iPngeoydyaLC2oNJQDpfehVJDDVrKuzHcmUO6bw5Z/4pw+eFqrqj3a6QGL2K4KynWgVl0dpgMReK3qzJ7KZpqWuE5EsCoN4rR3hhGuuNorZBQYTyKptIARrpOCdMCZo2Zwcs4WivBst+EMpsdLjoMGdzoaR1HZmQB4e5vMDG4JsQ8tOgzH3DBVmIXSlWn0Y0Gdwci/rPIBFYQ81CJOo/xrmnUWJvhMjphM+iEPV8VfRl7s4gPfA3VdxE9rWFUO1vFyIZVrxdSdrfRgZayo1BPnBObS6LS11D9X+DYoUE4jVVwmPJzWEV2tNd6Ees/L2Y1aSBP/1ZmktW2JthLzCi3OuE2uuAorkXgaAYqBU/9i4j0LSDsv4z2g72wW/Rw2Ipgp8jKYBH2eqPeKaiBLzDqTaLCWivsBqtt9fC0DSHcf1qYvMeHF6EOfo1Abxqltmo4zA7R16wrP4xhzxTiw0uQfVcQ6aNC9kPt8V7Bdg+YH38V2J8dmGrkDtToHUQSD4TZQCR1G77ASbhcTWJukopS6hTMJhcOd45ASSwiGLmJcPQuVHkVLY3dcDHj4y/PZivMVhv+WmxHLLGIePgZfN6TsJjd4j2EUMZghKWoFEP9s4imtxBJ34R/8Ays5gq4TCaUW4pRZmXvtBTevhzi2etIT+2Is61zDDqzGVZHMSyWv4qZzvLKw4jn1jCe3ERVvV98/7pKzKi02MXsenvbIFKTtxGfuImuXlWMrjhLjCgzWFFK0aK1DuHEPLITL5DI3MHBFh9MFvYoXeCImc1gh91cBTWygnD6NsYz67BZaWBSDIfNCJ3BDJOrAd1DpxE7/QDy7DMEhbvPcwRPPRMxfuoZRk99+/6iny9+xNiZFyLTlL/6m8gs5a9+gsI495OA5WcFTGaWhKUozfppLJ7fNvK+GaZY7rwqRDdJ7wLU3i/Q3TCCautB1Dkb0dvuR+CYjJ7mQbSUdqK0yIkyXRkqjM1oK5cwemwCGZY7++gKtIAkS8I0EvDPI+4jNC9h8GgWtc4OWPUOEJx2g0uoOZnVNVQ2o9xahwpLE8oMbeioCSHkvYRY3xqSfQsYaM2gszKAOmsznDqHmOs0HSiBQ+9CpbkJR2uHEe49g5j0FTwHZdTZ2mDaZ4PlgAWWA2bYi21w66rQXu7FYFsW8omzkBqjaHH3wK2jb2uZmP1kj8Otr0aD4wS6GyJi7VbYdx5tVQNw6evhMrBX60SlpQy2vzjRYvOitz6EnoYg2isllJsaYdO5RTZtLbHBoS9FlbUZbRV+BNpzkHu/RPehKFoqeuEoKoODc5N6C1x6B5y6StQ7juFYfRAh71nI0pc4flAWdnmWEpo5m2GjgYG+HLWOTrRW9qO/M4kxTwZlhga49bWosmgm7kcb/PAflTEmTcJ/LIbWWgl2QzXKbA2oK++EpyOJoHQZYWkNEY4JDVz/gP7lK1AWMtI9YO4Bk1lmIbt8tSz6FuQPzDAj0S2ElOvCGk+Jb0NN3UU8s4luT1LY4Rn1dhj0VugNLtQePIH+0RmoyWVEEmsYGT6HgzUdsBoMMOvMsBhtMFvtMJjLEY3PIRy8C0/PJBz2GljNFrA14jbYYNPVYLD/DGLpe0jkduAfPAeTvhqG/Xq4jJxxtsJsdsM3nMKwfB7+4YuIpq+h+fAY9ukssDnNsDv0MJstcJe3I5xchiJgNwaz0Spm1h06I5xGA6roBKR+jWh6EVU1x2EoNqCutFr8XDCXlMBpr8Z48CxSyR3EU9fR0NYHvaUWJmaR7maxoaXogA2Nh0aQyC2hZyAJu8sFk0kHnV6P/fx3aRuEMnkDyS9p6k53H8LyqRAAaedvBCZLsee0TJLgFND8HIEpskxmmP5VTPq1LFNAk8rT94GmsNpbFFlqgkuR+y8jFfgK/YcVNDg6UKqrRZmuDs59FbD/txvVhio0WFvhb00ieOI0MoE55AJcpDyHlGce0wPrUI9f0pY/+7mv8QrSA0sIeU6jt20UDaWdqHG0wG2qhXGfA4Z9DrhNdWiu6sHA8QxigTkx7B/p3RSrvY5VjqDedBzNrhNorTyGttpONJa3oq3muNgk0ujogdxzEqNHc2h3SWh2HUdrJaMTh8ra0F51FC2lx9Ds6IavMYrxo9PoLBtCk70LzaXH0FLZibbqLjS4OtFc2oWD1m4crZIhd19EqPsixrq+REfNCJrKutFS0Yl6+yG0lx9Ds60Xh0v9OFzuR2t5Lw6VHkNDaQcOlh1Gc9UxtNf24FBpN2otx9FVL0PxnkFnzRgOOk6gwdWB1qoOHCpvQWvVEbRXd6PBeQId1UMY7ZrG8IkpHHL5Ue88joOlHThUcRSHyo6jtUpCo1tCg9MPqZUGBmfRVhHAiYZRBDoTOFwVgP1ANWwHKmHbXw/CcyYPAAAb7ElEQVR70SHYi5tg0zWgsVJC/4lJxIdXofo3EOxeR6zvBqJ91/aA+UYPc68k+8tzmOxffoqSbCRC+7wbCHKRdGwbw8oNkfkpsWUEBmZAFarBWA2TpRY6UzX2G6pR1xLAweYhuN0nUHzABaPOgnJnIypKm1BU7MC+IjcUmrTH78MnzaCkpEwA0Fhig7HIgZJ9tZA8Z6AmHyA5+RSj8grqan2wGitBRbtR74TOUAqdrRYHzK2oa4lATW2ioSUIu7sZZpsLJotN9Cud5ccwpFxFZOIBuvtPQmdwwqR3wCXcz+g3Ww29pRn/5y9VMJgbxHynWe+GkW49LhcslnK4nB1obExhXFlA2cFe/FdJDVqPjWNM/gIOdwt0hgoYzc0oMtagyFoKvdWOvxbrccDoQlWTD4ORK4jMPsLYxGOhiH0FzMcIChHQ8w8S/Wjl2B9QKMUymxSZ5ueYYRZKscIBiD6z0jImCM6+Nc1v9r2AuYhJ7zoyPcvIeJfBLSVZuvx4L0Pp/kqIeYaPZDFyJIPxYxOI9JwWDjwJ/zySVHRKV5GiGQCt9WjeTqUsDeKlFWHEnvAsI+lbQ25wVQh6Ev6vIfecxVjXSYx1n8RYzyxGumaQGPwGyYGriHnnkeu/gcn+u5gIXEfccwXZgRUk+xcQ819GdnQemVEuRr6E1OA8koFFpAMrwmaPlnfp/qvIDi0gNXgFqcHLyAzNITt4FWn/VUwN0Bx+FdGeK8gNLmNiZEkYEkSky4hKlxDzXURucB5pZsvcxckNJ0MbiPbNISydhyp9AaXnFDKBb8QvCTQXSPgvI9HP/u4VxDguMziHaP8VhKXLUKUriPcvirGS3AgBtYh4YF7cx6+X/c1Y4Guhjo34LyM1tILM8Bqi/gUxv8lNJGrfBSSHuIbrGyQCCwj1XoDsuQjFc0nY7I0dvwCVv5QMLiHUfQ6y50uMdZ9BX8cMhru+xLj3AkL+i4gMzgl/2UhgFdHANYSlVbHIOixR9fshTj+vZ5l7GeZehvmxM8xweAvx+A7GlS2EovcwxDNxD8HYTajxa1AiC+gfOIX6xgFY7O0orTqBElsjTI4W2J1HUV8nwdMdRWj0PIYCZ1FT0web4ziC8hxi0bsIDJxFaUUHyquPoaL6BGprvaioDGBodAnh9HOomedITD1FUF3Akc4wKquOw+poh7uqG2UHJbSdSCOa2xKG6ke6Z2F1d8FVcQSuisOoqvegpTOOYOIGotPPkDx1H76xGdQ1+WC1H4LNXg9nxRHYK7vRcjwGJXkVA2OnUV0vwVnRAUtFI2zlbXCWd6OyPo5BZQkHT0RQ2jKCgdgcErN3EJtaQ1tXGGX1PlgrO2CpaoS1ogU1zT4c8SQwGl9E6uwzRDhzOf0CwVmKfb7NZ5hUzDLj/ICxkjPfY+zM9wKQBCXLsMwsmWkKwc/nlmESmCzFsiQroMkZTf8qpvryytneRaS7udVkYZdh+zv6mT2LmJI2BDBz9ILtWUSiewkpmq1zh2SAc4GXkfJ9I85Er9arpIkBS7iJ3qtC3ZqVlsGxlfiJOUz41wR8MxJnJDmEv4osTeR9nPVcFoP/2cAackM0JZ9HZmhVlF8TvqtI++g4tI5J/zVQRJT0riDbfx1Jmpf7ryM9sImotIw4laS+VTEHGfOsIMM5zv5VpOnEI3GOcVWYCqR8K8j414W3bda7jmy+X5v2byDlX9c2k3BBdv+mmP9McVyk6zLiote5IgRFnI+M9y0Iu7os93TyFwsf1cDMoGlgQEP2BUS8S5B7lxDxbSDq20TEy5GYa+LvGfevIyKtIhm4hph/VYyFcCOKyvfoW0HYQ4XskvCTjfrWEKN4qm8ZMRpGDKznv+ZVqN45xPrmRUSkBbFVhfZ7Ud8SItIc4v3LiPevClMDWt7J0jxC0pwQCYWkeQR7FxHh36VvDbF+9i8vf1RgKsJLlgrZFchUyPLvko/wx/SMfdd7fQSV7J8uwxTG67vM18dvIPgyfp5t/poMM7jLbP1DS7KyvIVY9D5C4bsIRXcwHttBKHkf47G7CCe3EVQ3oUQ2EEtuQInMYzR4Ef2jpzEYPIeR8StQlCXEo5uIqXcQi96BGrmO0fElJNPbCKv3EIltQE1cFWVTNbWCaGoVo8oKYrmHCGdfIJR6BjX7FPHcNiLpa4gklxGMLiEUXxV7LtXMFiLZ+xiN3IKavisyzVh2A3yvcGodSvoW4jNPIU8+gTL1AOHpu4hN3kIotohQdA5DyjdQshuIzWwjnL2D2OR9JGbuITyxibHcIkaTC4hPbyE29RyRmSeQZ7agntpB5OQjqNPPhANQlOrX3HUMJ+cxnPoao4mriE3fQuLkPURnH0OZfobxqRcIcYk0DQtOPcM45zFZlqUAaJbesi/e2sMkFBnMJqmGZVDkw2tUyFIRG6YhAVWxBKZQyb5/D1Phfsz8jszfTSXLUmwhCMtCTPnXhO9smptJuufFmMkvbzihNy3Xd+X3YfbSFGEd6d5NpHuvIe1ZRdo7j7Q0p518TphyBCQfGZqtvy28q8gQltIacrT38yyCUM5415HyXhMuPXTqIbjoyZr2c2flolDtTkjsha4IlWzKdx1J6RaS3ttISDcQp/uPnxC9Dr6W8tEdZx1pwlG6joz3FtI0KZBuiFlOXst6N5Hz0hHoGjKeTfH5ce8mYt7riHpuIN67iUTvGpK9q0j2riDhWUHcSx/YJbEAmmfcs4pE73UtPKuI04yd13mPdxVRmgl4OGpyAxHPLfG+MX6GtCE2lkR9BN8GotI1RKXr+eAvAATs2ktYavddQ4xm7L78thNuPJHWEPMx02bZ+goi7Dlzn6V3RYBXlWhosArVs4Gwdx1h7yoUiWboi1B8S1B8NFpfgyqtQxUzlIT7wkcV/ShUxhZg2beKcP9aPlaFUcLvDs09YGobTX7t1pL8ZpKCpd3uU4Pm+wOTsJQVzWw9rN4RPUwxWpIfF/m1oyVh5S7CyjYUdRuhyDbGY9sYj9/DWPwexmP3BUSV6DboCKRGbyASvQYlvgElrvU9xf5M9SHU8HOEw8/EuIkSuQctHgmVK+8NJbYQSm5BSd2GkroLJf0QcvpbyBnGU4Qz96FmthHJ3IWauY9w5pEW6ccIp58gnH4MNfMAkcwOVBHaPUr2MRQujp6kbd0zBCdfQJl4ikjuEaLZR4jk7ot5T16TJ/ja3yFPvoA88wzBWapaHyE8Tdj+DfI0TQYeI0QAT7+AMvlPKFM/Qpn+Fgqv0UHo5A7UmSeITD+HOsPrfK8fEZwlLH8UYBw7/QTjpx/vAiY3mLwLmC/ycPwBITFC8iOCeWUs4fi2+JAMc7dl3icH5oSw0KNZ+5LIMAlOMZv5C71N7sHkai9tvRd3YnKf5Up+1RdheQlp30WkfV8jLV1Bmiu/OGspgvdyrIX3745l0NQ9Ky0h51tCTiIsOSvKsi+zQC6bZhCWawKYKb+2eSTtX0GG8OtbFKMlqb4lJP2rorSb9NFndUkoTwlZEX1L+fvmNCN2GjuIIISXxW7NLP8OvkVkpEVhj0fTdpZcBZBoju5dFrOcSZaQBTA1IMaYAfrmEJOuIu5dRKKX+z6ZXdLt5/KuuAJa4HH1FzPNqHdFZIUx8RmE3FUBOmar2rUV7bOF3WDhdd7DmBeuP1w8rQFzTYOlRIBqwGS5V5XmRYapQXNRe05o5iPsm4Pim4PsuwrFvwDFv5wHJsdcriPivSFOVVr9zX3MQkl2D5gfrzT7qVSyXOW1G5SFx/9uYNJ8QERkC3KUBgG3EYxvYTx+V2SbwRi3k+yA0KSaVo1ydybvvQs5yplMxgPIkYfiMe9TYltQonegiM0m9xCKbSMU30EosQ05dRdyahvh9AOo6SdQ00/FGc48FEAkFDVAPoeS/g5K+jnCaQL1kXAGojuQknkMmf6y2WcI5Z4iNPkYwekHCE49RWjiRygTz6DmniCafYZI7jHU3COEBTC/R2jiHwhOfYfgzHMRoZlnYMjTP0Ce/g7yzGMRApJTP0GeKlx/LiDLe8PT3yM8/SOUGRoT0KCAIyS0wqNBwXOMEZanH4ksU9tWQjP2twPz1dgIs0wt0yQ42at8Gyw/OMPcZcr+yYGZ8y5j2q+pZ2nSrmWZi2I12LvEQDQ/KIQGSwKQWeMSMt4FAcmUdBlaXBHZJndoasDk8uklpD3LSHtWXgb7oVlpEVlpATnfPLI+bkJZQlrieixmqOsCmiyfasBkCZUlVm7r4LV10UdM9S2AwCRMCUuCjnsy+Zz3a7ECcV//XB6OLAETmq8Dk9AUwBTvQViyBKplkHFuEvHOI0m7Ozr4iAySq7kKwCQgr0L0ZD3LSHivIs4SKPuUIrTXuZGE5VktM9U+Q4BPQJB7O+d/DkwBQUKyAEza6e0CKzNLAUtCdhFRZoUCijwXNWhKS8L0QEC0AEzpKhTC0jcPxcdRlQWEfZrReoTZsIDmdahcBP1B9niv+ph7wPx4oCzMde4B8zZk9RaERV70JuTYTYTitwQ0g7FtEJgs1SrRe9ooSYQgJCy3Rc+TMAzG7iIYv4NQbAty7Bbk+A3xPnLsjrgnyJJv/AFCiR0BSw2YO4imHyKaeiRWhKnpfEZJ31gCMk1f2Beizymyy/RDqCIeQ8k8RSjzDCECM59dhqbuIzT5FHLuBygTjxGeeIiIACY9ZgnMx5Anv0Vw6keMzzxBcPYJgjMaODVgfiuAqMw8BENmeXb6e7FcWrwuQEqwvoAy/TcoMz9CZnY5+93LJdHjp77NA/OJBk1Rlv32F7eVFMqwY6eZab4QpdlC6fUPA0wumyYwZ3b1M7l4+t0bTrj5ZB2Z3mvI9G7mz438tTWx1oslWPY02U9k/y7lXRRLpwvA1Eqz2uJpLp/WgnDilhNu+KB13SJS0gpSEjeGaMDkkmmCk+YEDEIyyVEH/ybi/htI0mSA4PRtaEG4sg/oZal2Q5RbWXpN+W5or/tXkJU2kPNuIittClN23peRNsT1LI3avdeQzpeDWSrVyp8LAn4J6TKS3itIeuYFGOMeApMlUW4a0QBJqCYK5VmWaEVoJVyWcbkzU+zN9Kwi5iXoWIJlWZb9Wr4Xd16yvMoybSHy5VbxGl9n5CFZuObTMlJa4jGYVYYlLrpezJ98voyIh9tT1qB61kRJNiytiOthQtZ/BWrfJRER/xyi0iKi0ivo/RZo7gFzD5gF0c/HKsnKKoF5UwBToads9CYUQi+2hVDsLkIxZoj3BCAJSs5thkX2qMExFL+B8cR1jCevIZTYgBwvxDXILMUSpiztxu8jmLiHEH1h03egprcRS91HLPUQsdQjFICpsBQrSrCE5jOo6cdin2U0fR9RkZXmgZl9ilDuMUITDyFPasHSbDj3HOGpbYQn7yKSIywfIjJxH+HJ+whNPcL4zFOMn9xG8OTOKxjOMqt8AmXmEZTZ+1Bm70Geva9BdZZKV85X3hOvh6deQJn5AbLILp9BPvk0b4f3HBowmWXmwXnqWf7xLxgX5LNKrY/5vSjLsm9JM4I/DDDZw2Rvk6KggjBIWzz9C+MmogRbKKvmXYNYbvUUsscCMLWl0klpYVdJdiHfyyQwGfneJreCCGDSSYgZJkuhVOKyr7mGrGcdOc8GcjylNSEKEougmUkKa7gVJOnMI8q1FB6tCLFQmtklP58ZpHRNQDMlBEEELpdfs1+6Lk7eI/qaIttcE9AU/VOKgl72DNl7XNd2VgoYzokRGVrfcSE2ocfyKsHJXiWhKLJP725Yspy7KDLUuOcqYh6WbwtZ5proUWr9yHyJVcBvJQ/GPCAL1wonF0/nIamVZplxLiDqW0bEt6pBUGJvktkjY1H0KykkYklYANW7irCX4FwT96v+PDT9V0TvMprvu+6VZF+3xvuziX4+15IsgRlSacC+BSWypQExsi1KsHI0X06NbUOO3RVl1nB0C1pwDKWQjbKMy3KuVqrVyrFbGnj5HtEHApbjybsYT99FKH0X4fQ9RFMPBCyjKfYon0DJPEGIPcl8/zKSfiQgqYH1AaKphyIb5b1y9hFCuQeQJx7mM8qnCHNbSe47hCfviVCz377MMpl1hqaeYGzmCcYEMO9DZt8yX3JVpl/kS7LPEZqlgTrve46xkwQse533EZ5+isjE30RJlhZ48snHkE8+QugUocpM8geMz/4NY+xlnvwhvxuTtnjvtsZjVslg31L+kuYEmhL2XbD8jyzJTveva7OZvlXM9K+LYJlWqGbfOm7CXiTLq4wCCPn4CjLeOa0k61lByrOKlHcVSWlJAIvjJ6Jcy5JtAZLi5HOWcVmCZYbJkuwiWA4tADP7EpiEJkVKBOYyMv5FpMX+y0Uk+tm/ZI+SZVeeS0j5FpCmklZixsreJDNTbR2Wdt+SKMNyN6bogfoKPVHey2trIrtllsq9k1pJdgVRzyZinnUNiF4uh2YsvASmyBS9a5rox7OWBybBSVBqvU/eL8q03iuIM6SrmlhIZIQU6/DzCD1Cs1CqzfdQmXm+M3gP+5Ys2c7ngcmskdklS6yFsusClHxZVoiBmHkyCy1AU2SSS1D98yIiVNV61xHxXsPvB8wVhIUIh+KfTyn60T5PCaxCzocSWIMysAZ54OdwJCB3x7u8ZHdb4xXKpr/n+TmXZN/pJRu8iZ9lmO8p9imIgkI0X2eWyVIrbfLUe1AjO6CYh8AUpdfYXbC8WgDhK2ASmoVMdFv0OtnPVLhbM3pPE/y8BOY2xlMFYG5DSe9omaMoyRKYT0VfMpQlOFmeffgysyxkolr59gnC7GFmHyKUuy+AGc5nlmr2uzwwHyA8+QB8TmiqOe7KfIrQ1FMtw5zd0QQ/okeZh6YA5/cIidGQbzE++xyj7EmefC7gqYmDnkOdYDmWpVhml48RIjBPPtFs8GZ/xPjs3zE++5OAptiLKWD5bmDSI5a7MlmaFbDMZ5ba4zdEP1TMnqNiVvOT5WOGev6fIn7JS/bfKvopqGXfPDmrmeJ8JJWq+dlNPk71FkQ+FO/sDmaXhefMOrWg/d7rgHz9ubYBhVtQNJCyb6n1LpfzJVn2MBkszTIo8NFEOswGKfh5FcwQdwdLsYUoXOf4izYCU7hXyywLr786tZKwVlZOUOSTV7hS8KMFFa/MLBma+vXVa4V7tJNm74V4da+2wov+uNxmEpUKQNTKqe+G4i8Bk6+9AiwzTC3LZKZJlatWllWYbYp+Jsdb5vMCoHx/kxknYSrmLXlqVngso4aZrX5Q/5JCoVfB96HgJ8x1YWKcZBlK/+74RNtKAssI50MJrEDOhzKwCoY8uPYaHF9mkwX/2N3nbi/ZXZtKuLHk9wRl4b0/V2Cy9Epg8nwzwsoWwsqdn8cHQFMD5hZCkbuQGVFmkoTfm6G9pol93vb4zfv5XOt10hAhlLiLUHIboeQ9yCn2MnegpO4jnO9Lsk9JEIoQytjHokzLUm0hwqLPqWWghKqSfQQlp6lkKeohFIUaliMmhOjE05fB5wp7nFNUwHJ85BnkGfYtGRT0PEfotaAYiNc0UZDWx2QP81utbyl6l98idFILzTeW4p8Xomc5np+95JYSBo3UxQgJe5X5EIbqYnyE5gQU+nBcJO8N+7aSrADkP6F89Q8R4XP/RPjc/0A9/78iwuf/950LpMMX/xeF+OSinzdBWXieo+r0JQALIPzw813QfAXMQmn258AsgKtwFkD3e5+Fz2MflvFz4BUg+a/Pwp/l+QqYS8KrNurRYPkKmP8KiL/+9QIwBTSlV8BkL1MRYya7gcmxE0KTClqKfV7Bkv1K0XfMn+/fv1zVxEIUDElrAry/DEyC7FNAk5+zJEIJLO8C5spvAmYBYp/y/JyB+SYoC88/LjDvIKjeEcAU0CxA7mfAfBsQf+U19kIJzASBuQOZkbovgsAUICQMX4ZWon31PP8aIbk7WL59CUwNkpzHFDOZBKSAJsGpBYGpEJiMXSDcDcVf9Xj2W4QIzELkTdYLZuuaMlYDZQGYb8KyAE2qZKmKpZvPhwPz/0E9///wHwdMOgExsyQ0C3sx+bhw7X1hugfMt2WYe8B8d4a5B8z3he0eMD8dMIMEJoU/u6D5pwFmIbMsZJr5k+YEGixf71++VfTzzgzzVwDzwv8gnI/PJsNkpklocmfmK2ByPjJv2v6e2eceMPeAKcZR9jLM3608uwfMTwNMjp0E43eF+EeoZZN0FGJZlnOXu7NLPv4DZpi7gCn2XOadfV7zhhWuPm/0LXebF/wGYH6WPcwCMFmapY1dhsYG7wnJ3ffvAXMPmHvA/H17mXvA/HTApBlCML79GjT/jMCkIpY9S2aWmvXdL0DyIwGzsECa52eTYTK75N5Mce4qzxaEQLth+Gse7wFzD5h7wNwDZqF3WTj/E3uY47E7mnuQAKYGTZZn/yzApBJWMyegR6y2gaTg5sPlz28twe6GJR//hgzzswSmyDCFAfoqmGWyFMvyLOGYplk7rfPeI+P8XIGZofH7W4KCopdiHzFP+Xbg7Rbw/NLjz0H0o6llNfUrHXwo/FGFCXxBJfvpRT+vrPEKClmOluRjT/TzXuXb0MgmgqPXEXoZNzSf2LH8+Wv9Yn/pPtrijdJ4/debrxfgWDhDwZuQQ7fxTlhSNftBKtlPlWGyHPt6hilKs3T/ST6Aktot/vnjlWQFMPOG6qIM+6/Kr2/C8jcC8/MtyQpgarAUwMxDkz3N94GlgOxrs5evRks+V5UsFbK7Ibf78S+B8V2vvevPx6iQ/UQq2deBqY2XcAbz1VjJvwuYy5D7NGAKWH4SUBYUuH8clSyBGfol2H2M194KzJ+PixTg+LYzFLwFRb4NNXwH6ttGSj5zYFIlS9EPIfl60GOWitndvcw/LjBZin2vMuxucP6GDPMzBma+LJvPMAvQLMxYauevyzQ/1wzzXaMpe8D8NGMlWoa5B8z3VcS+7f49YH6aDPPPDsyXbj40Vf+Q7PKPmmEWZjJFL/MNaFIIxBJtoUz7rzLOPWC+vaS7l2FyvdceMN8GwPe9tgfMPWD+qtnL3XObHzCHWRD6CGP1PWDmd2XSjJ2R351ZgGbhfLOv+Z8KzII5wZtnUnplVLC7nMrH7yq7/tL13e+x+749YO4B833B+K7794C5B8xPAczCyi6tHKsZq/Pxe5Vn/3Al2b41TO0C5isR0MpLiIqRk185bvK5ZphvgrLwfA+YeyXZ32KN9y6o/Z7X94C5B8xPAUzNWF0bHykoYveAmQfmbmhO+NjTXH0JUmabhZLsm0KgdwHyzev/btEPAZkUa8S4SoyPNRu8pFDGLmpbRbhZRGwX4YaRRcS5meRXZprcc8mM8nPLMGl7R6XsJxX9vOYlq2WWLMdqJdkl4SVb8HX9NLZ4FP5Q9KPFKy9ZzUf2XebrL83Wd/vI8vEuL9nfE4zveu/PGpg0WQ/eBAU/cugWFHrIhjU17Nu8ZAuG6u9zhtRPA0w5fhehOBdJ33sj8qKf15SyHy76EZ6xu2zxdj//va3xuECaIazx6B8r4gXGT794tYlEiHjyq7tYmn2f8qzIMOkj+3cRhTET9Tz9ZP8H4fP/804v2d2in/8P5H4BqtU2FnoAAAAASUVORK5CYII=;" vertex="1" parent="MtvdU-WDkwJUPXnvFVWg-3">
          <mxGeometry x="120.00000000000003" y="125.00000000000003" width="127.78" height="60" as="geometry" />
        </mxCell>
        <mxCell id="MtvdU-WDkwJUPXnvFVWg-26" value="" style="shape=singleArrow;direction=south;whiteSpace=wrap;html=1;arrowWidth=0.33333333333333715;arrowSize=0.5555555555555524;" vertex="1" parent="MtvdU-WDkwJUPXnvFVWg-3">
          <mxGeometry x="115" y="260" width="50" height="30" as="geometry" />
        </mxCell>
      </root>
    </mxGraphModel>
  </diagram>
</mxfile>
